<svg width="16" height="15" viewBox="0 0 16 15" fill="none" xmlns="http://www.w3.org/2000/svg">
<path d="M6.6051 11.0508H6.99573V8.21875H6.6051C6.37073 8.21875 6.21448 8.04297 6.21448 7.82812V6.89062C6.21448 6.67578 6.37073 6.5 6.6051 6.5H8.7926C9.00745 6.5 9.18323 6.67578 9.18323 6.89062V11.0508H9.57385C9.7887 11.0508 9.96448 11.2266 9.96448 11.4414V12.3594C9.96448 12.5938 9.7887 12.75 9.57385 12.75H6.6051C6.37073 12.75 6.21448 12.5938 6.21448 12.3594V11.4414C6.21448 11.2266 6.37073 11.0508 6.6051 11.0508ZM8.08948 2.75C8.8512 2.75 9.49573 3.39453 9.49573 4.15625C9.49573 4.9375 8.8512 5.5625 8.08948 5.5625C7.30823 5.5625 6.68323 4.9375 6.68323 4.15625C6.68323 3.39453 7.30823 2.75 8.08948 2.75Z" fill="#808080"/>
<rect x="1.08447" y="0.5" width="14" height="14" rx="7" stroke="#808080"/>
</svg>
