<svg width="24" height="23" viewBox="0 0 24 23" fill="none" xmlns="http://www.w3.org/2000/svg">
<g id="refresh">
<g id="Shape">
<path d="M18.6835 10.4681C18.7455 10.9145 19.1577 11.2261 19.6041 11.1641C20.0505 11.1021 20.3621 10.6899 20.3001 10.2435L18.6835 10.4681ZM4.28235 8.17667C4.10902 8.59271 4.30579 9.07049 4.72183 9.24381C5.13788 9.41714 5.61565 9.22037 5.78898 8.80433L4.28235 8.17667ZM5.38541 4.75981C5.38541 4.30911 5.02004 3.94374 4.56934 3.94374C4.11863 3.94374 3.75326 4.30911 3.75326 4.75981H5.38541ZM4.56934 8.49042H3.75326C3.75326 8.94113 4.11863 9.3065 4.56934 9.3065V8.49042ZM8.29995 9.3065C8.75065 9.3065 9.11602 8.94113 9.11602 8.49042C9.11602 8.03972 8.75065 7.67435 8.29995 7.67435V9.3065ZM20.3001 10.2435C19.7806 6.50518 16.8236 3.57692 13.0804 3.09393L12.8715 4.71265C15.8848 5.10147 18.2653 7.45875 18.6835 10.4681L20.3001 10.2435ZM13.0804 3.09393C9.33721 2.61094 5.73377 4.69269 4.28235 8.17667L5.78898 8.80433C6.95739 5.99967 9.85821 4.32384 12.8715 4.71265L13.0804 3.09393ZM3.75326 4.75981V8.49042H5.38541V4.75981H3.75326ZM4.56934 9.3065H8.29995V7.67435H4.56934V9.3065Z" fill="white"/>
<path d="M18.6835 10.4681C18.7455 10.9145 19.1577 11.2261 19.6041 11.1641C20.0505 11.1021 20.3621 10.6899 20.3001 10.2435L18.6835 10.4681ZM4.28235 8.17667C4.10902 8.59271 4.30579 9.07049 4.72183 9.24381C5.13788 9.41714 5.61565 9.22037 5.78898 8.80433L4.28235 8.17667ZM5.38541 4.75981C5.38541 4.30911 5.02004 3.94374 4.56934 3.94374C4.11863 3.94374 3.75326 4.30911 3.75326 4.75981H5.38541ZM4.56934 8.49042H3.75326C3.75326 8.94113 4.11863 9.3065 4.56934 9.3065V8.49042ZM8.29995 9.3065C8.75065 9.3065 9.11602 8.94113 9.11602 8.49042C9.11602 8.03972 8.75065 7.67435 8.29995 7.67435V9.3065ZM20.3001 10.2435C19.7806 6.50518 16.8236 3.57692 13.0804 3.09393L12.8715 4.71265C15.8848 5.10147 18.2653 7.45875 18.6835 10.4681L20.3001 10.2435ZM13.0804 3.09393C9.33721 2.61094 5.73377 4.69269 4.28235 8.17667L5.78898 8.80433C6.95739 5.99967 9.85821 4.32384 12.8715 4.71265L13.0804 3.09393ZM3.75326 4.75981V8.49042H5.38541V4.75981H3.75326ZM4.56934 9.3065H8.29995V7.67435H4.56934V9.3065Z" fill="white" fill-opacity="0.2"/>
</g>
<g id="Shape_2">
<path d="M5.37764 12.1089C5.3156 11.6624 4.90342 11.3508 4.457 11.4129C4.01059 11.4749 3.69899 11.8871 3.76103 12.3335L5.37764 12.1089ZM19.7788 14.4003C19.9521 13.9843 19.7553 13.5065 19.3393 13.3332C18.9232 13.1599 18.4455 13.3566 18.2721 13.7727L19.7788 14.4003ZM18.6758 17.817C18.6758 18.2677 19.0411 18.6331 19.4918 18.6331C19.9425 18.6331 20.3079 18.2677 20.3079 17.817H18.6758ZM19.4918 14.0864H20.3079C20.3079 13.6357 19.9425 13.2703 19.4918 13.2703V14.0864ZM15.7612 13.2703C15.3105 13.2703 14.9452 13.6357 14.9452 14.0864C14.9452 14.5371 15.3105 14.9025 15.7612 14.9025V13.2703ZM3.76103 12.3335C4.28055 16.0718 7.23753 19.0001 10.9807 19.4831L11.1896 17.8643C8.17627 17.4755 5.79586 15.1182 5.37764 12.1089L3.76103 12.3335ZM10.9807 19.4831C14.7239 19.9661 18.3274 17.8843 19.7788 14.4003L18.2721 13.7727C17.1037 16.5773 14.2029 18.2532 11.1896 17.8643L10.9807 19.4831ZM20.3079 17.817V14.0864H18.6758V17.817H20.3079ZM19.4918 13.2703H15.7612V14.9025H19.4918V13.2703Z" fill="white"/>
<path d="M5.37764 12.1089C5.3156 11.6624 4.90342 11.3508 4.457 11.4129C4.01059 11.4749 3.69899 11.8871 3.76103 12.3335L5.37764 12.1089ZM19.7788 14.4003C19.9521 13.9843 19.7553 13.5065 19.3393 13.3332C18.9232 13.1599 18.4455 13.3566 18.2721 13.7727L19.7788 14.4003ZM18.6758 17.817C18.6758 18.2677 19.0411 18.6331 19.4918 18.6331C19.9425 18.6331 20.3079 18.2677 20.3079 17.817H18.6758ZM19.4918 14.0864H20.3079C20.3079 13.6357 19.9425 13.2703 19.4918 13.2703V14.0864ZM15.7612 13.2703C15.3105 13.2703 14.9452 13.6357 14.9452 14.0864C14.9452 14.5371 15.3105 14.9025 15.7612 14.9025V13.2703ZM3.76103 12.3335C4.28055 16.0718 7.23753 19.0001 10.9807 19.4831L11.1896 17.8643C8.17627 17.4755 5.79586 15.1182 5.37764 12.1089L3.76103 12.3335ZM10.9807 19.4831C14.7239 19.9661 18.3274 17.8843 19.7788 14.4003L18.2721 13.7727C17.1037 16.5773 14.2029 18.2532 11.1896 17.8643L10.9807 19.4831ZM20.3079 17.817V14.0864H18.6758V17.817H20.3079ZM19.4918 13.2703H15.7612V14.9025H19.4918V13.2703Z" fill="white" fill-opacity="0.2"/>
</g>
</g>
</svg>
