<svg width="20" height="18" viewBox="0 0 20 18" fill="none" xmlns="http://www.w3.org/2000/svg">
<path id="Vector" opacity="0.9" d="M19.7326 9.40349C19.7326 9.6715 19.6126 9.92853 19.3988 10.118C19.1851 10.3076 18.8952 10.414 18.593 10.414H11.3751V16.8141C11.3751 17.0821 11.2551 17.3391 11.0413 17.5287C10.8276 17.7182 10.5377 17.8246 10.2355 17.8246C9.9332 17.8246 9.64333 17.7182 9.4296 17.5287C9.21587 17.3391 9.0958 17.0821 9.0958 16.8141V10.414H1.87794C1.57569 10.414 1.28581 10.3076 1.07208 10.118C0.858352 9.92853 0.738281 9.6715 0.738281 9.40349C0.738281 9.13548 0.858352 8.87844 1.07208 8.68893C1.28581 8.49942 1.57569 8.39295 1.87794 8.39295H9.0958V1.99288C9.0958 1.72487 9.21587 1.46784 9.4296 1.27833C9.64333 1.08881 9.9332 0.982346 10.2355 0.982346C10.5377 0.982346 10.8276 1.08881 11.0413 1.27833C11.2551 1.46784 11.3751 1.72487 11.3751 1.99288V8.39295H18.593C18.8952 8.39295 19.1851 8.49942 19.3988 8.68893C19.6126 8.87844 19.7326 9.13548 19.7326 9.40349Z" fill="white"/>
</svg>
