<svg width="39" height="39" viewBox="0 0 39 39" fill="none" xmlns="http://www.w3.org/2000/svg">
<g id="audio 1" clip-path="url(#clip0_1783_15503)">
<path id="Vector" d="M29.25 23.1562C28.5773 23.1562 28.0312 22.6102 28.0312 21.9375C28.0312 21.2648 28.5773 20.7188 29.25 20.7188C29.9215 20.7188 30.4688 20.1715 30.4688 19.5C30.4688 18.8285 29.9215 18.2812 29.25 18.2812C28.5773 18.2812 28.0312 17.7352 28.0312 17.0625C28.0312 16.3898 28.5773 15.8438 29.25 15.8438C31.2658 15.8438 32.9062 17.4842 32.9062 19.5C32.9062 21.5158 31.2658 23.1562 29.25 23.1562Z" fill="#BBBBBB"/>
<path id="Vector_2" d="M29.25 28.0312C28.5772 28.0312 28.0312 27.4852 28.0312 26.8124C28.0312 26.1397 28.5772 25.5937 29.25 25.5937C32.6101 25.5937 35.3438 22.86 35.3438 19.4999C35.3438 16.1398 32.6101 13.4062 29.25 13.4062C28.5772 13.4062 28.0312 12.8602 28.0312 12.1874C28.0312 11.5147 28.5772 10.9687 29.25 10.9687C33.9544 10.9687 37.7812 14.7956 37.7812 19.4999C37.7812 24.2043 33.9544 28.0312 29.25 28.0312ZM6.09375 12.1874H3.65625C2.31197 12.1874 1.21875 13.2806 1.21875 14.6249V24.3749C1.21875 25.7192 2.31197 26.8124 3.65625 26.8124H6.09375V12.1874ZM24.2665 1.49655C23.4841 1.08462 22.5432 1.13824 21.7937 1.65133L8.53125 11.0491V27.952L21.7925 37.3497L21.8095 37.3619C22.2154 37.6398 22.6858 37.78 23.1562 37.78C23.5365 37.78 23.9167 37.6886 24.2653 37.5045C25.0855 37.0706 25.5938 36.2139 25.5938 35.2645V3.7354C25.5938 2.78599 25.0855 1.92921 24.2665 1.49655Z" fill="#BBBBBB"/>
</g>
<defs>
<clipPath id="clip0_1783_15503">
<rect width="39" height="39" fill="white"/>
</clipPath>
</defs>
</svg>
