<svg width="37" height="37" viewBox="0 0 37 37" fill="none" xmlns="http://www.w3.org/2000/svg">
<g id="logo">
<rect x="0.850098" y="0.701324" width="36" height="36" rx="18" fill="white"/>
<g id="Group">
<path id="Vector" d="M18.2644 15.5113C18.2612 15.5363 18.2612 15.5647 18.2612 15.5925C18.2612 15.7008 18.2828 15.805 18.3219 15.9008L18.3568 15.9727L18.4948 16.3257L19.2115 18.1542L19.8367 19.751C20.015 20.0734 20.3007 20.3264 20.6451 20.4613L20.7521 20.5006C20.7563 20.5019 20.7633 20.5019 20.769 20.5034L22.4824 21.0926V21.094L23.1375 21.3189L23.1823 21.334C23.1839 21.334 23.1865 21.3356 23.188 21.3356C23.3171 21.3681 23.4437 21.4119 23.5645 21.4653C23.8439 21.5858 24.0972 21.7576 24.3136 21.9672C24.4008 22.0505 24.481 22.1404 24.5552 22.2362C24.6183 22.3166 24.6761 22.4012 24.7281 22.4892C24.9567 22.8689 25.0879 23.3151 25.0879 23.7903C25.0879 23.8752 25.0837 23.9572 25.0751 24.0405C25.0723 24.0772 25.0679 24.1126 25.0624 24.1478V24.1506C25.0566 24.1879 25.0496 24.2264 25.0426 24.2642C25.0353 24.3009 25.0286 24.3373 25.0202 24.3738C25.0189 24.378 25.0173 24.3824 25.0158 24.3866C25.008 24.4235 24.9981 24.46 24.9879 24.4967C24.9788 24.5314 24.9674 24.567 24.9546 24.6006C24.9434 24.6374 24.9302 24.6736 24.9153 24.709C24.9025 24.7454 24.8875 24.7824 24.8705 24.8173C24.8242 24.9243 24.769 25.0271 24.707 25.1253C24.6272 25.2542 24.5359 25.3758 24.4344 25.4885C25.2384 24.6241 25.7729 23.5079 25.906 22.2728C25.9284 22.0702 25.9399 21.8648 25.9399 21.6581C25.9399 21.5261 25.9341 21.3954 25.9255 21.2642C25.8243 19.783 25.1499 18.4582 24.1207 17.5129C23.8369 17.2502 23.5268 17.0163 23.1933 16.818L22.5632 16.4959L19.3704 14.8575C19.2723 14.8154 19.1666 14.7938 19.0598 14.7939C18.6463 14.7937 18.305 15.109 18.2644 15.5113Z" fill="#7F7F7F"/>
<path id="Vector_2" d="M18.2644 15.5113C18.2612 15.5363 18.2612 15.5647 18.2612 15.5925C18.2612 15.7008 18.2828 15.805 18.3219 15.9008L18.3568 15.9727L18.4948 16.3257L19.2115 18.1542L19.8367 19.751C20.015 20.0734 20.3007 20.3264 20.6451 20.4613L20.7521 20.5006C20.7563 20.5019 20.7633 20.5019 20.769 20.5034L22.4824 21.0926V21.094L23.1375 21.3189L23.1823 21.334C23.1839 21.334 23.1865 21.3356 23.188 21.3356C23.3171 21.3681 23.4437 21.4119 23.5645 21.4653C23.8439 21.5858 24.0972 21.7576 24.3136 21.9672C24.4008 22.0505 24.481 22.1404 24.5552 22.2362C24.6183 22.3166 24.6761 22.4012 24.7281 22.4892C24.9567 22.8689 25.0879 23.3151 25.0879 23.7903C25.0879 23.8752 25.0837 23.9572 25.0751 24.0405C25.0723 24.0772 25.0679 24.1126 25.0624 24.1478V24.1506C25.0566 24.1879 25.0496 24.2264 25.0426 24.2642C25.0353 24.3009 25.0286 24.3373 25.0202 24.3738C25.0189 24.378 25.0173 24.3824 25.0158 24.3866C25.008 24.4235 24.9981 24.46 24.9879 24.4967C24.9788 24.5314 24.9674 24.567 24.9546 24.6006C24.9434 24.6374 24.9302 24.6736 24.9153 24.709C24.9025 24.7454 24.8875 24.7824 24.8705 24.8173C24.8242 24.9243 24.769 25.0271 24.707 25.1253C24.6272 25.2542 24.5359 25.3758 24.4344 25.4885C25.2384 24.6241 25.7729 23.5079 25.906 22.2728C25.9284 22.0702 25.9399 21.8648 25.9399 21.6581C25.9399 21.5261 25.9341 21.3954 25.9255 21.2642C25.8243 19.783 25.1499 18.4582 24.1207 17.5129C23.8369 17.2502 23.5268 17.0163 23.1933 16.818L22.5632 16.4959L19.3704 14.8575C19.2723 14.8154 19.1666 14.7938 19.0598 14.7939C18.6463 14.7937 18.305 15.109 18.2644 15.5113Z" fill="url(#paint0_linear_3056_10517)"/>
<path id="Vector_3" d="M12.5793 8.28935C12.125 8.29738 11.7603 8.6692 11.7603 9.12379V23.6796C11.7621 23.7812 11.7678 23.8814 11.7751 23.9832C11.7816 24.0368 11.7886 24.0926 11.7985 24.1467C12.006 25.315 13.0225 26.2015 14.2499 26.2015C14.6802 26.2015 15.0838 26.0918 15.4369 25.9013C15.4389 25.8997 15.4426 25.8976 15.4444 25.8976L15.5715 25.8208L16.0865 25.5177L16.7416 25.129L16.7431 12.196C16.7431 11.3366 16.313 10.5789 15.6545 10.1288C15.6389 10.1194 15.6238 10.1095 15.61 10.0983L13.061 8.43148C12.9319 8.34607 12.7762 8.29245 12.6093 8.28931L12.5793 8.28935Z" fill="#7F7F7F"/>
<path id="Vector_4" d="M12.5793 8.28935C12.125 8.29738 11.7603 8.6692 11.7603 9.12379V23.6796C11.7621 23.7812 11.7678 23.8814 11.7751 23.9832C11.7816 24.0368 11.7886 24.0926 11.7985 24.1467C12.006 25.315 13.0225 26.2015 14.2499 26.2015C14.6802 26.2015 15.0838 26.0918 15.4369 25.9013C15.4389 25.8997 15.4426 25.8976 15.4444 25.8976L15.5715 25.8208L16.0865 25.5177L16.7416 25.129L16.7431 12.196C16.7431 11.3366 16.313 10.5789 15.6545 10.1288C15.6389 10.1194 15.6238 10.1095 15.61 10.0983L13.061 8.43148C12.9319 8.34607 12.7762 8.29245 12.6093 8.28931L12.5793 8.28935Z" fill="url(#paint1_linear_3056_10517)"/>
<path id="Vector_5" d="M22.6864 21.5871L16.8259 25.0609L16.7415 25.1116V25.1301L16.0864 25.518L15.5717 25.8219L15.4454 25.8982L15.4368 25.9023C15.0846 26.0937 14.6808 26.202 14.2506 26.202C13.0235 26.202 12.0058 25.316 11.7991 24.1473C11.8972 25.0023 12.1886 25.7982 12.6281 26.4915C13.5331 27.9202 15.0635 28.9139 16.834 29.0866H17.9165C18.8741 28.9866 19.6737 28.6031 20.5142 28.0852L21.8066 27.2948C22.3888 26.9217 23.9689 26.0039 24.4345 25.4889C24.5357 25.3762 24.6271 25.2554 24.7071 25.126C24.769 25.0276 24.8242 24.9247 24.8705 24.8177C24.8862 24.7813 24.901 24.7459 24.9153 24.7096C24.9289 24.6737 24.9416 24.6375 24.9546 24.6008C24.9789 24.5305 24.9981 24.46 25.0166 24.3873C25.026 24.3459 25.0346 24.3051 25.0432 24.2644C25.0713 24.1111 25.0867 23.9536 25.0867 23.7903C25.0867 23.3152 24.9554 22.8689 24.7281 22.4898C24.6761 22.4013 24.6188 22.3166 24.5553 22.2367C24.4811 22.1404 24.4009 22.0511 24.3136 21.9678C24.0973 21.7582 23.8447 21.5863 23.5646 21.4655C23.4438 21.4121 23.3177 21.3681 23.1881 21.3361C23.1866 21.3361 23.1839 21.3346 23.1824 21.3346L23.1376 21.3195L22.6864 21.5871Z" fill="#7F7F7F"/>
<path id="Vector_6" d="M22.6864 21.5871L16.8259 25.0609L16.7415 25.1116V25.1301L16.0864 25.518L15.5717 25.8219L15.4454 25.8982L15.4368 25.9023C15.0846 26.0937 14.6808 26.202 14.2506 26.202C13.0235 26.202 12.0058 25.316 11.7991 24.1473C11.8972 25.0023 12.1886 25.7982 12.6281 26.4915C13.5331 27.9202 15.0635 28.9139 16.834 29.0866H17.9165C18.8741 28.9866 19.6737 28.6031 20.5142 28.0852L21.8066 27.2948C22.3888 26.9217 23.9689 26.0039 24.4345 25.4889C24.5357 25.3762 24.6271 25.2554 24.7071 25.126C24.769 25.0276 24.8242 24.9247 24.8705 24.8177C24.8862 24.7813 24.901 24.7459 24.9153 24.7096C24.9289 24.6737 24.9416 24.6375 24.9546 24.6008C24.9789 24.5305 24.9981 24.46 25.0166 24.3873C25.026 24.3459 25.0346 24.3051 25.0432 24.2644C25.0713 24.1111 25.0867 23.9536 25.0867 23.7903C25.0867 23.3152 24.9554 22.8689 24.7281 22.4898C24.6761 22.4013 24.6188 22.3166 24.5553 22.2367C24.4811 22.1404 24.4009 22.0511 24.3136 21.9678C24.0973 21.7582 23.8447 21.5863 23.5646 21.4655C23.4438 21.4121 23.3177 21.3681 23.1881 21.3361C23.1866 21.3361 23.1839 21.3346 23.1824 21.3346L23.1376 21.3195L22.6864 21.5871Z" fill="url(#paint2_linear_3056_10517)"/>
<path id="Vector_7" opacity="0.15" d="M25.0866 23.7903C25.0866 23.9535 25.0713 24.1113 25.0429 24.2646C25.0346 24.3052 25.026 24.3458 25.0163 24.387C24.9981 24.4599 24.9788 24.5304 24.9546 24.601C24.9418 24.6374 24.9288 24.6739 24.9153 24.7093C24.9013 24.7457 24.8861 24.7812 24.8703 24.8176C24.8238 24.9243 24.7694 25.0273 24.7073 25.1256C24.6275 25.2546 24.5362 25.3761 24.4345 25.4886C23.9689 26.0038 22.3888 26.9216 21.8066 27.2947L20.5142 28.0851C19.5667 28.6688 18.6716 29.0821 17.5427 29.1104C17.4893 29.112 17.437 29.1133 17.3851 29.1133C17.3122 29.1133 17.2404 29.112 17.1683 29.1091C15.2567 29.0362 13.5896 28.0091 12.6281 26.4914C12.1782 25.7827 11.8947 24.9812 11.7991 24.1471C12.0058 25.3159 13.0235 26.2019 14.2506 26.2019C14.6808 26.2019 15.0846 26.0934 15.4368 25.9022L15.4454 25.8978L15.5717 25.8218L16.0864 25.518L16.7415 25.13V25.1115L16.8259 25.0608L22.6864 21.5868L23.1376 21.3194L23.1824 21.3345C23.1837 21.3345 23.1866 21.3361 23.1881 21.3361C23.3178 21.3681 23.444 21.4121 23.5646 21.4655C23.8447 21.5863 24.097 21.7581 24.3136 21.9677C24.4008 22.0511 24.4816 22.1411 24.5553 22.2367C24.6188 22.3166 24.6761 22.4012 24.7281 22.4897C24.9554 22.8688 25.0866 23.3151 25.0866 23.7903Z" fill="#7F7F7F"/>
<path id="Vector_8" opacity="0.15" d="M25.0866 23.7903C25.0866 23.9535 25.0713 24.1113 25.0429 24.2646C25.0346 24.3052 25.026 24.3458 25.0163 24.387C24.9981 24.4599 24.9788 24.5304 24.9546 24.601C24.9418 24.6374 24.9288 24.6739 24.9153 24.7093C24.9013 24.7457 24.8861 24.7812 24.8703 24.8176C24.8238 24.9243 24.7694 25.0273 24.7073 25.1256C24.6275 25.2546 24.5362 25.3761 24.4345 25.4886C23.9689 26.0038 22.3888 26.9216 21.8066 27.2947L20.5142 28.0851C19.5667 28.6688 18.6716 29.0821 17.5427 29.1104C17.4893 29.112 17.437 29.1133 17.3851 29.1133C17.3122 29.1133 17.2404 29.112 17.1683 29.1091C15.2567 29.0362 13.5896 28.0091 12.6281 26.4914C12.1782 25.7827 11.8947 24.9812 11.7991 24.1471C12.0058 25.3159 13.0235 26.2019 14.2506 26.2019C14.6808 26.2019 15.0846 26.0934 15.4368 25.9022L15.4454 25.8978L15.5717 25.8218L16.0864 25.518L16.7415 25.13V25.1115L16.8259 25.0608L22.6864 21.5868L23.1376 21.3194L23.1824 21.3345C23.1837 21.3345 23.1866 21.3361 23.1881 21.3361C23.3178 21.3681 23.444 21.4121 23.5646 21.4655C23.8447 21.5863 24.097 21.7581 24.3136 21.9677C24.4008 22.0511 24.4816 22.1411 24.5553 22.2367C24.6188 22.3166 24.6761 22.4012 24.7281 22.4897C24.9554 22.8688 25.0866 23.3151 25.0866 23.7903Z" fill="url(#paint3_linear_3056_10517)"/>
</g>
</g>
<defs>
<linearGradient id="paint0_linear_3056_10517" x1="19.1382" y1="15.7536" x2="25.7948" y2="23.1723" gradientUnits="userSpaceOnUse">
<stop stop-color="#37BDFF"/>
<stop offset="0.25" stop-color="#26C6F4"/>
<stop offset="0.5" stop-color="#15D0E9"/>
<stop offset="0.75" stop-color="#3BD6DF"/>
<stop offset="1" stop-color="#62DCD4"/>
</linearGradient>
<linearGradient id="paint1_linear_3056_10517" x1="14.3557" y1="25.8907" x2="14.1417" y2="9.42795" gradientUnits="userSpaceOnUse">
<stop stop-color="#1B48EF"/>
<stop offset="0.5" stop-color="#2080F1"/>
<stop offset="1" stop-color="#26B8F4"/>
</linearGradient>
<linearGradient id="paint2_linear_3056_10517" x1="18.4433" y1="25.2039" x2="34.5545" y2="25.2039" gradientUnits="userSpaceOnUse">
<stop stop-color="#39D2FF"/>
<stop offset="0.5" stop-color="#248FFA"/>
<stop offset="1" stop-color="#104CF5"/>
</linearGradient>
<linearGradient id="paint3_linear_3056_10517" x1="18.4433" y1="25.2173" x2="34.5545" y2="25.2173" gradientUnits="userSpaceOnUse">
<stop stop-color="white"/>
<stop offset="1"/>
</linearGradient>
</defs>
</svg>
