<svg width="23" height="23" viewBox="0 0 23 23" fill="none" xmlns="http://www.w3.org/2000/svg">
<g id="Group 48095509">
<g id="Group">
<g id="Group_2">
<path id="Vector" d="M6.79569 1.516C6.22825 1.87865 5.7888 2.37783 5.51575 2.95807C4.70938 3.47858 4.23153 4.29775 4.23153 5.16811C4.23153 5.31744 4.24433 5.4625 4.26993 5.60756C3.13505 6.04701 2.37134 7.03683 2.37134 8.12905C2.37134 8.53437 2.47374 8.92689 2.66573 9.28527C1.61618 9.94658 0.980469 11.0089 0.980469 12.1396C0.980469 13.0355 1.36872 13.8803 2.05562 14.5203L2.94732 14.3069C2.95159 14.3069 2.96012 14.3027 2.96439 14.3027C3.57449 14.1832 5.25976 13.6627 5.70774 12.6771C5.80587 12.4638 6.05759 12.3657 6.27091 12.4638C6.48424 12.5619 6.58237 12.8137 6.48424 13.027C5.776 14.5842 3.33984 15.0962 3.13078 15.1346L2.39694 15.3096C2.37988 15.429 2.36708 15.5527 2.36708 15.6765C2.36708 16.773 3.10518 17.7415 4.2358 18.1894C4.22727 18.262 4.22727 18.3345 4.22727 18.407C4.22727 19.2177 4.64112 19.9814 5.34935 20.5061L5.43895 20.2075C5.49441 20.007 6.38611 16.8754 8.70281 17.1185C8.93747 17.1441 9.10813 17.3532 9.08253 17.5879C9.05693 17.8225 8.84787 17.9932 8.61322 17.9676C6.99622 17.7926 6.27091 20.408 6.26238 20.4336C6.26238 20.4379 6.26238 20.4421 6.25811 20.4421L5.98933 21.3552C6.21545 21.624 6.48424 21.8586 6.79143 22.0591C7.4058 22.4559 8.1311 22.665 8.882 22.665C9.8505 22.665 10.7507 22.3194 11.4291 21.7178V7.01123L10.8233 7.27149C9.70117 7.7536 8.88627 8.75623 8.64735 9.95511C8.60468 10.1599 8.42976 10.2964 8.22923 10.2964C8.20363 10.2964 8.17377 10.2922 8.1439 10.2879C7.91351 10.241 7.76419 10.0148 7.81112 9.78445C8.1055 8.31251 9.10813 7.0795 10.4862 6.48646L11.4291 6.08114V1.85732C10.7593 1.25574 9.85476 0.910156 8.88627 0.910156C8.13537 0.910156 7.41007 1.11921 6.79569 1.516Z" fill="white"/>
<path id="Vector_2" d="M17.5094 12.4681C17.7227 12.3699 17.9787 12.4638 18.0726 12.6814C18.5206 13.6627 20.1973 14.1875 20.8117 14.3069L21.9594 14.4904C22.6207 13.8504 23.0004 13.0184 23.0004 12.1396C23.0004 11.0047 22.3647 9.94658 21.3108 9.28527C21.5028 8.92689 21.6052 8.5301 21.6052 8.12905C21.6052 7.03683 20.8415 6.04701 19.7066 5.60756C19.7322 5.4625 19.745 5.31744 19.745 5.16811C19.745 4.08016 19.0197 3.11166 17.8849 2.65942C17.2364 1.57573 16.0204 0.910156 14.6722 0.910156C13.8914 0.910156 13.1533 1.13201 12.5432 1.53733V9.15301L13.2898 9.473C14.6722 10.066 15.6705 11.2991 15.9649 12.771C16.0119 13.0014 15.8625 13.2275 15.6322 13.2744C15.6023 13.2787 15.5767 13.283 15.5468 13.283C15.3463 13.283 15.1714 13.1422 15.1287 12.9417C14.8898 11.7428 14.0749 10.7401 12.9528 10.258L12.5475 10.0831V22.0421C13.1576 22.4431 13.8957 22.6692 14.6765 22.6692C15.9223 22.6692 17.0529 22.1018 17.7313 21.1589L17.5265 20.4464C17.5265 20.4421 17.5265 20.4421 17.5222 20.4379C17.5137 20.4123 16.7884 17.8012 15.1714 17.9718C14.9367 17.9974 14.7277 17.8268 14.7021 17.5921C14.6765 17.3575 14.8471 17.1484 15.0818 17.1228C17.4027 16.8754 18.2944 20.024 18.3456 20.2117L18.4651 20.6213C19.2629 20.1094 19.7493 19.2987 19.7493 18.407C19.7493 18.3345 19.745 18.262 19.7408 18.1894C20.8714 17.7457 21.6095 16.773 21.6095 15.6765C21.6095 15.5442 21.5967 15.4119 21.5754 15.284L20.6709 15.1389C20.6666 15.1389 20.6623 15.1389 20.6581 15.1389C20.5514 15.1176 18.0214 14.6184 17.2961 13.027C17.198 12.8179 17.2961 12.5662 17.5094 12.4681Z" fill="white"/>
</g>
</g>
</g>
</svg>
