<svg width="25" height="25" viewBox="0 0 25 25" fill="none" xmlns="http://www.w3.org/2000/svg">
<g id="brand-hipchat">
<g id="Path">
<path fill-rule="evenodd" clip-rule="evenodd" d="M18.6614 17.929C18.6614 17.929 18.7384 17.874 18.8614 17.78C20.7044 16.355 21.8594 14.29 21.8594 11.991C21.8594 7.70499 17.8294 4.22699 12.8614 4.22699C7.89138 4.22699 3.85938 7.70499 3.85938 11.991C3.85938 16.279 7.88938 19.637 12.8594 19.637C13.2834 19.637 13.9794 19.609 14.9474 19.553C16.2094 20.373 18.0514 21.046 19.6634 21.046C20.1624 21.046 20.3974 20.636 20.0774 20.218C19.5914 19.622 18.9214 18.667 18.6614 17.928V17.929Z" stroke="#C0C0C0" stroke-width="1.75" stroke-linecap="round" stroke-linejoin="round"/>
<path fill-rule="evenodd" clip-rule="evenodd" d="M18.6614 17.929C18.6614 17.929 18.7384 17.874 18.8614 17.78C20.7044 16.355 21.8594 14.29 21.8594 11.991C21.8594 7.70499 17.8294 4.22699 12.8614 4.22699C7.89138 4.22699 3.85938 7.70499 3.85938 11.991C3.85938 16.279 7.88938 19.637 12.8594 19.637C13.2834 19.637 13.9794 19.609 14.9474 19.553C16.2094 20.373 18.0514 21.046 19.6634 21.046C20.1624 21.046 20.3974 20.636 20.0774 20.218C19.5914 19.622 18.9214 18.667 18.6614 17.928V17.929Z" stroke="white" stroke-opacity="0.2" stroke-width="1.75" stroke-linecap="round" stroke-linejoin="round"/>
</g>
<g id="Path_2">
<path d="M8.35938 14.137C10.8594 16.637 14.8594 16.637 17.3594 14.137" stroke="#C0C0C0" stroke-width="1.75" stroke-linecap="round" stroke-linejoin="round"/>
<path d="M8.35938 14.137C10.8594 16.637 14.8594 16.637 17.3594 14.137" stroke="white" stroke-opacity="0.2" stroke-width="1.75" stroke-linecap="round" stroke-linejoin="round"/>
</g>
</g>
</svg>
