<svg width="25" height="25" viewBox="0 0 25 25" fill="none" xmlns="http://www.w3.org/2000/svg">
<g id="brush">
<g id="Path">
<path d="M3.32812 21.637V17.637C3.32812 15.4278 5.11899 13.637 7.32812 13.637C9.53726 13.637 11.3281 15.4278 11.3281 17.637C11.3281 19.8461 9.53726 21.637 7.32812 21.637H3.32813" stroke="white" stroke-width="1.75" stroke-linecap="round" stroke-linejoin="round"/>
<path d="M3.32812 21.637V17.637C3.32812 15.4278 5.11899 13.637 7.32812 13.637C9.53726 13.637 11.3281 15.4278 11.3281 17.637C11.3281 19.8461 9.53726 21.637 7.32812 21.637H3.32813" stroke="white" stroke-opacity="0.2" stroke-width="1.75" stroke-linecap="round" stroke-linejoin="round"/>
</g>
<g id="Path_2">
<path d="M21.3273 3.63696C15.513 4.43226 10.6005 8.34684 8.52734 13.837" stroke="white" stroke-width="1.75" stroke-linecap="round" stroke-linejoin="round"/>
<path d="M21.3273 3.63696C15.513 4.43226 10.6005 8.34684 8.52734 13.837" stroke="white" stroke-opacity="0.2" stroke-width="1.75" stroke-linecap="round" stroke-linejoin="round"/>
</g>
<g id="Path_3">
<path d="M21.3289 3.63696C20.5336 9.45135 16.619 14.3638 11.1289 16.437" stroke="white" stroke-width="1.75" stroke-linecap="round" stroke-linejoin="round"/>
<path d="M21.3289 3.63696C20.5336 9.45135 16.619 14.3638 11.1289 16.437" stroke="white" stroke-opacity="0.2" stroke-width="1.75" stroke-linecap="round" stroke-linejoin="round"/>
</g>
<g id="Path_4">
<path d="M10.9277 9.63696C12.8709 10.5338 14.4309 12.0938 15.3277 14.037" stroke="white" stroke-width="1.75" stroke-linecap="round" stroke-linejoin="round"/>
<path d="M10.9277 9.63696C12.8709 10.5338 14.4309 12.0938 15.3277 14.037" stroke="white" stroke-opacity="0.2" stroke-width="1.75" stroke-linecap="round" stroke-linejoin="round"/>
</g>
</g>
</svg>
