<svg width="18" height="27" viewBox="0 0 18 27" fill="none" xmlns="http://www.w3.org/2000/svg">
<g id="Group 1000008567">
<path id="Vector" d="M16.9489 8.9051C16.9484 7.75233 16.6814 6.61432 16.1673 5.57489C15.6533 4.53545 14.9054 3.62105 13.9786 2.89902C13.0519 2.17699 11.97 1.66571 10.8125 1.40283C9.65503 1.13995 8.45149 1.13217 7.2905 1.38006C6.12951 1.62795 5.04064 2.12519 4.10407 2.83518C3.1675 3.54516 2.40707 4.44981 1.87879 5.48251C1.3505 6.5152 1.06781 7.64965 1.05153 8.80232C1.03524 9.95499 1.28578 11.0965 1.7847 12.1429L5.6391 20.3272H12.3605L16.2149 12.1429C16.6997 11.1283 16.9502 10.0233 16.9489 8.9051Z" stroke="white" stroke-width="1.14601" stroke-linecap="round" stroke-linejoin="round"/>
<path id="Vector_2" d="M5.63379 20.3272H12.3658V22.7201C12.3658 23.5858 12.0112 24.416 11.3799 25.0281C10.7487 25.6403 9.89251 25.9841 8.99979 25.9841C8.10707 25.9841 7.25092 25.6403 6.61967 25.0281C5.98842 24.416 5.63379 23.5858 5.63379 22.7201V20.3272Z" fill="white"/>
<path id="Vector_3" d="M10.2389 20.3272V22.7201C10.2382 23.4046 10.0156 24.0715 9.60261 24.6266C9.18961 25.1817 8.60712 25.5968 7.9375 25.8133C8.27999 25.9247 8.63882 25.9818 9.0001 25.9822C9.44213 25.9822 9.87983 25.8978 10.2882 25.7338C10.6966 25.5697 11.0677 25.3293 11.3802 25.0262C11.6928 24.7231 11.9407 24.3633 12.1099 23.9673C12.279 23.5713 12.3661 23.1469 12.3661 22.7182V20.3272H10.2389Z" fill="white"/>
<path id="Vector_4" d="M5.63379 20.3272H12.3658V22.7201C12.3658 23.5858 12.0112 24.416 11.3799 25.0281C10.7487 25.6403 9.89251 25.9841 8.99979 25.9841C8.10707 25.9841 7.25092 25.6403 6.61967 25.0281C5.98842 24.416 5.63379 23.5858 5.63379 22.7201V20.3272Z" stroke="white" stroke-width="1.14601" stroke-linecap="round" stroke-linejoin="round"/>
<path id="Vector_5" d="M4.80176 22.5909H13.1983" stroke="white" stroke-width="1.14601" stroke-linecap="round" stroke-linejoin="round"/>
<path id="Vector_6" d="M4.80176 20.3272H13.1983" stroke="white" stroke-width="1.14601" stroke-linecap="round" stroke-linejoin="round"/>
</g>
</svg>
