<svg width="45" height="45" viewBox="0 0 45 45" fill="none" xmlns="http://www.w3.org/2000/svg">
<g id="code (2) 1">
<path id="Vector" d="M14.2851 11.8158C13.7574 11.3128 13.0516 11.0399 12.3227 11.0571C11.5939 11.0743 10.9018 11.3801 10.3984 11.9075L2.00172 20.6708C0.975054 21.7525 0.993387 23.4575 2.03839 24.5208L10.4351 32.9175C10.9667 33.4491 11.6817 33.7241 12.3784 33.7241C13.0751 33.7241 13.7901 33.4491 14.3217 32.9175C15.4034 31.8358 15.4034 30.0941 14.3217 29.0308L7.85005 22.5225L14.3767 15.7025C14.8797 15.1748 15.1526 14.469 15.1355 13.7402C15.1183 13.0113 14.8124 12.3192 14.2851 11.8158ZM30.3267 32.8991C30.8584 33.4308 31.5734 33.7058 32.2701 33.7058C32.9667 33.7058 33.6817 33.4308 34.2134 32.8991L42.6101 24.5025C43.6734 23.4391 43.6917 21.7341 42.6467 20.6525L34.2501 11.8891C33.7418 11.3836 33.0563 11.0965 32.3395 11.089C31.6227 11.0815 30.9313 11.3542 30.4126 11.849C29.8939 12.3438 29.5889 13.0216 29.5626 13.7379C29.5363 14.4543 29.7907 15.1526 30.2717 15.6841L36.7984 22.5041L30.3084 28.9941C29.2634 30.0941 29.2634 31.8358 30.3267 32.8991ZM17.9884 39.1141C18.3375 39.2066 18.7015 39.2292 19.0593 39.1806C19.4172 39.1319 19.7619 39.013 20.0737 38.8307C20.3855 38.6485 20.6581 38.4063 20.876 38.1183C21.0939 37.8303 21.2528 37.5021 21.3434 37.1525L28.6584 8.99246C28.8131 8.29782 28.6925 7.57023 28.322 6.96265C27.9514 6.35506 27.3597 5.91479 26.6713 5.73437C25.9829 5.55396 25.2513 5.64745 24.6304 5.9952C24.0095 6.34295 23.5476 6.91788 23.3417 7.59913L16.0084 35.7591C15.6417 37.2258 16.5217 38.7291 17.9884 39.1141Z" fill="#BBBBBB"/>
</g>
</svg>
