<svg width="59" height="59" viewBox="0 0 59 59" fill="none" xmlns="http://www.w3.org/2000/svg">
<g id="commission 1">
<g id="Group">
<g id="Group_2">
<path id="Vector" d="M29.5848 44.3275C37.6542 44.3275 44.1958 37.7859 44.1958 29.7165C44.1958 21.647 37.6542 15.1055 29.5848 15.1055C21.5153 15.1055 14.9738 21.647 14.9738 29.7165C14.9738 37.7859 21.5153 44.3275 29.5848 44.3275Z" fill="#BBBBBB"/>
<path id="Vector_2" d="M29.5848 17.3711C37.2725 17.3711 43.5691 23.31 44.1478 30.8493C44.1765 30.475 44.1958 30.098 44.1958 29.7165C44.1958 21.647 37.6542 15.1055 29.5848 15.1055C21.5153 15.1055 14.9738 21.647 14.9738 29.7165C14.9738 30.098 14.993 30.475 15.0218 30.8493C15.6004 23.3098 21.8968 17.3711 29.5848 17.3711Z" fill="white"/>
<path id="Vector_3" d="M29.5848 44.8939C21.2158 44.8939 14.4073 38.0852 14.4073 29.7165C14.4073 21.3477 21.2158 14.5391 29.5848 14.5391C37.9538 14.5391 44.7622 21.3477 44.7622 29.7165C44.7622 38.0852 37.9538 44.8939 29.5848 44.8939ZM29.5848 15.6719C21.8404 15.6719 15.5402 21.9724 15.5402 29.7165C15.5402 37.4606 21.8406 43.7611 29.5848 43.7611C37.3289 43.7611 43.6294 37.4606 43.6294 29.7165C43.6294 21.9724 37.3291 15.6719 29.5848 15.6719Z" fill="#242424"/>
<path id="Vector_4" d="M25.4565 28.6647C23.6977 28.6647 22.2672 27.2339 22.2672 25.4753C22.2672 23.7168 23.698 22.286 25.4565 22.286C27.2153 22.286 28.6461 23.7168 28.6461 25.4753C28.6461 27.2339 27.2151 28.6647 25.4565 28.6647ZM25.4565 24.162C25.1083 24.1624 24.7745 24.3009 24.5283 24.5471C24.2821 24.7933 24.1436 25.1271 24.1431 25.4753C24.1431 26.1994 24.7322 26.7887 25.4565 26.7887C26.1806 26.7887 26.7699 26.1997 26.7699 25.4753C26.7694 25.1272 26.6309 24.7934 26.3847 24.5472C26.1385 24.301 25.8047 24.1624 25.4565 24.162ZM33.782 36.9902C32.0232 36.9902 30.5927 35.5594 30.5927 33.8008C30.5927 32.0422 32.0234 30.6115 33.782 30.6115C35.5406 30.6115 36.9713 32.0422 36.9713 33.8008C36.9713 35.5596 35.5406 36.9902 33.782 36.9902ZM33.782 32.4874C33.4338 32.4879 33.1 32.6264 32.8538 32.8726C32.6076 33.1188 32.4691 33.4526 32.4686 33.8008C32.4686 34.5249 33.0577 35.1142 33.782 35.1142C34.5063 35.1142 35.0954 34.5251 35.0954 33.8008C35.0949 33.4526 34.9564 33.1189 34.7102 32.8727C34.464 32.6265 34.1302 32.4879 33.782 32.4874ZM23.9161 36.0359L33.7342 22.1523L35.2658 23.2355L25.4477 37.1193L23.9161 36.0359Z" fill="white"/>
<path id="Vector_5" d="M39.9849 9.51346C39.641 9.33667 39.2927 9.16873 38.9402 9.00981L38.4746 10.0425C38.8094 10.1934 39.1403 10.353 39.4669 10.521L39.9849 9.51346ZM42.1825 10.8042C41.8609 10.5902 41.5339 10.3844 41.2017 10.187L40.6231 11.1608C40.9387 11.3484 41.2495 11.544 41.5552 11.7474L42.1825 10.8042ZM37.2534 9.53657L37.6547 8.47716C37.2929 8.34017 36.9276 8.2125 36.5592 8.09427L36.213 9.17294C36.5629 9.28522 36.9098 9.40647 37.2534 9.53657ZM21.9648 9.54155C22.3076 9.4116 22.6538 9.29042 23.0029 9.17815L22.6562 8.09971C22.2886 8.21785 21.9241 8.34538 21.5631 8.48215L21.9648 9.54155ZM24.2712 8.81338C24.6265 8.72292 24.9842 8.64156 25.3437 8.56937L25.3403 8.55216C25.7723 8.4662 26.2068 8.39352 26.6433 8.3342L26.6453 8.34938C27.0069 8.29954 27.3714 8.25876 27.7387 8.22704L27.7376 8.21322C28.1751 8.17549 28.6137 8.15094 29.0528 8.13959H29.0571L29.0575 8.15318L29.084 8.1525C29.4422 8.14355 29.8005 8.14348 30.1586 8.15227L30.1588 8.14095C30.6018 8.15227 31.0415 8.1772 31.4777 8.21503L31.477 8.22455C31.844 8.25581 32.2086 8.29637 32.5704 8.34598L32.5715 8.33828C33.0097 8.399 33.4435 8.47309 33.8731 8.55963L33.872 8.56507C34.2329 8.63734 34.5904 8.71845 34.9448 8.80862L35.2239 7.7107C35.0256 7.66041 34.826 7.61283 34.6258 7.56774L34.6271 7.56162C32.7901 7.14536 30.9084 6.95921 29.0254 7.00745C27.4839 7.04463 25.9501 7.23805 24.4477 7.58473L24.4524 7.6049C24.2986 7.64069 24.145 7.67695 23.9923 7.71569L24.2712 8.81338ZM44.2211 12.3317C43.9255 12.0833 43.6236 11.8424 43.3158 11.6094L42.632 12.5125C42.9246 12.734 43.2115 12.9629 43.4925 13.199L44.2211 12.3317ZM48.8126 19.8574C48.9802 20.1829 49.1394 20.5126 49.2902 20.8461L50.3225 20.3796C50.1637 20.0285 49.9961 19.6814 49.8197 19.3388L48.8126 19.8574ZM50.1598 23.1009L51.238 22.7538C51.1196 22.3863 50.9919 22.0218 50.8549 21.6608L49.7959 22.063C49.926 22.4058 50.0473 22.7519 50.1598 23.1009ZM48.1733 18.7042L49.1466 18.1249C48.9494 17.7935 48.7437 17.4672 48.5299 17.1464L47.5872 17.7746C47.7906 18.0793 47.986 18.3893 48.1733 18.7042ZM47.7251 16.0147C47.492 15.7073 47.2511 15.4058 47.0026 15.1107L46.1358 15.8402C46.3719 16.1207 46.6008 16.4072 46.8223 16.6993L47.7251 16.0147ZM46.0762 14.0758C45.8102 13.7961 45.5371 13.5232 45.2572 13.2574L44.4771 14.0787C44.7432 14.3313 45.0027 14.5907 45.2556 14.8565L46.0762 14.0758ZM11.6442 17.7762L10.7014 17.1482C10.4872 17.4697 10.2812 17.7967 10.0836 18.1287L11.0571 18.708C11.2449 18.3925 11.4406 18.0818 11.6442 17.7762ZM10.4166 19.8635L9.40957 19.3449C9.2326 19.6886 9.06444 20.0368 8.90524 20.3891L9.93769 20.8554C10.0888 20.5207 10.2485 20.19 10.4166 19.8635ZM13.0969 15.8395L12.23 15.1102C11.9815 15.4057 11.7404 15.7075 11.5071 16.0151L12.4097 16.6996C12.6316 16.4072 12.8607 16.1205 13.0969 15.8395ZM9.43087 22.0761L8.37169 21.6742C8.23451 22.0359 8.10661 22.4011 7.98812 22.7694L9.06656 23.1163C9.1791 22.7665 9.30058 22.4197 9.43087 22.0761ZM20.7474 10.0461L20.2816 9.01344C19.9303 9.1719 19.5831 9.33939 19.2403 9.51573L19.7585 10.523C20.0841 10.3557 20.4138 10.1967 20.7474 10.0461ZM15.7397 13.1976C16.0204 12.9617 16.307 12.7329 16.5993 12.5116L15.9153 11.6085C15.6078 11.8415 15.3062 12.0821 15.0109 12.3303L15.7397 13.1976ZM18.6051 11.1619L18.0262 10.1882C17.6948 10.3853 17.3683 10.5907 17.0472 10.8042L17.6748 11.7471C17.9799 11.5443 18.2901 11.3491 18.6051 11.1619ZM14.7555 14.0773L13.9753 13.256C13.6955 13.5219 13.4225 13.7948 13.1565 14.0744L13.9773 14.8551C14.2303 14.5895 14.4898 14.3302 14.7555 14.0773ZM52.3287 29.7369C52.3287 29.5473 52.3264 29.3572 52.3216 29.1666L52.3205 29.1249H52.3201C52.3075 28.662 52.2809 28.1995 52.2403 27.7381L52.2421 27.7379C52.2374 27.6838 52.231 27.6301 52.226 27.5759C52.217 27.4803 52.2077 27.3847 52.1975 27.2893C52.1769 27.0978 52.154 26.9065 52.1288 26.7154C52.1232 26.6729 52.1186 26.63 52.1128 26.5877L52.1109 26.5879C52.047 26.1266 51.9705 25.6696 51.8796 25.2181L51.8805 25.2179L51.8728 25.1818C51.8518 25.0783 51.8289 24.9754 51.8062 24.8724C51.7881 24.7885 51.7706 24.7045 51.7514 24.6211L51.7444 24.5887L51.7437 24.5889C51.7053 24.4218 51.665 24.2551 51.6229 24.0889L50.5252 24.3692C50.5681 24.5368 50.6086 24.7056 50.6473 24.8749C50.6652 24.953 50.6816 25.0319 50.6985 25.1103C50.7201 25.2095 50.7423 25.3085 50.7624 25.4082C50.9146 26.1601 51.0266 26.9195 51.098 27.6833C51.1626 28.3659 51.1952 29.0512 51.1954 29.7369V29.738C51.1954 29.9322 51.1922 30.1254 51.1872 30.3185C51.1857 30.3828 51.1823 30.4467 51.18 30.511C51.1755 30.6402 51.1707 30.7691 51.1637 30.8976C51.1596 30.973 51.1544 31.048 51.1496 31.123C51.1261 31.5076 51.0914 31.8915 51.0454 32.2742L51.04 32.3183C51.028 32.4192 51.0153 32.52 51.0017 32.6206C50.9913 32.6974 50.9811 32.7744 50.97 32.851C50.9532 32.9665 50.9351 33.0819 50.9163 33.1969C50.9047 33.2685 50.8936 33.3406 50.8812 33.412C50.8594 33.5381 50.8358 33.6637 50.8121 33.7892C50.8007 33.8485 50.7903 33.9083 50.7785 33.9675C50.7424 34.1491 50.704 34.3303 50.6632 34.511L50.663 34.5126C50.495 35.2519 50.2879 35.9818 50.0426 36.6992C50.0173 36.7732 49.9921 36.8473 49.9658 36.9212C49.651 37.8116 49.2774 38.6802 48.8478 39.5212C48.6389 39.9311 48.417 40.3342 48.1823 40.7299C47.5921 41.7227 46.9234 42.6668 46.1827 43.5531C45.3595 44.5378 44.451 45.4479 43.4678 46.2728C43.2135 46.486 42.9543 46.6934 42.6905 46.8947C42.039 47.3922 41.3597 47.8522 40.6559 48.2724C39.5365 48.939 38.3591 49.503 37.1381 49.9574C37.0427 49.9927 36.9476 50.028 36.8517 50.0623C36.7774 50.0888 36.7027 50.1144 36.6279 50.14C36.0793 50.3292 35.5231 50.4955 34.9606 50.6384C34.8521 50.666 34.7424 50.6917 34.6332 50.7177C34.5678 50.7333 34.5027 50.7499 34.437 50.7648C34.3124 50.7932 34.1869 50.8194 34.0614 50.8457C33.2655 51.0124 32.4608 51.1339 31.6512 51.2096C31.1511 51.2567 30.6495 51.2868 30.1473 51.2997C29.1114 51.3254 28.075 51.2768 27.0461 51.1543C26.4412 51.0827 25.8396 50.9854 25.2429 50.8627C25.0979 50.8328 24.9531 50.8022 24.809 50.7696C24.7476 50.7555 24.6869 50.7401 24.6257 50.7256C24.5122 50.6987 24.3987 50.6722 24.2859 50.6434C23.7237 50.5001 23.1676 50.334 22.6188 50.1456C22.5459 50.1207 22.4729 50.0958 22.4004 50.0702C22.3026 50.0352 22.2051 49.9995 22.1077 49.9633C21.3162 49.6693 20.5428 49.329 19.7913 48.9439C19.3787 48.733 18.973 48.5087 18.5749 48.2715C16.1938 46.8493 14.1071 44.9841 12.4278 42.7767C12.1492 42.4111 11.8822 42.0367 11.6274 41.6541C10.6527 40.186 9.86175 38.6038 9.27227 36.9432C9.24554 36.8682 9.21971 36.7927 9.19388 36.7173C9.00627 36.1695 8.84083 35.6145 8.69794 35.0534C8.65657 34.8897 8.61707 34.7255 8.57945 34.5609C8.56064 34.4786 8.54342 34.3959 8.52575 34.3132C8.50513 34.2183 8.48429 34.1236 8.46481 34.028C8.44713 33.941 8.43127 33.8535 8.41474 33.7661C8.39888 33.6818 8.38211 33.598 8.36716 33.5132C8.3513 33.424 8.33748 33.334 8.32275 33.2443C8.30825 33.1564 8.29307 33.0685 8.2797 32.9801C8.26634 32.8924 8.25501 32.8041 8.243 32.716C8.23552 32.6627 8.22805 32.6095 8.22102 32.556C8.2099 32.4704 8.19925 32.3848 8.18908 32.2991C8.18432 32.2597 8.18002 32.2202 8.17549 32.1806C8.15916 32.0379 8.14435 31.8951 8.13108 31.7522L8.12156 31.6457C8.11318 31.5496 8.10366 31.454 8.09641 31.3575C8.08962 31.2673 8.08509 31.1767 8.07942 31.0863C8.07376 30.9941 8.06674 30.9023 8.0622 30.8099C8.05314 30.6282 8.04635 30.4458 8.04181 30.2627L8.04159 30.2589V30.2587C8.03706 30.0774 8.03479 29.8966 8.03479 29.7165L8.03502 29.6943C8.03592 28.8793 8.08214 28.0748 8.17118 27.283C8.17866 27.2171 8.18772 27.1516 8.19565 27.0859C8.30613 26.176 8.47473 25.2741 8.70043 24.3857L7.60274 24.1059C7.55874 24.2792 7.51682 24.4531 7.47699 24.6274L7.47654 24.6272L7.47201 24.6487C7.4276 24.8434 7.38524 25.0387 7.34581 25.2351C7.25496 25.6894 7.17811 26.1463 7.1154 26.6053L7.11427 26.6051C7.09863 26.7195 7.08549 26.8346 7.07145 26.9495C7.06306 27.0184 7.05355 27.0868 7.04562 27.1559C7.02319 27.355 7.00302 27.5551 6.98581 27.7556C6.94642 28.2171 6.92111 28.6796 6.90991 29.1426H6.909C6.90446 29.3262 6.9022 29.5099 6.9022 29.6936L6.90198 29.7151C6.90198 29.905 6.90424 30.0953 6.909 30.2863L6.90945 30.3001C6.90991 30.3219 6.91149 30.3432 6.91217 30.3649C6.91693 30.5328 6.92259 30.7002 6.93098 30.8672C6.93438 30.9374 6.93981 31.0072 6.94412 31.0772C6.95137 31.1998 6.95794 31.3226 6.96723 31.4445C6.97312 31.5215 6.98082 31.5981 6.98739 31.6749L6.98852 31.6871L6.98671 31.6874C6.99102 31.7383 6.99713 31.7891 7.00167 31.8401C7.0071 31.8996 7.01163 31.9595 7.01752 32.0188C7.02183 32.0625 7.02749 32.1058 7.03202 32.1493C7.04131 32.237 7.05128 32.3245 7.0617 32.4119C7.06873 32.4708 7.07462 32.5299 7.08209 32.5886C7.08776 32.633 7.09433 32.6772 7.10022 32.7216C7.10543 32.7604 7.10928 32.7993 7.11472 32.8378L7.11631 32.8376C7.13081 32.9427 7.1444 33.0483 7.16026 33.153C7.17249 33.2332 7.18631 33.3127 7.19923 33.3925C7.21667 33.4994 7.23321 33.6066 7.25224 33.7131C7.26674 33.7946 7.28283 33.8753 7.29824 33.9566C7.31409 34.0402 7.32882 34.1245 7.34559 34.2079H7.34513L7.34831 34.2221L7.35782 34.2679C7.37459 34.3506 7.39317 34.4328 7.41084 34.5153C7.42081 34.5615 7.43032 34.608 7.44052 34.654C7.44981 34.6957 7.45796 34.7378 7.46725 34.7793L7.47654 34.818L7.48356 34.8502L7.48424 34.8499C7.52117 35.0106 7.55946 35.171 7.59979 35.3303L7.60138 35.3368H7.6016C7.71606 35.7857 7.84436 36.231 7.98631 36.672L7.98472 36.6724C7.99741 36.7121 8.01145 36.751 8.02437 36.7905C8.11408 37.0643 8.20887 37.3364 8.3087 37.6068C8.32841 37.6598 8.34677 37.7132 8.3667 37.766L8.36829 37.7654C8.5317 38.198 8.70842 38.6255 8.89822 39.0472L8.89731 39.0477C8.92518 39.1098 8.95509 39.1709 8.98363 39.2328C9.02645 39.3259 9.06927 39.419 9.11345 39.5112C9.15061 39.5892 9.18913 39.6662 9.22719 39.7437C9.27182 39.8343 9.31623 39.9249 9.36199 40.0149L9.39892 40.0892L9.40028 40.0885C9.61212 40.5009 9.83551 40.9064 10.0711 41.3036L10.0705 41.304L10.0818 41.3219C10.2753 41.6473 10.4765 41.9676 10.6853 42.2821L10.686 42.2832C10.9426 42.6686 11.211 43.046 11.4908 43.4149L11.4896 43.4158C11.5001 43.4296 11.5116 43.4428 11.5223 43.4566C11.7339 43.7351 11.952 44.0086 12.1764 44.277C12.1884 44.2913 12.1992 44.3064 12.2112 44.3207L12.2121 44.32C12.5099 44.6747 12.8185 45.0201 13.1374 45.3559L13.1365 45.3568C13.1508 45.372 13.1662 45.3858 13.1805 45.401C13.3717 45.6022 13.5667 45.7999 13.7652 45.9939C13.8135 46.0408 13.8629 46.0865 13.9114 46.133C13.9261 46.147 13.9397 46.162 13.9544 46.176L13.9555 46.1749C14.2909 46.4944 14.6352 46.8043 14.9898 47.1029L14.9896 47.1031C14.9957 47.1083 15.0023 47.1131 15.0086 47.1183C15.2894 47.3544 15.576 47.5836 15.868 47.8057L15.894 47.8265L15.8947 47.8256C16.2638 48.1059 16.6414 48.3749 17.0268 48.6322L17.0264 48.6329C17.0336 48.6376 17.0413 48.6419 17.0486 48.6469C17.36 48.8542 17.6765 49.0539 17.9977 49.2457L18.0065 49.2514V49.2512C18.405 49.4881 18.8108 49.7128 19.2231 49.9247L19.2224 49.9261C19.2569 49.9438 19.2918 49.9603 19.3264 49.978C19.4175 50.0244 19.5093 50.07 19.601 50.115C19.6774 50.1527 19.754 50.1903 19.8308 50.227C19.9234 50.2711 20.0165 50.3144 20.1097 50.3575C20.162 50.3817 20.2139 50.4071 20.2664 50.4309L20.2671 50.4295C20.6888 50.6203 21.1172 50.7986 21.552 50.964L21.5515 50.9651C21.6109 50.9878 21.6711 51.0086 21.7307 51.0306C21.8259 51.0659 21.921 51.101 22.0169 51.1353C22.0991 51.1645 22.182 51.1926 22.2647 51.2209C22.3601 51.2535 22.4557 51.2862 22.5518 51.3174C22.5835 51.3278 22.6148 51.3392 22.6467 51.3494L22.6472 51.3478C23.0881 51.4902 23.5332 51.619 23.9821 51.7341L23.9818 51.7347L24.0097 51.7415C24.1239 51.7705 24.2388 51.7975 24.3534 51.8247C24.4221 51.841 24.4902 51.8584 24.5591 51.8741C24.7109 51.9085 24.8636 51.9409 25.0166 51.9724C25.048 51.979 25.0793 51.9862 25.1108 51.9926C25.5628 52.0836 26.02 52.1595 26.4811 52.2234L26.4808 52.225C26.5271 52.2314 26.5735 52.2364 26.6197 52.2425C26.8081 52.2675 26.9967 52.29 27.1857 52.31C27.2863 52.3206 27.3871 52.3306 27.4879 52.3401C27.5359 52.3447 27.5835 52.3503 27.6315 52.3544L27.6318 52.3526C28.0906 52.3922 28.5527 52.4199 29.0186 52.4317L29.0244 52.4319C29.4083 52.4414 29.7924 52.4415 30.1763 52.4323L30.2316 52.431V52.4303C30.6976 52.4178 31.1598 52.39 31.6184 52.3499L31.6186 52.3517C31.6632 52.3478 31.7072 52.3424 31.7516 52.3383C31.942 52.3206 32.1322 52.3005 32.3221 52.2778C32.422 52.2658 32.5217 52.2533 32.6211 52.2402C32.6703 52.2336 32.7197 52.2284 32.7684 52.2216L32.7682 52.22C33.2292 52.1559 33.6864 52.0798 34.138 51.9885V51.9887C34.1778 51.9806 34.2173 51.9713 34.2571 51.9631C34.4016 51.9335 34.5458 51.9025 34.6896 51.87C34.7585 51.8544 34.8267 51.8369 34.8956 51.8206C35.0109 51.7932 35.1265 51.7662 35.2409 51.737L35.2669 51.7307L35.2667 51.73C35.7155 51.6148 36.1606 51.4859 36.6014 51.3432L36.6018 51.3448C36.6354 51.334 36.6684 51.3222 36.702 51.3111C36.7971 51.2798 36.8918 51.2476 36.9865 51.2152C37.0706 51.1865 37.1544 51.1577 37.238 51.128C37.3318 51.0947 37.4252 51.06 37.5183 51.0256C37.577 51.0039 37.6363 50.9832 37.6948 50.961L37.6943 50.9597C38.1266 50.7953 38.5538 50.6176 38.9751 50.4268L38.9755 50.4279C39.0326 50.4021 39.089 50.3745 39.1459 50.3482C39.2379 50.3056 39.3301 50.263 39.4214 50.2193C39.4998 50.1817 39.5777 50.1431 39.6554 50.1049C39.7456 50.0604 39.8356 50.0158 39.9248 49.9703C39.9552 49.9549 39.9858 49.9404 40.0161 49.9247L40.0154 49.9234C40.427 49.7117 40.8319 49.4873 41.2296 49.2507L41.2298 49.2509L41.2375 49.246C41.5622 49.0522 41.882 48.8505 42.1966 48.6408L42.2079 48.6336L42.2077 48.6331C42.5926 48.3758 42.9696 48.1069 43.3382 47.8268L43.3391 47.8279C43.3511 47.8188 43.3622 47.8089 43.3742 47.7998C43.6566 47.5844 43.9339 47.3625 44.2059 47.1342C44.218 47.1242 44.2306 47.1149 44.2427 47.1047L44.242 47.104C44.596 46.8055 44.9409 46.4962 45.276 46.1765L45.2769 46.1776C45.2919 46.1633 45.3059 46.1477 45.3211 46.1334C45.5116 45.9508 45.7001 45.7662 45.8841 45.5775C45.9398 45.5201 45.9942 45.4615 46.0495 45.4037C46.0642 45.3883 46.0801 45.3738 46.0948 45.3581L46.0937 45.357C46.4126 45.0211 46.7214 44.6756 47.0194 44.3209L47.0199 44.3214C47.0289 44.3105 47.0371 44.2992 47.0464 44.2883C47.2759 44.0137 47.499 43.7338 47.7154 43.4487C47.724 43.4373 47.7333 43.4267 47.7419 43.4156L47.7408 43.4149C48.0205 43.0454 48.289 42.6675 48.5458 42.2817L48.5462 42.2819L48.5544 42.269C48.7638 41.9535 48.9653 41.6328 49.1586 41.3072L49.1627 41.3004L49.1625 41.3002C49.3987 40.9012 49.6226 40.4951 49.834 40.0824L49.8353 40.0831C49.8501 40.0545 49.8637 40.0255 49.8782 39.997C49.925 39.9045 49.9712 39.8116 50.0166 39.7183C50.0538 39.6429 50.0909 39.5674 50.1272 39.4915C50.1722 39.3968 50.2162 39.3017 50.2602 39.2063C50.286 39.1501 50.3132 39.0946 50.3385 39.038L50.3374 39.0375C50.5279 38.6144 50.7052 38.1856 50.8692 37.7515L50.8705 37.752C50.8909 37.6978 50.9099 37.6428 50.9299 37.5884C51.0305 37.3171 51.1256 37.0439 51.2151 36.7687C51.2273 36.7311 51.2407 36.6939 51.2527 36.6561L51.2511 36.6556C51.393 36.2145 51.5212 35.7691 51.6354 35.3201H51.6356L51.6374 35.3124C51.6832 35.1316 51.7269 34.9499 51.7682 34.7675L51.7693 34.762C51.7797 34.7156 51.789 34.6687 51.7992 34.622C51.83 34.4843 51.8593 34.3462 51.8873 34.2079L51.8909 34.1904H51.8905L51.8907 34.1888C51.9032 34.1261 51.9143 34.0631 51.9263 34.0003C51.9514 33.8682 51.9764 33.7362 51.9992 33.6034C52.0122 33.5289 52.0237 33.4541 52.0357 33.3796C52.0666 33.1936 52.0946 33.0071 52.1195 32.8202L52.1207 32.8204C52.1261 32.781 52.1302 32.7411 52.1354 32.7017C52.1479 32.6058 52.1596 32.5098 52.1712 32.4137C52.1769 32.3661 52.1832 32.319 52.1886 32.2714C52.1939 32.2257 52.1979 32.1797 52.2027 32.1339C52.2131 32.0338 52.2229 31.9334 52.2322 31.8328C52.2371 31.7782 52.2435 31.7241 52.248 31.6692H52.2478C52.2507 31.6348 52.2525 31.6001 52.2553 31.5657C52.2652 31.4409 52.2736 31.3153 52.2818 31.1898C52.2865 31.1128 52.292 31.036 52.296 30.959C52.3035 30.8212 52.3085 30.683 52.3135 30.5448C52.3158 30.4796 52.3192 30.4148 52.3207 30.3493L52.3225 30.2822C52.3269 30.101 52.3291 29.9195 52.3291 29.7373C52.3287 29.7373 52.3287 29.7371 52.3287 29.7369Z" fill="white"/>
<path id="Vector_6" d="M8.53142 32.0631C8.53172 31.7252 8.66608 31.4012 8.90501 31.1623C9.14395 30.9234 9.46793 30.789 9.80583 30.7887C10.0848 30.7846 10.351 30.6709 10.5468 30.4722C10.7427 30.2735 10.8524 30.0057 10.8524 29.7267C10.8524 29.4477 10.7427 29.1799 10.5468 28.9811C10.351 28.7824 10.0848 28.6687 9.80583 28.6647C9.46793 28.6644 9.14395 28.53 8.90501 28.2911C8.66608 28.0521 8.53172 27.7282 8.53142 27.3903C8.53142 27.1086 8.41951 26.8384 8.22033 26.6392C8.02114 26.44 7.75098 26.3281 7.46929 26.3281C7.1876 26.3281 6.91744 26.44 6.71826 26.6392C6.51907 26.8384 6.40717 27.1086 6.40717 27.3903C6.40687 27.7282 6.2725 28.0521 6.03357 28.2911C5.79463 28.53 5.47066 28.6644 5.13275 28.6647C4.99198 28.6626 4.85221 28.6886 4.72156 28.741C4.5909 28.7935 4.47198 28.8714 4.37171 28.9702C4.27143 29.069 4.19181 29.1868 4.13746 29.3166C4.0831 29.4465 4.05511 29.5859 4.05511 29.7267C4.05511 29.8675 4.0831 30.0068 4.13746 30.1367C4.19181 30.2666 4.27143 30.3844 4.37171 30.4832C4.47198 30.582 4.5909 30.6599 4.72156 30.7123C4.85221 30.7648 4.99198 30.7907 5.13275 30.7887C5.47066 30.789 5.79463 30.9234 6.03357 31.1623C6.2725 31.4012 6.40687 31.7252 6.40717 32.0631C6.40717 32.3448 6.51907 32.6149 6.71826 32.8141C6.91744 33.0133 7.1876 33.1252 7.46929 33.1252C7.75098 33.1252 8.02114 33.0133 8.22033 32.8141C8.41951 32.6149 8.53142 32.3448 8.53142 32.0631Z" fill="#999999"/>
<path id="Vector_7" d="M7.4693 33.6916C6.57143 33.6916 5.84077 32.9612 5.84077 32.0631C5.84053 31.8754 5.76586 31.6955 5.63313 31.5627C5.50041 31.43 5.32046 31.3553 5.13276 31.3551C4.23489 31.3551 3.50446 30.6247 3.50446 29.7266C3.50446 28.8287 4.23489 28.0983 5.13276 28.0983C5.32046 28.098 5.50041 28.0233 5.63313 27.8906C5.76586 27.7579 5.84053 27.578 5.84077 27.3903C5.84077 26.4924 6.57121 25.7617 7.4693 25.7617C8.36739 25.7617 9.09783 26.4922 9.09783 27.3903C9.09807 27.578 9.17274 27.7579 9.30547 27.8906C9.43819 28.0233 9.61814 28.098 9.80584 28.0983C10.7037 28.0983 11.4344 28.8287 11.4344 29.7266C11.4344 30.6244 10.7039 31.3551 9.80584 31.3551C9.61814 31.3553 9.43819 31.43 9.30547 31.5627C9.17274 31.6955 9.09807 31.8754 9.09783 32.0631C9.09741 32.4949 8.9257 32.9089 8.62038 33.2142C8.31506 33.5195 7.90108 33.6912 7.4693 33.6916ZM7.4693 26.8948C7.33786 26.8949 7.21184 26.9471 7.11891 27.0401C7.02597 27.133 6.9737 27.259 6.97358 27.3905C6.97358 28.4055 6.14776 29.2313 5.13276 29.2313C5.00136 29.2314 4.87538 29.2837 4.78245 29.3765C4.68951 29.4694 4.63722 29.5954 4.63704 29.7268C4.63704 30 4.85953 30.2225 5.13276 30.2225C6.14776 30.2225 6.97358 31.0483 6.97358 32.0633C6.97358 32.3366 7.19606 32.559 7.4693 32.559C7.60074 32.5589 7.72675 32.5067 7.81969 32.4137C7.91263 32.3208 7.9649 32.1948 7.96502 32.0633C7.96502 31.0483 8.79084 30.2225 9.80584 30.2225C9.93727 30.2224 10.0633 30.1701 10.1562 30.0772C10.2492 29.9842 10.3014 29.8582 10.3016 29.7268C10.3014 29.5954 10.2491 29.4694 10.1562 29.3765C10.0632 29.2837 9.93723 29.2314 9.80584 29.2313C8.79084 29.2313 7.96502 28.4055 7.96502 27.3905C7.9649 27.259 7.91263 27.133 7.81969 27.0401C7.72675 26.9471 7.60074 26.8949 7.4693 26.8948Z" fill="#242424"/>
<path id="Vector_8" d="M52.7365 32.0631C52.7368 31.7252 52.8712 31.4012 53.1101 31.1623C53.349 30.9234 53.673 30.789 54.0109 30.7887C54.2899 30.7846 54.5561 30.6709 54.7519 30.4722C54.9477 30.2735 55.0575 30.0057 55.0575 29.7267C55.0575 29.4477 54.9477 29.1799 54.7519 28.9811C54.5561 28.7824 54.2899 28.6687 54.0109 28.6647C53.673 28.6644 53.349 28.53 53.1101 28.2911C52.8712 28.0521 52.7368 27.7282 52.7365 27.3903C52.7365 27.1086 52.6246 26.8384 52.4254 26.6392C52.2262 26.44 51.9561 26.3281 51.6744 26.3281C51.3927 26.3281 51.1225 26.44 50.9233 26.6392C50.7241 26.8384 50.6122 27.1086 50.6122 27.3903C50.6119 27.7282 50.4776 28.0521 50.2386 28.2911C49.9997 28.53 49.6757 28.6644 49.3378 28.6647C49.1971 28.6626 49.0573 28.6886 48.9266 28.741C48.796 28.7935 48.6771 28.8714 48.5768 28.9702C48.4765 29.069 48.3969 29.1868 48.3425 29.3166C48.2882 29.4465 48.2602 29.5859 48.2602 29.7267C48.2602 29.8675 48.2882 30.0068 48.3425 30.1367C48.3969 30.2666 48.4765 30.3844 48.5768 30.4832C48.6771 30.582 48.796 30.6599 48.9266 30.7123C49.0573 30.7648 49.1971 30.7907 49.3378 30.7887C49.6757 30.789 49.9997 30.9234 50.2386 31.1623C50.4776 31.4012 50.6119 31.7252 50.6122 32.0631C50.6122 32.3448 50.7241 32.6149 50.9233 32.8141C51.1225 33.0133 51.3927 33.1252 51.6744 33.1252C51.9561 33.1252 52.2262 33.0133 52.4254 32.8141C52.6246 32.6149 52.7365 32.3448 52.7365 32.0631Z" fill="#999999"/>
<path id="Vector_9" d="M51.6744 33.6916C50.7765 33.6916 50.0458 32.9612 50.0458 32.0631C50.0456 31.8754 49.9709 31.6955 49.8382 31.5627C49.7055 31.43 49.5255 31.3553 49.3378 31.3551C48.44 31.3551 47.7093 30.6247 47.7093 29.7266C47.7093 28.8287 48.4397 28.0983 49.3378 28.0983C49.5255 28.098 49.7055 28.0233 49.8382 27.8906C49.9709 27.7579 50.0456 27.578 50.0458 27.3903C50.0458 26.4924 50.7763 25.7617 51.6744 25.7617C52.5722 25.7617 53.3029 26.4922 53.3029 27.3903C53.3031 27.578 53.3778 27.7579 53.5105 27.8906C53.6433 28.0233 53.8232 28.098 54.0109 28.0983C54.9088 28.0983 55.6394 28.8287 55.6394 29.7266C55.6394 30.6244 54.909 31.3551 54.0109 31.3551C53.8232 31.3553 53.6433 31.43 53.5105 31.5627C53.3778 31.6955 53.3031 31.8754 53.3029 32.0631C53.3027 32.9612 52.5722 33.6916 51.6744 33.6916ZM51.6744 26.8948C51.5429 26.8949 51.4169 26.9471 51.324 27.0401C51.231 27.133 51.1788 27.259 51.1786 27.3905C51.1786 28.4055 50.3528 29.2313 49.3378 29.2313C49.2064 29.2314 49.0804 29.2837 48.9875 29.3765C48.8946 29.4694 48.8423 29.5954 48.8421 29.7268C48.8421 30 49.0646 30.2225 49.3378 30.2225C50.3528 30.2225 51.1786 31.0483 51.1786 32.0633C51.1786 32.3366 51.4011 32.559 51.6744 32.559C51.8058 32.5589 51.9318 32.5067 52.0248 32.4137C52.1177 32.3208 52.17 32.1948 52.1701 32.0633C52.1701 31.0483 52.9959 30.2225 54.0109 30.2225C54.1423 30.2224 54.2684 30.1701 54.3613 30.0772C54.4542 29.9842 54.5065 29.8582 54.5066 29.7268C54.5064 29.5954 54.4541 29.4694 54.3612 29.3765C54.2683 29.2837 54.1423 29.2314 54.0109 29.2313C52.9959 29.2313 52.1701 28.4055 52.1701 27.3905C52.1699 27.2591 52.1176 27.1331 52.0247 27.0401C51.9318 26.9472 51.8058 26.8949 51.6744 26.8948Z" fill="#242424"/>
<path id="Vector_10" d="M31.9213 6.59435C31.5834 6.59405 31.2594 6.45969 31.0205 6.22075C30.7816 5.98182 30.6472 5.65784 30.6469 5.31994C30.6469 5.03824 30.535 4.76809 30.3358 4.5689C30.1366 4.36971 29.8665 4.25781 29.5848 4.25781C29.3031 4.25781 29.0329 4.36971 28.8337 4.5689C28.6345 4.76809 28.5226 5.03824 28.5226 5.31994C28.5223 5.65784 28.388 5.98182 28.149 6.22075C27.9101 6.45969 27.5861 6.59405 27.2482 6.59435C26.9665 6.59435 26.6964 6.70625 26.4972 6.90544C26.298 7.10463 26.1861 7.37478 26.1861 7.65648C26.1861 7.93817 26.298 8.20832 26.4972 8.40751C26.6964 8.6067 26.9665 8.7186 27.2482 8.7186C27.5861 8.7189 27.9101 8.85327 28.149 9.0922C28.388 9.33113 28.5223 9.65511 28.5226 9.99302C28.5226 10.2747 28.6345 10.5449 28.8337 10.7441C29.0329 10.9432 29.3031 11.0551 29.5848 11.0551C29.8665 11.0551 30.1366 10.9432 30.3358 10.7441C30.535 10.5449 30.6469 10.2747 30.6469 9.99302C30.6472 9.65511 30.7816 9.33113 31.0205 9.0922C31.2594 8.85327 31.5834 8.7189 31.9213 8.7186C32.203 8.7186 32.4731 8.6067 32.6723 8.40751C32.8715 8.20832 32.9834 7.93817 32.9834 7.65648C32.9834 7.37478 32.8715 7.10463 32.6723 6.90544C32.4731 6.70625 32.203 6.59435 31.9213 6.59435Z" fill="#999999"/>
<path id="Vector_11" d="M29.5848 11.6213C28.6869 11.6213 27.9562 10.8909 27.9562 9.99279C27.956 9.80509 27.8813 9.62514 27.7486 9.49242C27.6159 9.35969 27.4359 9.28502 27.2482 9.28478C26.3504 9.28478 25.6197 8.55434 25.6197 7.65625C25.6197 6.75816 26.3501 6.02772 27.2482 6.02772C27.4359 6.02748 27.6159 5.95281 27.7486 5.82008C27.8813 5.68736 27.956 5.50741 27.9562 5.31971C27.9562 4.42184 28.6867 3.69141 29.5848 3.69141C30.4826 3.69141 31.2133 4.42184 31.2133 5.31971C31.2135 5.50741 31.2882 5.68736 31.4209 5.82008C31.5537 5.95281 31.7336 6.02748 31.9213 6.02772C32.8192 6.02772 33.5498 6.75816 33.5498 7.65625C33.5498 8.55434 32.8194 9.28478 31.9213 9.28478C31.7336 9.28502 31.5537 9.35969 31.4209 9.49242C31.2882 9.62514 31.2135 9.80509 31.2133 9.99279C31.2133 10.8909 30.4826 11.6213 29.5848 11.6213ZM29.5848 4.82445C29.4533 4.82457 29.3273 4.87683 29.2344 4.96977C29.1414 5.06271 29.0892 5.18873 29.089 5.32016C29.089 6.33516 28.2632 7.16098 27.2482 7.16098C27.1168 7.1611 26.9908 7.21337 26.8978 7.30631C26.8049 7.39925 26.7526 7.52527 26.7525 7.6567C26.7526 7.78814 26.8049 7.91416 26.8978 8.0071C26.9908 8.10004 27.1168 8.1523 27.2482 8.15242C28.2632 8.15242 29.089 8.97824 29.089 9.99324C29.089 10.2665 29.3113 10.489 29.5848 10.489C29.8582 10.489 30.0805 10.2667 30.0805 9.99324C30.0805 8.97824 30.9063 8.15242 31.9213 8.15242C32.0527 8.1523 32.1788 8.10004 32.2717 8.0071C32.3646 7.91416 32.4169 7.78814 32.417 7.6567C32.4169 7.52527 32.3646 7.39925 32.2717 7.30631C32.1788 7.21337 32.0527 7.1611 31.9213 7.16098C30.9063 7.16098 30.0805 6.33516 30.0805 5.32016C30.0804 5.18873 30.0281 5.06271 29.9352 4.96977C29.8422 4.87683 29.7162 4.82457 29.5848 4.82445Z" fill="#242424"/>
<path id="Vector_12" d="M16.0148 51.9498C16.2312 51.9498 16.4072 51.7737 16.4072 51.5574V50.5827L29.6693 53.8574C30.1567 53.9745 30.669 53.9297 31.1288 53.7299L44.7531 47.7049C45.4282 47.4082 45.9595 46.8579 46.2324 46.1729C46.5081 45.489 46.504 44.7238 46.2208 44.043C45.9516 43.3906 45.4473 42.863 44.8077 42.5646C44.1686 42.2649 43.4403 42.2161 42.7669 42.4278L32.5677 45.6237L32.7256 44.7831C32.8258 44.2482 32.7338 43.7147 32.4592 43.24C32.3083 42.9772 32.1056 42.7477 31.8636 42.5654C31.6215 42.383 31.3449 42.2517 31.0506 42.1793L23.4651 40.2838C22.9997 40.1665 22.5091 40.2011 22.0647 40.3824L16.4074 42.6759V40.5018C16.4074 40.2854 16.2314 40.1094 16.015 40.1094H10.5281C10.3118 40.1094 10.1357 40.2854 10.1357 40.5018V51.5571C10.1357 51.7735 10.3118 51.9495 10.5281 51.9495L16.0148 51.9498Z" fill="white"/>
<path id="Vector_13" d="M10.2261 42.6484H16.3168V51.8598H10.2261V42.6484Z" fill="#BBBBBB"/>
<path id="Vector_14" d="M16.2663 49.9258H15.0583V48.793H16.2663V49.9258ZM13.8502 49.9258H12.6422V48.793H13.8502V49.9258ZM11.4342 49.9258H10.2261V48.793H11.4342V49.9258Z" fill="white"/>
<path id="Vector_15" d="M16.3168 45.5743L22.3737 42.917C22.7749 42.7409 23.2209 42.6935 23.6501 42.7813L32.6583 44.621C32.6583 44.621 32.0987 46.8062 29.686 46.4427L26.9319 46.0279L27.093 46.6285C27.2338 47.1538 27.5059 47.6346 27.8838 48.0256C28.2617 48.4166 28.7329 48.705 29.253 48.8636C29.8972 49.06 30.5873 49.0448 31.2221 48.8201L45.8984 43.6234C45.8984 43.6234 47.5244 45.7164 44.7168 47.6204C41.9093 49.5245 30.4056 53.8312 30.4056 53.8312L16.7352 50.5689L16.3168 45.5743Z" fill="#999999"/>
<path id="Vector_16" d="M16.0148 52.425H10.5281C10.2979 52.4247 10.0772 52.3332 9.91435 52.1704C9.75154 52.0076 9.65997 51.7868 9.65973 51.5566V40.5012C9.65997 40.271 9.75154 40.0502 9.91435 39.8874C10.0772 39.7246 10.2979 39.6331 10.5281 39.6328H16.0148C16.2451 39.6331 16.4658 39.7246 16.6286 39.8874C16.7914 40.0502 16.883 40.271 16.8832 40.5012V51.5566C16.883 51.7868 16.7914 52.0076 16.6286 52.1704C16.4658 52.3332 16.2451 52.4247 16.0148 52.425ZM10.7925 51.2922H15.7504V40.7656H10.7925V51.2922Z" fill="#242424"/>
<path id="Vector_17" d="M30.5017 47.1077C30.3671 47.1077 30.2314 47.0977 30.095 47.0771L26.8477 46.588L27.0164 45.4679L30.2638 45.957C30.6494 46.0142 31.0427 45.9293 31.3705 45.7182C31.6982 45.5071 31.9381 45.184 32.0455 44.8092C32.1049 44.6026 32.1219 44.3861 32.0953 44.1727C32.0687 43.9594 31.9991 43.7536 31.8907 43.5679C31.7836 43.3814 31.6399 43.2186 31.4681 43.0892C31.2964 42.9599 31.1001 42.8667 30.8913 42.8153L23.306 40.9198C22.9756 40.8364 22.6271 40.861 22.3117 40.9898L16.5298 43.3339L16.1041 42.284L21.8859 39.94C22.4237 39.7206 23.0175 39.679 23.5806 39.821L31.1659 41.7164C31.8912 41.8977 32.4968 42.3538 32.8713 43.0008C33.0561 43.3178 33.1748 43.6689 33.2201 44.033C33.2655 44.3971 33.2365 44.7666 33.135 45.1192C32.7976 46.3068 31.7061 47.1075 30.5017 47.1077Z" fill="#242424"/>
<path id="Vector_18" d="M30.2101 54.3957C29.9901 54.3957 29.7701 54.3694 29.5553 54.3164L16.1811 51.0141L16.4525 49.9141L29.8267 53.2165C30.1728 53.3013 30.5372 53.2694 30.8632 53.1258L44.4878 47.1009C45.0073 46.8748 45.4169 46.453 45.6276 45.9271C45.8384 45.4012 45.8334 44.8134 45.6138 44.291C45.409 43.7889 45.0224 43.3825 44.5312 43.1527C44.04 42.923 43.4802 42.8869 42.9635 43.0515L32.2376 46.4126L31.8989 45.3316L42.6248 41.9706C44.2674 41.4556 46.0026 42.2674 46.6605 43.8581C47.3509 45.5269 46.5978 47.4065 44.9459 48.1372L31.3214 54.1621C30.9712 54.3164 30.5927 54.396 30.2101 54.3957Z" fill="#242424"/>
<path id="Vector_19" d="M13.2715 43.6223C13.8112 43.6223 14.2487 43.1848 14.2487 42.6451C14.2487 42.1055 13.8112 41.668 13.2715 41.668C12.7319 41.668 12.2944 42.1055 12.2944 42.6451C12.2944 43.1848 12.7319 43.6223 13.2715 43.6223Z" fill="#242424"/>
</g>
</g>
</g>
</svg>
