<svg width="28" height="28" viewBox="0 0 28 28" fill="none" xmlns="http://www.w3.org/2000/svg">
<g id="copy 1">
<g id="Layer 2">
<path id="copy" d="M21 10.5H17.5V6.615C17.4969 5.7898 17.1678 4.99927 16.5842 4.41576C16.0007 3.83225 15.2102 3.50307 14.385 3.5H6.615C5.7898 3.50307 4.99927 3.83225 4.41576 4.41576C3.83225 4.99927 3.50307 5.7898 3.5 6.615V14.385C3.50307 15.2102 3.83225 16.0007 4.41576 16.5842C4.99927 17.1678 5.7898 17.4969 6.615 17.5H10.5V21C10.5 21.9283 10.8687 22.8185 11.5251 23.4749C12.1815 24.1313 13.0717 24.5 14 24.5H21C21.9283 24.5 22.8185 24.1313 23.4749 23.4749C24.1313 22.8185 24.5 21.9283 24.5 21V14C24.5 13.0717 24.1313 12.1815 23.4749 11.5251C22.8185 10.8687 21.9283 10.5 21 10.5ZM10.5 14V15.1667H6.615C6.40769 15.1667 6.20887 15.0843 6.06228 14.9377C5.91569 14.7911 5.83333 14.5923 5.83333 14.385V6.615C5.83333 6.40769 5.91569 6.20887 6.06228 6.06228C6.20887 5.91569 6.40769 5.83333 6.615 5.83333H14.385C14.5923 5.83333 14.7911 5.91569 14.9377 6.06228C15.0843 6.20887 15.1667 6.40769 15.1667 6.615V10.5H14C13.0717 10.5 12.1815 10.8687 11.5251 11.5251C10.8687 12.1815 10.5 13.0717 10.5 14Z" fill="#BBBBBB"/>
</g>
</g>
</svg>
