<svg width="35" height="34" viewBox="0 0 35 34" fill="none" xmlns="http://www.w3.org/2000/svg">
<g id="create-folder 1" clip-path="url(#clip0_1827_21536)">
<path id="Vector" d="M29.167 8.5013H17.5003L15.4441 6.5038C14.8899 5.96547 14.1462 5.66797 13.3732 5.66797H5.83366C4.21491 5.66797 2.93158 6.9288 2.93158 8.5013L2.91699 25.5013C2.91699 27.0738 4.21491 28.3346 5.83366 28.3346H29.167C30.7712 28.3346 32.0837 27.0596 32.0837 25.5013V11.3346C32.0837 9.7763 30.7712 8.5013 29.167 8.5013ZM26.2503 19.8346H23.3337V22.668C23.3337 23.4471 22.6774 24.0846 21.8753 24.0846C21.0732 24.0846 20.417 23.4471 20.417 22.668V19.8346H17.5003C16.6982 19.8346 16.042 19.1971 16.042 18.418C16.042 17.6388 16.6982 17.0013 17.5003 17.0013H20.417V14.168C20.417 13.3888 21.0732 12.7513 21.8753 12.7513C22.6774 12.7513 23.3337 13.3888 23.3337 14.168V17.0013H26.2503C27.0524 17.0013 27.7087 17.6388 27.7087 18.418C27.7087 19.1971 27.0524 19.8346 26.2503 19.8346Z" fill="#BBBBBB"/>
</g>
<defs>
<clipPath id="clip0_1827_21536">
<rect width="35" height="34" fill="white"/>
</clipPath>
</defs>
</svg>
