<svg width="25" height="25" viewBox="0 0 25 25" fill="none" xmlns="http://www.w3.org/2000/svg">
<g id="credit-card">
<g id="Vector">
<path d="M3.49133 10.7148H21.4913M7.49133 15.7148H7.50133M11.4913 15.7148H13.4913M6.49133 19.7148H18.4913C20.1482 19.7148 21.4913 18.3717 21.4913 16.7148V8.71484C21.4913 7.05799 20.1482 5.71484 18.4913 5.71484H6.49133C4.83448 5.71484 3.49133 7.05799 3.49133 8.71484V16.7148C3.49133 18.3717 4.83448 19.7148 6.49133 19.7148Z" stroke="white" stroke-width="1.75" stroke-linecap="round" stroke-linejoin="round"/>
<path d="M3.49133 10.7148H21.4913M7.49133 15.7148H7.50133M11.4913 15.7148H13.4913M6.49133 19.7148H18.4913C20.1482 19.7148 21.4913 18.3717 21.4913 16.7148V8.71484C21.4913 7.05799 20.1482 5.71484 18.4913 5.71484H6.49133C4.83448 5.71484 3.49133 7.05799 3.49133 8.71484V16.7148C3.49133 18.3717 4.83448 19.7148 6.49133 19.7148Z" stroke="white" stroke-opacity="0.2" stroke-width="1.75" stroke-linecap="round" stroke-linejoin="round"/>
</g>
</g>
</svg>
