<svg width="14" height="16" viewBox="0 0 14 16" fill="none" xmlns="http://www.w3.org/2000/svg">
<path id="Vector" opacity="0.9" d="M2.10417 15.1693C1.75694 15.1693 1.46181 15.0478 1.21875 14.8048C0.975694 14.5617 0.854167 14.2666 0.854167 13.9193V2.04434H0V0.794342H3.91667V0.169342H9.41667V0.794342H13.3333V2.04434H12.4792V13.9193C12.4792 14.2527 12.3542 14.5443 12.1042 14.7943C11.8542 15.0443 11.5625 15.1693 11.2292 15.1693H2.10417ZM11.2292 2.04434H2.10417V13.9193H11.2292V2.04434ZM4.3125 12.1277H5.5625V3.81518H4.3125V12.1277ZM7.77083 12.1277H9.02083V3.81518H7.77083V12.1277ZM2.10417 2.04434V13.9193V2.04434Z" fill="#FF1016"/>
</svg>
