<svg width="17" height="17" viewBox="0 0 17 17" fill="none" xmlns="http://www.w3.org/2000/svg">
<g id="delete 1">
<path id="Vector" d="M5.86206 1.75418V3.5128H11.1379V1.75418C11.1379 1.5987 11.0762 1.4496 10.9662 1.33966C10.8563 1.22973 10.7072 1.16797 10.5517 1.16797H6.44827C6.2928 1.16797 6.14369 1.22973 6.03376 1.33966C5.92382 1.4496 5.86206 1.5987 5.86206 1.75418Z" fill="white"/>
<path id="Vector_2" d="M2.34485 2.928V3.51421H14.6552V2.928C14.6552 2.77253 14.5934 2.62343 14.4835 2.51349C14.3736 2.40356 14.2245 2.3418 14.069 2.3418H2.93106C2.77558 2.3418 2.62648 2.40356 2.51654 2.51349C2.40661 2.62343 2.34485 2.77253 2.34485 2.928ZM3.51726 4.68662L4.57947 14.7747C4.60975 15.0628 4.74564 15.3295 4.96094 15.5234C5.17625 15.7173 5.45571 15.8245 5.74543 15.8246H11.2552C11.5449 15.8245 11.8244 15.7173 12.0397 15.5234C12.255 15.3295 12.3909 15.0628 12.4212 14.7747L13.4828 4.68662H3.51726ZM6.20033 14.6504C6.12357 14.6564 6.04637 14.6472 5.97316 14.6233C5.89995 14.5995 5.83217 14.5614 5.77369 14.5113C5.71521 14.4612 5.66719 14.4001 5.63236 14.3314C5.59754 14.2627 5.5766 14.1878 5.57075 14.1111L4.98454 6.49038C4.97257 6.33538 5.02267 6.18197 5.12381 6.0639C5.22495 5.94583 5.36885 5.87277 5.52385 5.8608C5.60077 5.85399 5.67828 5.86262 5.75182 5.88618C5.82536 5.90975 5.89346 5.94776 5.9521 5.998C6.01075 6.04824 6.05877 6.10969 6.09334 6.17874C6.12792 6.24779 6.14835 6.32305 6.15343 6.40011L6.73964 14.0208C6.75161 14.1758 6.70151 14.3292 6.60037 14.4473C6.49923 14.5653 6.35533 14.6384 6.20033 14.6504ZM9.08623 14.0659C9.08623 14.2214 9.02447 14.3705 8.91453 14.4804C8.8046 14.5904 8.65549 14.6521 8.50002 14.6521C8.34455 14.6521 8.19545 14.5904 8.08551 14.4804C7.97558 14.3705 7.91381 14.2214 7.91381 14.0659V6.44525C7.91381 6.28977 7.97558 6.14067 8.08551 6.03073C8.19545 5.9208 8.34455 5.85904 8.50002 5.85904C8.65549 5.85904 8.8046 5.9208 8.91453 6.03073C9.02447 6.14067 9.08623 6.28977 9.08623 6.44525V14.0659ZM11.4293 14.1111C11.4234 14.1878 11.4024 14.2627 11.3675 14.3313C11.3327 14.3999 11.2847 14.461 11.2262 14.5111C11.1677 14.5612 11.1 14.5993 11.0268 14.6232C10.9536 14.6471 10.8765 14.6563 10.7997 14.6504C10.723 14.6445 10.6481 14.6235 10.5795 14.5886C10.5108 14.5538 10.4497 14.5057 10.3997 14.4473C10.3496 14.3888 10.3115 14.3211 10.2876 14.2479C10.2637 14.1747 10.2545 14.0975 10.2604 14.0208L10.8466 6.40011C10.8514 6.32294 10.8716 6.24752 10.9061 6.17831C10.9405 6.1091 10.9886 6.04753 11.0473 5.99723C11.106 5.94693 11.1742 5.90894 11.2479 5.8855C11.3216 5.86206 11.3992 5.85366 11.4762 5.8608C11.6312 5.87277 11.7751 5.94583 11.8762 6.0639C11.9774 6.18197 12.0275 6.33538 12.0155 6.49038L11.4293 14.1111Z" fill="white"/>
</g>
</svg>
