<svg width="31" height="31" viewBox="0 0 31 31" fill="none" xmlns="http://www.w3.org/2000/svg">
<g id="Group 364">
<circle id="Ellipse 15" cx="15.6162" cy="15.9268" r="15" fill="#EC2227"/>
<g id="Group 350">
<path id="Vector" d="M22.1813 11.4957H18.7345V10.675C18.7342 10.1963 18.5439 9.73725 18.2054 9.39874C17.8669 9.06034 17.4078 8.86997 16.9292 8.86963H14.303C13.8244 8.86996 13.3653 9.06032 13.0268 9.39874C12.6884 9.73725 12.498 10.1963 12.4977 10.675V11.4957H9.05098C8.87501 11.4957 8.71247 11.5895 8.62454 11.7419C8.53661 11.8942 8.53661 12.0819 8.62454 12.2342C8.71247 12.3866 8.87502 12.4804 9.05098 12.4804H9.92937L10.9726 20.828C11.0479 21.423 11.3375 21.9703 11.7871 22.3671C12.2368 22.7641 12.8157 22.9836 13.4154 22.9846H17.8143C18.414 22.9836 18.993 22.7641 19.4426 22.3671C19.8922 21.9703 20.1818 21.423 20.2571 20.828L21.303 12.4804H22.1814C22.3573 12.4804 22.5199 12.3866 22.6078 12.2342C22.6957 12.0819 22.6957 11.8942 22.6078 11.7419C22.5199 11.5895 22.3572 11.4957 22.1813 11.4957ZM13.4826 10.675C13.4829 10.4575 13.5695 10.249 13.7233 10.0951C13.8772 9.94135 14.0857 9.85474 14.3032 9.85441H16.9293C17.1468 9.85474 17.3553 9.94135 17.5092 10.0951C17.6629 10.249 17.7495 10.4575 17.7499 10.675V11.4957H13.4827L13.4826 10.675ZM14.7957 17.8968C14.7957 18.0727 14.7017 18.2353 14.5494 18.3232C14.397 18.4111 14.2093 18.4111 14.057 18.3232C13.9046 18.2353 13.8108 18.0727 13.8108 17.8968V15.2707C13.8108 15.0948 13.9046 14.9322 14.057 14.8443C14.2093 14.7564 14.397 14.7564 14.5494 14.8443C14.7017 14.9322 14.7956 15.0948 14.7956 15.2707L14.7957 17.8968ZM17.4217 17.8968C17.4217 18.0727 17.3278 18.2353 17.1755 18.3232C17.0232 18.4111 16.8354 18.4111 16.6831 18.3232C16.5308 18.2353 16.4369 18.0727 16.4369 17.8968V15.2707C16.4369 15.0948 16.5308 14.9322 16.6831 14.8443C16.8354 14.7564 17.0232 14.7564 17.1755 14.8443C17.3278 14.9322 17.4217 15.0948 17.4217 15.2707V17.8968Z" fill="white"/>
</g>
</g>
</svg>
