<svg width="40" height="41" viewBox="0 0 40 41" fill="none" xmlns="http://www.w3.org/2000/svg">
<g id="dictionary 1">
<path id="Vector" d="M10.1709 10.3281L9.59711 11.8203H10.7447L10.1709 10.3281Z" fill="#BBBBBB"/>
<path id="Vector_2" d="M24.3002 20.4199H10.7852V24.1058H24.3002V20.4199Z" fill="#BBBBBB"/>
<path id="Vector_3" d="M34.1293 4.44855H33.515V2.60559C33.515 1.92984 32.9621 1.37695 32.2864 1.37695H6.48499C3.77584 1.37695 1.57043 3.58236 1.57043 6.2915V33.3215C1.57043 35.6068 3.13695 37.5296 5.25635 38.0825V35.4471C4.51917 35.0232 4.02771 34.2307 4.02771 33.3215C4.02771 31.9639 5.12734 30.8643 6.48499 30.8643H28.0353C27.6176 31.5892 27.3718 32.4246 27.3718 33.3215C27.3718 34.2184 27.6176 35.0539 28.0353 35.7788H8.94226V33.3215C8.94226 32.6433 8.39183 32.0929 7.71362 32.0929C7.03542 32.0929 6.48499 32.6433 6.48499 33.3215V35.7788V38.2361C6.48499 38.9143 7.03542 39.4647 7.71362 39.4647C8.39183 39.4647 8.94226 38.9143 8.94226 38.2361H31.4878C31.5799 38.2361 31.6659 38.2238 31.7519 38.2054C31.9301 38.2238 32.1082 38.2361 32.2864 38.2361C32.9621 38.2361 33.515 37.6832 33.515 37.0074V24.7211H35.9723C37.3275 24.7211 38.4296 23.619 38.4296 22.2638V8.74878C38.4296 6.37812 36.5006 4.44855 34.1293 4.44855ZM34.1293 6.90582C35.1454 6.90582 35.9723 7.7327 35.9723 8.74878V12.8555C35.4126 12.5889 34.7897 12.4347 34.1293 12.4347H33.515V6.90582H34.1293ZM16.3141 9.97742H18.7714C19.4471 9.97742 20 10.5303 20 11.2061C20 11.8818 19.4471 12.4347 18.7714 12.4347H16.3141C15.6383 12.4347 15.0854 11.8818 15.0854 11.2061C15.0854 10.5303 15.6383 9.97742 16.3141 9.97742ZM6.65699 16.0407C6.02425 15.795 5.71094 15.0824 5.95053 14.4497L9.02212 6.46351C9.20642 5.99049 9.66101 5.67719 10.1709 5.67719C10.6808 5.67719 11.1354 5.99049 11.3197 6.46351L14.3913 14.4497C14.6309 15.0824 14.3176 15.795 13.6848 16.0407C13.5374 16.096 13.3899 16.1206 13.2425 16.1206C12.751 16.1206 12.2842 15.8196 12.0937 15.3343L11.6883 14.2776H8.65353L8.24808 15.3343C8.00235 15.967 7.28974 16.2803 6.65699 16.0407ZM26.7575 24.7211C26.7575 25.7347 25.9282 26.564 24.9146 26.564H10.1709C9.15727 26.564 8.32794 25.7347 8.32794 24.7211V19.8065C8.32794 18.7929 9.15727 17.9636 10.1709 17.9636H24.9146C25.9282 17.9636 26.7575 18.7929 26.7575 19.8065V24.7211ZM27.9861 15.5063H21.843C21.3638 15.5063 20.9338 15.2298 20.731 14.7998C20.5283 14.3698 20.5959 13.8599 20.8969 13.4913L25.363 8.13446H21.843C21.1672 8.13446 20.6143 7.58157 20.6143 6.90582C20.6143 6.23007 21.1672 5.67719 21.843 5.67719H27.9861C28.4653 5.67719 28.8953 5.95363 29.0981 6.38365C29.3008 6.81367 29.2332 7.32356 28.9322 7.69215L24.4661 13.049H27.9861C28.6619 13.049 29.2148 13.6019 29.2148 14.2776C29.2148 14.9534 28.6619 15.5063 27.9861 15.5063ZM33.515 22.2638V14.892H34.1293C35.1454 14.892 35.9723 15.7188 35.9723 16.7349L35.9735 22.2638H33.515Z" fill="#BBBBBB"/>
</g>
</svg>
