<svg width="44" height="45" viewBox="0 0 44 45" fill="none" xmlns="http://www.w3.org/2000/svg">
<g id="documents 1">
<path id="Vector" d="M29.3333 24.2559H20.1666C19.6804 24.2559 19.2141 24.0627 18.8703 23.7189C18.5265 23.3751 18.3333 22.9088 18.3333 22.4225C18.3333 21.9363 18.5265 21.47 18.8703 21.1262C19.2141 20.7823 19.6804 20.5892 20.1666 20.5892H29.3333C29.8195 20.5892 30.2859 20.7823 30.6297 21.1262C30.9735 21.47 31.1666 21.9363 31.1666 22.4225C31.1666 22.9088 30.9735 23.3751 30.6297 23.7189C30.2859 24.0627 29.8195 24.2559 29.3333 24.2559ZM33 16.9225H20.1666C19.6804 16.9225 19.2141 16.7294 18.8703 16.3856C18.5265 16.0417 18.3333 15.5754 18.3333 15.0892C18.3333 14.603 18.5265 14.1366 18.8703 13.7928C19.2141 13.449 19.6804 13.2559 20.1666 13.2559H33C33.4862 13.2559 33.9525 13.449 34.2963 13.7928C34.6402 14.1366 34.8333 14.603 34.8333 15.0892C34.8333 15.5754 34.6402 16.0417 34.2963 16.3856C33.9525 16.7294 33.4862 16.9225 33 16.9225Z" fill="#EBEBEB"/>
<path id="Vector_2" d="M33.0055 16.9232H20.1667C19.6804 16.9232 19.2141 16.73 18.8703 16.3862C18.5265 16.0424 18.3333 15.5761 18.3333 15.0898C18.3333 14.6036 18.5265 14.1373 18.8703 13.7935C19.2141 13.4497 19.6804 13.2565 20.1667 13.2565H25.6667V4.08985H18.3333C17.612 4.08888 16.8976 4.23 16.2308 4.50515C15.564 4.78029 14.958 5.18407 14.4473 5.69343C13.9365 6.20279 13.5311 6.80775 13.2542 7.47379C12.9773 8.13982 12.8343 8.85387 12.8333 9.57518V27.9232C12.8324 28.6445 12.9735 29.3589 13.2486 30.0257C13.5238 30.6925 13.9275 31.2985 14.4369 31.8092C14.9463 32.32 15.5512 32.7254 16.2173 33.0023C16.8833 33.2792 17.5973 33.4222 18.3187 33.4232H33C33.7213 33.4241 34.4357 33.283 35.1025 33.0079C35.7693 32.7327 36.3753 32.329 36.886 31.8196C37.3968 31.3102 37.8022 30.7053 38.0791 30.0392C38.356 29.3732 38.499 28.6592 38.5 27.9379V16.9232H33.0055ZM29.3333 24.2565H20.1667C19.6804 24.2565 19.2141 24.0634 18.8703 23.7195C18.5265 23.3757 18.3333 22.9094 18.3333 22.4232C18.3333 21.937 18.5265 21.4706 18.8703 21.1268C19.2141 20.783 19.6804 20.5898 20.1667 20.5898H29.3333C29.8195 20.5898 30.2859 20.783 30.6297 21.1268C30.9735 21.4706 31.1667 21.937 31.1667 22.4232C31.1667 22.9094 30.9735 23.3757 30.6297 23.7195C30.2859 24.0634 29.8195 24.2565 29.3333 24.2565Z" fill="#BBBBBB"/>
<path id="Vector_3" d="M18.3333 33.4219H18.3187C17.5973 33.4209 16.8833 33.2779 16.2173 33.001C15.5512 32.724 14.9463 32.3187 14.4369 31.8079C13.9275 31.2972 13.5238 30.6912 13.2486 30.0244C12.9735 29.3576 12.8324 28.6432 12.8333 27.9219V11.4219H11C10.2787 11.4209 9.56425 11.562 8.89748 11.8372C8.23071 12.1123 7.62466 12.5161 7.11394 13.0255C6.60322 13.5348 6.19782 14.1398 5.9209 14.8058C5.64398 15.4719 5.50095 16.1859 5.49999 16.9072V35.2552C5.49903 35.9765 5.64014 36.691 5.91529 37.3577C6.19043 38.0245 6.59421 38.6305 7.10357 39.1413C7.61293 39.652 8.2179 40.0574 8.88393 40.3343C9.54996 40.6112 10.264 40.7542 10.9853 40.7552H25.6667C26.388 40.7562 27.1024 40.6151 27.7692 40.3399C28.4359 40.0648 29.042 39.661 29.5527 39.1516C30.0634 38.6423 30.4688 38.0373 30.7457 37.3713C31.0227 36.7052 31.1657 35.9912 31.1667 35.2699V33.4219H18.3333Z" fill="#EBEBEB"/>
<path id="Vector_4" d="M38.5 16.9232H29.3333C28.3609 16.9232 27.4282 16.5369 26.7406 15.8492C26.053 15.1616 25.6667 14.229 25.6667 13.2565V4.08984L38.5 16.9232Z" fill="#B1B1B1"/>
</g>
</svg>
