<svg width="31" height="33" viewBox="0 0 31 33" fill="none" xmlns="http://www.w3.org/2000/svg">
<g id="documents (1) 1">
<path id="Vector" d="M20.6667 27.4531H10.3333C9.30562 27.4531 8.32 27.0317 7.59329 26.2816C6.86659 25.5314 6.45833 24.514 6.45833 23.4531V10.1198C6.45833 9.76617 6.32225 9.42703 6.08001 9.17698C5.83778 8.92693 5.50924 8.78646 5.16667 8.78646C4.8241 8.78646 4.49555 8.92693 4.25332 9.17698C4.01109 9.42703 3.875 9.76617 3.875 10.1198V23.4531C3.875 25.2212 4.55543 26.9169 5.7666 28.1672C6.97777 29.4174 8.62048 30.1198 10.3333 30.1198H20.6667C21.0092 30.1198 21.3378 29.9793 21.58 29.7293C21.8222 29.4792 21.9583 29.1401 21.9583 28.7865C21.9583 28.4328 21.8222 28.0937 21.58 27.8436C21.3378 27.5936 21.0092 27.4531 20.6667 27.4531ZM12.9167 18.1198C12.9167 18.4734 13.0528 18.8126 13.295 19.0626C13.5372 19.3126 13.8658 19.4531 14.2083 19.4531H20.6667C21.0092 19.4531 21.3378 19.3126 21.58 19.0626C21.8222 18.8126 21.9583 18.4734 21.9583 18.1198C21.9583 17.7662 21.8222 17.427 21.58 17.177C21.3378 16.9269 21.0092 16.7865 20.6667 16.7865H14.2083C13.8658 16.7865 13.5372 16.9269 13.295 17.177C13.0528 17.427 12.9167 17.7662 12.9167 18.1198ZM27.125 12.7065C27.1115 12.584 27.0856 12.4633 27.0475 12.3465V12.2265C26.9854 12.0894 26.9026 11.9633 26.8021 11.8531L19.0521 3.85312C18.9453 3.74941 18.8232 3.6639 18.6904 3.59979C18.6519 3.59414 18.6127 3.59414 18.5742 3.59979C18.443 3.52211 18.298 3.47225 18.1479 3.45312H12.9167C11.889 3.45313 10.9033 3.87455 10.1766 4.6247C9.44992 5.37484 9.04167 6.39226 9.04167 7.45312V20.7865C9.04167 21.8473 9.44992 22.8647 10.1766 23.6149C10.9033 24.365 11.889 24.7865 12.9167 24.7865H23.25C24.2777 24.7865 25.2633 24.365 25.99 23.6149C26.7167 22.8647 27.125 21.8473 27.125 20.7865V12.7865C27.125 12.7865 27.125 12.7865 27.125 12.7065ZM19.375 7.99979L22.7204 11.4531H20.6667C20.3241 11.4531 19.9956 11.3126 19.7533 11.0626C19.5111 10.8126 19.375 10.4734 19.375 10.1198V7.99979ZM24.5417 20.7865C24.5417 21.1401 24.4056 21.4792 24.1633 21.7293C23.9211 21.9793 23.5926 22.1198 23.25 22.1198H12.9167C12.5741 22.1198 12.2456 21.9793 12.0033 21.7293C11.7611 21.4792 11.625 21.1401 11.625 20.7865V7.45312C11.625 7.0995 11.7611 6.76036 12.0033 6.51032C12.2456 6.26027 12.5741 6.11979 12.9167 6.11979H16.7917V10.1198C16.7952 10.5746 16.8738 11.0256 17.0242 11.4531H14.2083C13.8658 11.4531 13.5372 11.5936 13.295 11.8436C13.0528 12.0937 12.9167 12.4328 12.9167 12.7865C12.9167 13.1401 13.0528 13.4792 13.295 13.7293C13.5372 13.9793 13.8658 14.1198 14.2083 14.1198H24.5417V20.7865Z" fill="#FDBB14"/>
</g>
</svg>
