<svg width="24" height="25" viewBox="0 0 24 25" fill="none" xmlns="http://www.w3.org/2000/svg">
<g id="download 1" clip-path="url(#clip0_1827_19713)">
<path id="Vector" d="M14.3 19.77L13 21.07V15.47C13 14.87 12.6 14.47 12 14.47C11.4 14.47 11 14.87 11 15.47V21.07L9.70004 19.77C9.30004 19.37 8.70004 19.37 8.30004 19.77C7.90004 20.17 7.90004 20.77 8.30004 21.17L11.3 24.17C11.7 24.57 12.3 24.57 12.7 24.17L15.7 21.17C16.1 20.77 16.1 20.17 15.7 19.77C15.3 19.37 14.7 19.37 14.3 19.77ZM18.4 8.67002C16.9 5.17002 12.8 3.47002 9.20004 5.07002C6.90004 6.07002 5.30004 8.17002 5.00004 10.67C2.90004 11.17 1.50004 13.37 2.00004 15.47C2.50004 17.17 4.20004 18.47 6.00004 18.47H7.50004C8.10004 18.07 8.80004 17.87 9.50004 18.07V15.47C9.50004 14.07 10.6 12.97 12 12.97C13.4 12.97 14.5 14.07 14.5 15.47V18.07C15.2 17.97 15.9 18.07 16.5 18.47H17C19.8 18.47 22 16.27 22 13.47C22 11.27 20.6 9.37002 18.4 8.67002Z" fill="white"/>
</g>
<defs>
<clipPath id="clip0_1827_19713">
<rect width="24" height="24" fill="white" transform="translate(0 0.46875)"/>
</clipPath>
</defs>
</svg>
