<svg width="25" height="25" viewBox="0 0 25 25" fill="none" xmlns="http://www.w3.org/2000/svg">
<g id="download 1" clip-path="url(#clip0_1827_20466)">
<path id="Vector" d="M14.5559 19.8091L13.2559 21.1091V15.5091C13.2559 14.9091 12.8559 14.5091 12.2559 14.5091C11.6559 14.5091 11.2559 14.9091 11.2559 15.5091V21.1091L9.9559 19.8091C9.5559 19.4091 8.9559 19.4091 8.5559 19.8091C8.1559 20.2091 8.1559 20.8091 8.5559 21.2091L11.5559 24.2091C11.9559 24.6091 12.5559 24.6091 12.9559 24.2091L15.9559 21.2091C16.3559 20.8091 16.3559 20.2091 15.9559 19.8091C15.5559 19.4091 14.9559 19.4091 14.5559 19.8091ZM18.6559 8.70908C17.1559 5.20908 13.0559 3.50909 9.4559 5.10909C7.1559 6.10909 5.5559 8.20908 5.2559 10.7091C3.1559 11.2091 1.7559 13.4091 2.2559 15.5091C2.7559 17.2091 4.4559 18.5091 6.2559 18.5091H7.7559C8.3559 18.1091 9.0559 17.9091 9.7559 18.1091V15.5091C9.7559 14.1091 10.8559 13.0091 12.2559 13.0091C13.6559 13.0091 14.7559 14.1091 14.7559 15.5091V18.1091C15.4559 18.0091 16.1559 18.1091 16.7559 18.5091H17.2559C20.0559 18.5091 22.2559 16.3091 22.2559 13.5091C22.2559 11.3091 20.8559 9.40908 18.6559 8.70908Z" fill="#FDBB14"/>
</g>
<defs>
<clipPath id="clip0_1827_20466">
<rect width="24" height="24" fill="white" transform="translate(0.255859 0.507812)"/>
</clipPath>
</defs>
</svg>
