<svg width="37" height="37" viewBox="0 0 37 37" fill="none" xmlns="http://www.w3.org/2000/svg">
<g id="duckduckgo-seeklogo.com 1" clip-path="url(#clip0_3056_10496)">
<g id="Group">
<path id="Vector" d="M18.8706 2.82599C27.3083 2.82599 34.1485 9.69295 34.1485 18.1638C34.1485 26.6346 27.3083 33.5015 18.8706 33.5015C10.4329 33.5015 3.59277 26.6346 3.59277 18.1638C3.59277 9.69295 10.4329 2.82599 18.8706 2.82599Z" fill="#DE5833"/>
<path id="Vector_2" d="M18.8501 36.3134C28.7912 36.3134 36.8501 28.2229 36.8501 18.2428C36.8501 8.26268 28.7912 0.17218 18.8501 0.17218C8.909 0.17218 0.850098 8.26268 0.850098 18.2428C0.850098 28.2229 8.909 36.3134 18.8501 36.3134ZM18.8501 34.8075C9.73739 34.8075 2.3501 27.3912 2.3501 18.2428C2.3501 9.09432 9.73739 1.67806 18.8501 1.67806C27.9628 1.67806 35.3501 9.09432 35.3501 18.2428C35.3501 27.3912 27.9628 34.8075 18.8501 34.8075Z" fill="#DE5833"/>
<g id="Group_2">
<path id="Vector_3" d="M11.428 7.80799C11.425 7.55006 11.6116 7.40564 11.8595 7.30441C11.7461 7.32305 11.6373 7.35157 11.5395 7.39561C11.281 7.51321 11.0878 7.95848 11.0896 8.16926C12.3444 8.04192 14.2 8.13001 15.5568 8.5366C15.657 8.52248 15.7571 8.50837 15.8588 8.49665C14.5054 7.8934 12.8964 7.66046 11.428 7.80799Z" fill="#D5D7D8"/>
<path id="Vector_4" d="M11.6851 6.25786C11.7134 6.25278 11.742 6.24925 11.7704 6.24445C11.4997 6.27819 11.357 6.37532 11.1538 6.40878C11.3744 6.4284 12.2105 6.82016 12.7358 7.0356C12.8095 7.0075 12.8759 6.9763 12.93 6.93946C12.6577 6.89908 11.9808 6.28496 11.6851 6.25786Z" fill="#D5D7D8"/>
<path id="Vector_5" d="M12.9898 9.30811C12.9146 9.33719 12.8432 9.36754 12.7813 9.40015C10.7359 10.482 9.83238 13.0089 10.3708 16.0369C10.8623 18.7923 12.8768 28.207 13.7991 32.6351C14.0684 32.7301 14.341 32.8184 14.6169 32.8984C13.7955 28.9116 11.5535 18.4645 11.0304 15.5305C10.5001 12.5456 11.016 10.4038 12.9898 9.30811Z" fill="#D5D7D8"/>
<path id="Vector_6" d="M21.2667 31.0298C21.2329 31.0524 21.1927 31.0736 21.1498 31.0942C21.118 31.2179 21.0695 31.3116 20.9988 31.3588C20.5764 31.6401 19.3831 31.7819 18.7531 31.6401C18.6447 31.616 18.5626 31.576 18.4985 31.5211C17.4228 32.1207 15.876 32.9189 15.5618 32.739C15.071 32.4565 14.9999 28.7224 15.071 27.8061C15.1229 27.1143 17.5434 28.2348 18.7208 28.8225C18.9811 28.5784 19.6188 28.4151 20.1833 28.3596C19.3304 26.2757 18.7014 23.8921 19.087 22.2018C18.554 21.8289 17.8477 20.9642 17.9948 20.0617C18.1081 19.3747 19.8763 18.075 21.1283 17.9965C22.3831 17.9171 22.7742 17.935 23.8196 17.6837C23.8719 17.6711 23.9294 17.6573 23.9896 17.6428C24.6331 15.3717 23.0897 11.4205 21.3682 9.69156C20.807 9.12812 19.9441 8.77349 18.9718 8.58629C18.5979 8.07113 17.9948 7.57857 17.1409 7.12243C15.5553 6.27734 13.5959 5.9333 11.7704 6.24445C11.742 6.24925 11.7133 6.25278 11.6851 6.25786C11.9808 6.28497 12.6576 6.89908 12.93 6.93946C12.8759 6.97631 12.8095 7.00751 12.7358 7.0356C12.4801 7.1333 12.1327 7.19259 11.8594 7.3044C11.6115 7.40563 11.4249 7.55005 11.4279 7.80798C12.8963 7.66045 14.5053 7.89339 15.8587 8.49664C15.757 8.50836 15.6569 8.52247 15.5567 8.53659C14.597 8.67212 13.7148 8.92172 13.0775 9.25927C13.0476 9.27494 13.0192 9.29189 12.9898 9.30812C11.016 10.4038 10.5 12.5456 11.0303 15.5305C11.5534 18.4645 13.81 29.0734 14.6314 33.0602C15.9819 33.4525 17.2445 33.7661 18.7208 33.7661C19.9741 33.7661 21.4814 33.4873 22.6471 33.2014C22.2377 32.409 21.7111 31.5327 21.3865 30.9043C21.3432 30.9561 21.309 31.0014 21.2667 31.0298ZM22.0926 15.9859C21.5576 15.9859 21.1213 15.5491 21.1213 15.009C21.1213 14.4714 21.5576 14.0344 22.0926 14.0344C22.6305 14.0344 23.0651 14.4714 23.0651 15.009C23.0651 15.5491 22.6305 15.9859 22.0926 15.9859ZM22.6777 12.3142C22.6777 12.3142 22.065 11.9628 21.5896 11.9687C20.6125 11.9816 20.3464 12.415 20.3464 12.415C20.3464 12.415 20.5104 11.3819 21.7599 11.5891C22.4372 11.7022 22.6777 12.3142 22.6777 12.3142ZM12.3762 13.5844C12.3762 13.5844 11.9362 12.5999 13.1089 12.1175C14.2828 11.635 14.8545 12.3921 14.8545 12.3921C14.8545 12.3921 14.002 12.005 13.1731 12.5279C12.3457 13.0503 12.3762 13.5844 12.3762 13.5844ZM13.4014 15.6825C13.4014 15.0548 13.9069 14.5469 14.533 14.5469C15.1574 14.5469 15.6636 15.0548 15.6636 15.6825C15.6636 16.3103 15.1574 16.8177 14.533 16.8177C13.9069 16.818 13.4014 16.3103 13.4014 15.6825Z" fill="white"/>
<path id="Vector_7" d="M15.6636 15.6825C15.6636 15.0549 15.1574 14.5469 14.533 14.5469C13.9069 14.5469 13.4014 15.0549 13.4014 15.6825C13.4014 16.3103 13.9069 16.818 14.533 16.8177C15.1574 16.8177 15.6636 16.3103 15.6636 15.6825ZM15.0339 15.5991C14.8733 15.5995 14.7412 15.467 14.7412 15.304C14.7412 15.1407 14.8729 15.0093 15.0339 15.0093C15.1962 15.0093 15.3278 15.1407 15.3278 15.304C15.3278 15.467 15.1962 15.5991 15.0339 15.5991Z" fill="#2D4F8E"/>
<path id="Vector_8" d="M15.0339 15.0092C14.8728 15.0092 14.7412 15.1407 14.7412 15.304C14.7412 15.4669 14.8733 15.5995 15.0339 15.5991C15.1961 15.5991 15.3278 15.4669 15.3278 15.304C15.3278 15.1407 15.1961 15.0092 15.0339 15.0092Z" fill="white"/>
<path id="Vector_9" d="M22.0926 14.0344C21.5577 14.0344 21.1213 14.4714 21.1213 15.009C21.1213 15.5491 21.5577 15.9859 22.0926 15.9859C22.6305 15.9859 23.0652 15.5491 23.0652 15.009C23.0652 14.4714 22.6305 14.0344 22.0926 14.0344ZM22.5239 14.9371C22.3868 14.9371 22.2736 14.8252 22.2736 14.6845C22.2736 14.5458 22.3868 14.4318 22.5239 14.4318C22.6669 14.4318 22.7766 14.5458 22.7766 14.6845C22.7766 14.8252 22.6669 14.9371 22.5239 14.9371Z" fill="#2D4F8E"/>
<path id="Vector_10" d="M22.524 14.4318C22.3869 14.4318 22.2737 14.5458 22.2737 14.6845C22.2737 14.8251 22.3869 14.9371 22.524 14.9371C22.667 14.9371 22.7767 14.8251 22.7767 14.6845C22.7767 14.5458 22.667 14.4318 22.524 14.4318Z" fill="white"/>
<path id="Vector_11" d="M14.8545 12.3921C14.8545 12.3921 14.2829 11.635 13.1089 12.1175C11.9363 12.5999 12.3763 13.5843 12.3763 13.5843C12.3763 13.5843 12.3458 13.0503 13.1732 12.5279C14.0021 12.005 14.8545 12.3921 14.8545 12.3921Z" fill="url(#paint0_linear_3056_10496)"/>
<path id="Vector_12" d="M21.7599 11.5891C20.5104 11.3819 20.3464 12.415 20.3464 12.415C20.3464 12.415 20.6125 11.9816 21.5896 11.9687C22.065 11.9628 22.6777 12.3142 22.6777 12.3142C22.6777 12.3142 22.4372 11.7022 21.7599 11.5891Z" fill="url(#paint1_linear_3056_10496)"/>
<path id="Vector_13" d="M21.1284 17.9965C19.8764 18.075 18.1082 19.3747 17.9948 20.0617C17.8477 20.9642 18.5541 21.8289 19.0871 22.2018C19.0885 22.2027 19.09 22.204 19.0914 22.205C19.6242 22.5771 23.1721 23.7787 24.9323 23.7454C26.6945 23.7109 29.5885 22.6275 29.2707 21.7595C28.9543 20.8911 26.0801 22.5256 23.0822 22.2467C20.862 22.0395 20.4701 21.041 20.9617 20.3117C21.5801 19.395 22.7063 20.4856 24.564 19.9275C26.4244 19.371 29.0263 18.3749 29.9917 17.8325C32.2238 16.5832 29.0577 16.0651 28.3098 16.4117C27.6009 16.7405 25.1335 17.3656 23.9897 17.6427C23.9295 17.6573 23.872 17.6711 23.8197 17.6837C22.7742 17.935 22.3832 17.9171 21.1284 17.9965Z" fill="#FDD209"/>
</g>
<g id="Group_3">
<path id="Vector_14" d="M18.3321 29.3854C18.3321 29.2553 18.4363 29.1403 18.6017 29.0422C18.6064 28.9632 18.6491 28.8898 18.7208 28.8225C17.5434 28.2348 15.1229 27.1142 15.071 27.806C14.9999 28.7224 15.071 32.4565 15.5618 32.739C15.876 32.9189 17.4229 32.1206 18.4985 31.5211C18.1881 31.2555 18.3321 30.6109 18.3321 29.3854Z" fill="#65BC46"/>
<path id="Vector_15" d="M21.3708 30.8982C21.3759 30.9002 21.3814 30.9023 21.3864 30.9043C22.3503 31.2777 24.269 31.9806 24.6856 31.8272C25.2474 31.6116 25.1068 27.1044 24.4763 26.9608C23.9711 26.8483 22.0374 28.2161 21.2766 28.7734C21.4112 29.3439 21.574 30.4738 21.3708 30.8982Z" fill="#65BC46"/>
<path id="Vector_16" d="M19.021 31.3112C18.3889 31.1706 18.6001 30.5357 18.6001 29.0564C18.6001 29.0516 18.6015 29.047 18.6018 29.0422C18.4364 29.1403 18.3322 29.2554 18.3322 29.3854C18.3322 30.6109 18.1882 31.2555 18.4985 31.5211C18.5627 31.576 18.6448 31.616 18.7532 31.6401C19.3832 31.7818 20.5764 31.6401 20.9989 31.3587C21.0696 31.3116 21.1181 31.2178 21.1499 31.0942C20.6555 31.3319 19.5996 31.4433 19.021 31.3112Z" fill="#43A244"/>
<path id="Vector_17" d="M18.7209 28.8225C18.6491 28.8898 18.6064 28.9633 18.6017 29.0422C18.6015 29.047 18.6001 29.0516 18.6001 29.0564C18.6001 30.5357 18.3888 31.1706 19.0209 31.3112C19.5996 31.4433 20.6554 31.3319 21.1499 31.0942C21.1928 31.0736 21.233 31.0524 21.2667 31.0298C21.3091 31.0014 21.3432 30.9561 21.3709 30.8982C21.5741 30.4738 21.4113 29.3439 21.2767 28.7734C21.247 28.6479 21.2189 28.549 21.1963 28.4912C21.1382 28.3469 20.6909 28.3098 20.1834 28.3596C19.6189 28.4151 18.9811 28.5784 18.7209 28.8225Z" fill="#65BC46"/>
</g>
</g>
</g>
<defs>
<linearGradient id="paint0_linear_3056_10496" x1="194.004" y1="174.722" x2="12.2954" y2="174.722" gradientUnits="userSpaceOnUse">
<stop stop-color="#394A9F"/>
<stop offset="1" stop-color="#6176B9"/>
</linearGradient>
<linearGradient id="paint1_linear_3056_10496" x1="185.878" y1="96.8976" x2="20.3464" y2="96.8976" gradientUnits="userSpaceOnUse">
<stop stop-color="#394A9F"/>
<stop offset="1" stop-color="#6176B9"/>
</linearGradient>
<clipPath id="clip0_3056_10496">
<rect width="36" height="36" fill="white" transform="translate(0.850098 0.166077)"/>
</clipPath>
</defs>
</svg>
