<svg width="15" height="17" viewBox="0 0 15 17" fill="none" xmlns="http://www.w3.org/2000/svg">
<path id="Vector" opacity="0.9" d="M0 16.6693V14.4556H14.6366V16.6693H0ZM1.50026 12.5162V10.0829L8.32459 3.25851L10.7579 5.69186L3.9336 12.5162H1.50026ZM2.59801 11.4184H3.42132L9.1845 5.65527L8.36119 4.83195L2.59801 10.5951V11.4184ZM11.563 4.88684L9.12961 2.4535L10.6665 0.916651C10.8006 0.758087 10.9531 0.675756 11.1239 0.669657C11.2946 0.663559 11.4654 0.74589 11.6361 0.916651L13.0632 2.34372C13.2218 2.50229 13.3011 2.67 13.3011 2.84686C13.3011 3.02372 13.234 3.19143 13.0998 3.34999L11.563 4.88684Z" fill="white"/>
</svg>
