<svg width="24" height="25" viewBox="0 0 24 25" fill="none" xmlns="http://www.w3.org/2000/svg">
<g id="eye">
<g id="Oval">
<circle cx="12" cy="12.4688" r="2" stroke="white" stroke-width="1.75" stroke-linecap="round" stroke-linejoin="round"/>
<circle cx="12" cy="12.4688" r="2" stroke="white" stroke-opacity="0.2" stroke-width="1.75" stroke-linecap="round" stroke-linejoin="round"/>
</g>
<g id="Path">
<path d="M22 12.4688C19.333 17.1357 16 19.4688 12 19.4688C8 19.4688 4.667 17.1357 2 12.4688C4.667 7.80175 8 5.46875 12 5.46875C16 5.46875 19.333 7.80175 22 12.4688" stroke="white" stroke-width="1.75" stroke-linecap="round" stroke-linejoin="round"/>
<path d="M22 12.4688C19.333 17.1357 16 19.4688 12 19.4688C8 19.4688 4.667 17.1357 2 12.4688C4.667 7.80175 8 5.46875 12 5.46875C16 5.46875 19.333 7.80175 22 12.4688" stroke="white" stroke-opacity="0.2" stroke-width="1.75" stroke-linecap="round" stroke-linejoin="round"/>
</g>
</g>
</svg>
