<svg width="25" height="25" viewBox="0 0 25 25" fill="none" xmlns="http://www.w3.org/2000/svg">
<g id="file-dollar">
<g id="Path">
<path d="M14.4913 3.41602V7.41602C14.4913 7.9683 14.939 8.41602 15.4913 8.41602H19.4913" stroke="white" stroke-width="1.75" stroke-linecap="round" stroke-linejoin="round"/>
<path d="M14.4913 3.41602V7.41602C14.4913 7.9683 14.939 8.41602 15.4913 8.41602H19.4913" stroke="white" stroke-opacity="0.2" stroke-width="1.75" stroke-linecap="round" stroke-linejoin="round"/>
</g>
<g id="Path_2">
<path fill-rule="evenodd" clip-rule="evenodd" d="M17.4913 21.416H7.49133C6.38676 21.416 5.49133 20.5206 5.49133 19.416V5.41602C5.49133 4.31145 6.38676 3.41602 7.49133 3.41602H14.4913L19.4913 8.41602V19.416C19.4913 20.5206 18.5959 21.416 17.4913 21.416Z" stroke="white" stroke-width="1.75" stroke-linecap="round" stroke-linejoin="round"/>
<path fill-rule="evenodd" clip-rule="evenodd" d="M17.4913 21.416H7.49133C6.38676 21.416 5.49133 20.5206 5.49133 19.416V5.41602C5.49133 4.31145 6.38676 3.41602 7.49133 3.41602H14.4913L19.4913 8.41602V19.416C19.4913 20.5206 18.5959 21.416 17.4913 21.416Z" stroke="white" stroke-opacity="0.2" stroke-width="1.75" stroke-linecap="round" stroke-linejoin="round"/>
</g>
<g id="Path_3">
<path d="M14.4913 11.416H11.9913C11.1629 11.416 10.4913 12.0876 10.4913 12.916C10.4913 13.7444 11.1629 14.416 11.9913 14.416H12.9913C13.8198 14.416 14.4913 15.0876 14.4913 15.916C14.4913 16.7444 13.8198 17.416 12.9913 17.416H10.4913" stroke="white" stroke-width="1.75" stroke-linecap="round" stroke-linejoin="round"/>
<path d="M14.4913 11.416H11.9913C11.1629 11.416 10.4913 12.0876 10.4913 12.916C10.4913 13.7444 11.1629 14.416 11.9913 14.416H12.9913C13.8198 14.416 14.4913 15.0876 14.4913 15.916C14.4913 16.7444 13.8198 17.416 12.9913 17.416H10.4913" stroke="white" stroke-opacity="0.2" stroke-width="1.75" stroke-linecap="round" stroke-linejoin="round"/>
</g>
<g id="Shape">
<path d="M13.3663 17.416C13.3663 16.9328 12.9746 16.541 12.4913 16.541C12.0081 16.541 11.6163 16.9328 11.6163 17.416H13.3663ZM11.6163 18.416C11.6163 18.8993 12.0081 19.291 12.4913 19.291C12.9746 19.291 13.3663 18.8993 13.3663 18.416H11.6163ZM13.3663 10.416C13.3663 9.93277 12.9746 9.54102 12.4913 9.54102C12.0081 9.54102 11.6163 9.93277 11.6163 10.416H13.3663ZM11.6163 11.416C11.6163 11.8993 12.0081 12.291 12.4913 12.291C12.9746 12.291 13.3663 11.8993 13.3663 11.416H11.6163ZM11.6163 17.416V18.416H13.3663V17.416H11.6163ZM11.6163 10.416V11.416H13.3663V10.416H11.6163Z" fill="white"/>
<path d="M13.3663 17.416C13.3663 16.9328 12.9746 16.541 12.4913 16.541C12.0081 16.541 11.6163 16.9328 11.6163 17.416H13.3663ZM11.6163 18.416C11.6163 18.8993 12.0081 19.291 12.4913 19.291C12.9746 19.291 13.3663 18.8993 13.3663 18.416H11.6163ZM13.3663 10.416C13.3663 9.93277 12.9746 9.54102 12.4913 9.54102C12.0081 9.54102 11.6163 9.93277 11.6163 10.416H13.3663ZM11.6163 11.416C11.6163 11.8993 12.0081 12.291 12.4913 12.291C12.9746 12.291 13.3663 11.8993 13.3663 11.416H11.6163ZM11.6163 17.416V18.416H13.3663V17.416H11.6163ZM11.6163 10.416V11.416H13.3663V10.416H11.6163Z" fill="white" fill-opacity="0.2"/>
</g>
</g>
</svg>
