<svg width="37" height="37" viewBox="0 0 37 37" fill="none" xmlns="http://www.w3.org/2000/svg">
<g id="logo">
<rect x="0.850098" y="0.616058" width="36" height="36" rx="18" fill="white"/>
<path id="Vector" d="M18.3953 22.0033L17.6082 23.8069C17.3057 24.5001 16.3469 24.5001 16.0443 23.8069L15.2572 22.0033C14.5568 20.3983 13.2961 19.1206 11.7235 18.4222L9.55714 17.46C8.86832 17.1541 8.86832 16.1517 9.55714 15.8458L11.6558 14.9137C13.2688 14.1973 14.5522 12.8724 15.2406 11.2126L16.0378 9.29061C16.3337 8.57734 17.3187 8.57734 17.6146 9.29061L18.4118 11.2126C19.1002 12.8724 20.3835 14.1974 21.9965 14.9137L24.0951 15.8458C24.7839 16.1517 24.7839 17.1541 24.0951 17.46L21.9288 18.4222C20.3564 19.1206 19.0957 20.3982 18.3953 22.0033Z" fill="url(#paint0_radial_3056_10491)"/>
<path id="Vector_2" d="M25.7093 27.6901L25.4879 28.1978C25.3259 28.5693 24.8117 28.5693 24.6497 28.1978L24.4283 27.6901C24.0337 26.7852 23.3231 26.0646 22.4363 25.6705L21.7543 25.3674C21.3856 25.2034 21.3856 24.6672 21.7543 24.5032L22.3982 24.2171C23.3077 23.8127 24.0311 23.0655 24.4189 22.1298L24.6462 21.5813C24.8046 21.1991 25.3329 21.1991 25.4913 21.5813L25.7186 22.1298C26.1064 23.0655 26.8298 23.8127 27.7393 24.2171L28.3832 24.5032C28.7519 24.6672 28.7519 25.2034 28.3832 25.3674L27.7012 25.6705C26.8145 26.0647 26.1038 26.7852 25.7093 27.6901Z" fill="url(#paint1_radial_3056_10491)"/>
</g>
<defs>
<radialGradient id="paint0_radial_3056_10491" cx="0" cy="0" r="1" gradientUnits="userSpaceOnUse" gradientTransform="translate(21.2389 17.4038) rotate(78.8637) scale(12.162)">
<stop stop-color="#1BA1E3"/>
<stop offset="0.3002" stop-color="#5489D6"/>
<stop offset="0.5455" stop-color="#9B72CB"/>
<stop offset="0.8254" stop-color="#D96570"/>
<stop offset="1" stop-color="#F49C46"/>
</radialGradient>
<radialGradient id="paint1_radial_3056_10491" cx="0" cy="0" r="1" gradientUnits="userSpaceOnUse" gradientTransform="translate(21.2388 17.4038) rotate(78.8637) scale(12.162 12.162)">
<stop stop-color="#1BA1E3"/>
<stop offset="0.3002" stop-color="#5489D6"/>
<stop offset="0.5455" stop-color="#9B72CB"/>
<stop offset="0.8254" stop-color="#D96570"/>
<stop offset="1" stop-color="#F49C46"/>
</radialGradient>
</defs>
</svg>
