<svg width="44" height="45" viewBox="0 0 44 45" fill="none" xmlns="http://www.w3.org/2000/svg">
<g id="image 39">
<path id="Vector" opacity="0.4" d="M29.9439 40.7546H14.0544C7.83935 40.7546 3.66669 36.3967 3.66669 29.9086V14.9357C3.66669 8.44756 7.84119 4.08789 14.0544 4.08789H29.9457C36.1607 4.08789 40.3334 8.44756 40.3334 14.9357V29.9086C40.3334 36.3967 36.1589 40.7546 29.9439 40.7546Z" fill="#BBBBBB"/>
<path id="Vector_2" fill-rule="evenodd" clip-rule="evenodd" d="M20.6158 16.3252C20.6144 17.5331 20.1339 18.691 19.2798 19.5451C18.4258 20.3992 17.2678 20.8796 16.06 20.8811C14.852 20.8801 13.6938 20.3998 12.8396 19.5456C11.9854 18.6915 11.5051 17.5332 11.5041 16.3252C11.5051 15.1171 11.9854 13.9587 12.8395 13.1042C13.6936 12.2497 14.8518 11.769 16.06 11.7676C17.268 11.7695 18.4259 12.2504 19.2799 13.1047C20.134 13.9591 20.6144 15.1172 20.6158 16.3252ZM35.5666 26.2491C35.9938 26.6634 36.3 27.1364 36.5016 27.6406C37.1121 29.1659 36.795 30.9992 36.1423 32.5099C35.7665 33.3954 35.2036 34.189 34.4922 34.8365C33.7808 35.4839 32.9378 35.9699 32.021 36.2609C31.1908 36.5195 30.3256 36.6475 29.4561 36.6404H14.0928C12.562 36.6404 11.209 36.2847 10.0998 35.6174C9.40497 35.1994 9.28214 34.2369 9.79731 33.6099C10.659 32.5649 11.5096 31.5162 12.3676 30.4566C14.003 28.4344 15.1048 27.8477 16.3295 28.3629C16.8263 28.5756 17.325 28.8946 17.8383 29.2337C19.206 30.1394 21.1071 31.3824 23.6133 30.0331C25.3238 29.0962 26.3175 27.4939 27.1828 26.1006L27.2011 26.0731L27.3735 25.7926C27.6668 25.3159 27.9565 24.8502 28.2846 24.4176C28.6916 23.8859 30.2023 22.2176 32.1548 23.4056C33.4015 24.1536 34.4465 25.1656 35.5666 26.2472V26.2491Z" fill="#BBBBBB"/>
</g>
</svg>
