<svg width="30" height="30" viewBox="0 0 30 30" fill="none" xmlns="http://www.w3.org/2000/svg">
<g id="image 40">
<path id="Vector" opacity="0.4" d="M20.4163 27.4303H9.5825C5.345 27.4303 2.5 24.5581 2.5 20.2818V10.4134C2.5 6.13709 5.34625 3.26367 9.5825 3.26367H20.4175C24.655 3.26367 27.5 6.13709 27.5 10.4134V20.2818C27.5 24.5581 24.6537 27.4303 20.4163 27.4303Z" fill="#FDBB14"/>
<path id="Vector_2" fill-rule="evenodd" clip-rule="evenodd" d="M14.0562 11.3301C14.0553 12.1262 13.7277 12.8894 13.1454 13.4523C12.563 14.0152 11.7735 14.3318 10.95 14.3328C10.1264 14.3322 9.33667 14.0156 8.75428 13.4526C8.17189 12.8896 7.84441 12.1263 7.84375 11.3301C7.84441 10.5338 8.17185 9.7703 8.7542 9.20713C9.33656 8.64396 10.1263 8.32713 10.95 8.32617C11.7736 8.32745 12.5631 8.64438 13.1454 9.20748C13.7277 9.77059 14.0553 10.5339 14.0562 11.3301ZM24.25 17.8708C24.5412 18.1439 24.75 18.4556 24.8875 18.7879C25.3037 19.7933 25.0875 21.0016 24.6425 21.9973C24.3862 22.5808 24.0024 23.1039 23.5174 23.5307C23.0324 23.9574 22.4576 24.2777 21.8325 24.4695C21.2665 24.6399 20.6765 24.7243 20.0837 24.7196H9.60875C8.565 24.7196 7.6425 24.4852 6.88625 24.0454C6.4125 23.7699 6.32875 23.1355 6.68 22.7223C7.2675 22.0335 7.8475 21.3423 8.4325 20.6439C9.5475 19.3111 10.2987 18.9245 11.1337 19.264C11.4725 19.4042 11.8125 19.6144 12.1625 19.838C13.095 20.4349 14.3912 21.2541 16.1 20.3648C17.2662 19.7473 17.9437 18.6913 18.5337 17.7729L18.5462 17.7548L18.6637 17.5699C18.8637 17.2558 19.0612 16.9488 19.285 16.6637C19.5625 16.3133 20.5925 15.2137 21.9237 15.9967C22.7737 16.4897 23.4862 17.1567 24.25 17.8696V17.8708Z" fill="#FDBB14"/>
</g>
</svg>
