<svg width="65" height="65" viewBox="0 0 65 65" fill="none" xmlns="http://www.w3.org/2000/svg">
<g id="invoice 1">
<g id="Layer 38">
<path id="Vector" d="M50.9874 5.19141H14.4074C14.1422 5.19141 13.8878 5.29676 13.7003 5.4843C13.5128 5.67184 13.4074 5.92619 13.4074 6.19141V59.1914C13.4069 59.3763 13.4577 59.5577 13.5541 59.7154C13.6505 59.8732 13.7888 60.0011 13.9535 60.085C14.1182 60.169 14.303 60.2056 14.4873 60.1908C14.6716 60.176 14.8481 60.1105 14.9974 60.0014L23.5574 53.8014L32.1074 60.0014C32.2787 60.1266 32.4853 60.194 32.6974 60.194C32.9095 60.194 33.1161 60.1266 33.2874 60.0014L41.8374 53.8014L50.3974 60.0014C50.5662 60.1236 50.769 60.1901 50.9774 60.1914C51.2426 60.1914 51.497 60.0861 51.6845 59.8985C51.8721 59.711 51.9774 59.4566 51.9774 59.1914V6.19141C51.9774 5.92791 51.8734 5.67506 51.6881 5.48781C51.5027 5.30056 51.2509 5.19404 50.9874 5.19141Z" fill="#D2D2D2"/>
<path id="Vector_2" d="M32.6974 47.2611C39.9157 47.2611 45.7674 41.4095 45.7674 34.1911C45.7674 26.9727 39.9157 21.1211 32.6974 21.1211C25.479 21.1211 19.6274 26.9727 19.6274 34.1911C19.6274 41.4095 25.479 47.2611 32.6974 47.2611Z" fill="#868686"/>
<path id="Vector_3" d="M33.6974 33.1917H31.6974C31.286 33.2026 30.8867 33.0515 30.5856 32.771C30.2845 32.4904 30.1056 32.1029 30.0874 31.6917C30.0858 31.4922 30.1249 31.2944 30.2023 31.1104C30.2797 30.9265 30.3937 30.7602 30.5374 30.6217C30.8475 30.3178 31.2632 30.1458 31.6974 30.1417H35.5074C35.7726 30.1417 36.027 30.0364 36.2145 29.8488C36.402 29.6613 36.5074 29.4069 36.5074 29.1417C36.5074 28.8765 36.402 28.6221 36.2145 28.4346C36.027 28.2471 35.7726 28.1417 35.5074 28.1417H33.6974V26.2617C33.6974 25.9965 33.592 25.7421 33.4045 25.5546C33.217 25.3671 32.9626 25.2617 32.6974 25.2617C32.4322 25.2617 32.1778 25.3671 31.9903 25.5546C31.8027 25.7421 31.6974 25.9965 31.6974 26.2617V28.1417C30.7496 28.1303 29.8348 28.4891 29.1474 29.1417C28.6544 29.6381 28.3205 30.2702 28.1884 30.9572C28.0562 31.6442 28.1318 32.355 28.4054 32.9989C28.6791 33.6428 29.1384 34.1905 29.7247 34.5722C30.3111 34.9539 30.9979 35.1521 31.6974 35.1417H33.6974C33.9052 35.1364 34.1121 35.1724 34.3059 35.2477C34.4997 35.323 34.6766 35.436 34.8264 35.5802C34.9762 35.7244 35.0958 35.8969 35.1784 36.0877C35.261 36.2785 35.3048 36.4838 35.3074 36.6917C35.3089 36.8913 35.2698 37.0891 35.1925 37.273C35.1151 37.457 35.0011 37.6233 34.8574 37.7617C34.5441 38.0583 34.1288 38.223 33.6974 38.2217H29.8874C29.6222 38.2217 29.3678 38.3271 29.1803 38.5146C28.9927 38.7022 28.8874 38.9565 28.8874 39.2217C28.8874 39.4869 28.9927 39.7413 29.1803 39.9288C29.3678 40.1164 29.6222 40.2217 29.8874 40.2217H31.6974V42.1017C31.6974 42.3669 31.8027 42.6213 31.9903 42.8088C32.1778 42.9964 32.4322 43.1017 32.6974 43.1017C32.9626 43.1017 33.217 42.9964 33.4045 42.8088C33.592 42.6213 33.6974 42.3669 33.6974 42.1017V40.2417C34.6452 40.2531 35.56 39.8943 36.2474 39.2417C36.7404 38.7453 37.0743 38.1133 37.2064 37.4262C37.3386 36.7392 37.263 36.0284 36.9893 35.3845C36.7157 34.7406 36.2564 34.1929 35.67 33.8112C35.0837 33.4296 34.3969 33.2313 33.6974 33.2417V33.1917Z" fill="#676767"/>
<path id="Vector_4" d="M56.6974 24.5502C56.4322 24.5502 56.1778 24.4448 55.9903 24.2573C55.8027 24.0697 55.6974 23.8154 55.6974 23.5502C55.6974 23.2849 55.8027 23.0306 55.9903 22.8431C56.1778 22.6555 56.4322 22.5502 56.6974 22.5502C57.493 22.5502 58.2561 22.2341 58.8187 21.6715C59.3813 21.1089 59.6974 20.3458 59.6974 19.5502V10.1602C59.6974 9.36451 59.3813 8.60145 58.8187 8.03884C58.2561 7.47623 57.493 7.16016 56.6974 7.16016H8.69739C7.90174 7.16016 7.13868 7.47623 6.57607 8.03884C6.01346 8.60145 5.69739 9.36451 5.69739 10.1602V19.5802C5.69739 20.3758 6.01346 21.1389 6.57607 21.7015C7.13868 22.2641 7.90174 22.5802 8.69739 22.5802C8.9626 22.5802 9.21696 22.6855 9.40449 22.8731C9.59203 23.0606 9.69739 23.3149 9.69739 23.5802C9.69739 23.8454 9.59203 24.0997 9.40449 24.2873C9.21696 24.4748 8.9626 24.5802 8.69739 24.5802C7.37131 24.5802 6.09954 24.0534 5.16185 23.1157C4.22417 22.178 3.69739 20.9062 3.69739 19.5802V10.1602C3.69739 8.83407 4.22417 7.5623 5.16185 6.62462C6.09954 5.68694 7.37131 5.16016 8.69739 5.16016H56.6974C58.0235 5.16016 59.2952 5.68694 60.2329 6.62462C61.1706 7.5623 61.6974 8.83407 61.6974 10.1602V19.5802C61.6895 20.901 61.1592 22.1651 60.2224 23.0963C59.2855 24.0275 58.0183 24.5502 56.6974 24.5502Z" fill="#BBBBBB"/>
</g>
</g>
</svg>
