<svg width="17" height="25" viewBox="0 0 17 25" fill="none" xmlns="http://www.w3.org/2000/svg">
<g id="layer1">
<path id="path7641" d="M7.29388 0.494177C7.16493 0.507481 7.04104 0.551443 6.93255 0.622392C6.82405 0.69334 6.73411 0.789216 6.67022 0.902014L0.168637 12.2738C0.0975703 12.3976 0.0603617 12.5379 0.0607553 12.6807C0.0611489 12.8234 0.0991308 12.9635 0.170879 13.0869C0.242627 13.2103 0.345609 13.3126 0.469463 13.3835C0.593316 13.4545 0.73367 13.4915 0.8764 13.491H4.51678L0.12579 23.7345C0.0481804 23.909 0.0345087 24.1053 0.0871749 24.2888C0.139841 24.4724 0.25548 24.6316 0.413795 24.7384C0.57211 24.8452 0.762985 24.8928 0.952919 24.8729C1.14285 24.853 1.31971 24.7669 1.45245 24.6296L16.0743 9.99979C16.1874 9.88597 16.2643 9.7412 16.2952 9.58374C16.3262 9.42629 16.3098 9.26319 16.2482 9.11501C16.1866 8.96684 16.0825 8.84023 15.949 8.75114C15.8156 8.66205 15.6587 8.61448 15.4982 8.61442H12.0626L16.1949 1.72403C16.2687 1.60076 16.3084 1.46012 16.3101 1.31647C16.3119 1.17281 16.2755 1.03127 16.2047 0.90626C16.1338 0.781255 16.0312 0.677258 15.9071 0.604868C15.783 0.532478 15.6419 0.494283 15.4982 0.494177H7.37799C7.34997 0.492725 7.3219 0.492725 7.29388 0.494177ZM7.84613 2.11283H14.0652L9.92657 9.01114C9.85286 9.13431 9.81309 9.27479 9.81131 9.41832C9.80952 9.56184 9.84579 9.70327 9.91641 9.82823C9.98703 9.95319 10.0895 10.0572 10.2134 10.1297C10.3372 10.2022 10.4781 10.2406 10.6216 10.241H13.5368L3.28058 20.4972L6.49566 12.9991C6.54858 12.8758 6.57014 12.7413 6.55843 12.6076C6.54672 12.474 6.5021 12.3453 6.42855 12.2331C6.35501 12.1209 6.25482 12.0287 6.13694 11.9646C6.01906 11.9005 5.88715 11.8667 5.75299 11.866H2.27288L7.84613 2.11283Z" fill="white"/>
</g>
</svg>
