<svg width="25" height="25" viewBox="0 0 25 25" fill="none" xmlns="http://www.w3.org/2000/svg">
<g id="link 1">
<path id="Vector" d="M12.1676 15.7407L8.28759 19.6207C7.81783 20.0741 7.19045 20.3274 6.53759 20.3274C5.88473 20.3274 5.25735 20.0741 4.78759 19.6207C4.5572 19.3912 4.37438 19.1185 4.24964 18.8182C4.1249 18.5179 4.06069 18.1959 4.06069 17.8707C4.06069 17.5455 4.1249 17.2235 4.24964 16.9232C4.37438 16.6229 4.5572 16.3502 4.78759 16.1207L8.66759 12.2407C8.85589 12.0524 8.96168 11.797 8.96168 11.5307C8.96168 11.2644 8.85589 11.009 8.66759 10.8207C8.47929 10.6324 8.22389 10.5266 7.95759 10.5266C7.69129 10.5266 7.43589 10.6324 7.24759 10.8207L3.36759 14.7107C2.58595 15.5615 2.16321 16.6813 2.18767 17.8364C2.21212 18.9915 2.68187 20.0925 3.49882 20.9094C4.31577 21.7264 5.41675 22.1962 6.57184 22.2206C7.72692 22.2451 8.8468 21.8223 9.69759 21.0407L13.5876 17.1607C13.7759 16.9724 13.8817 16.717 13.8817 16.4507C13.8817 16.1844 13.7759 15.929 13.5876 15.7407C13.3993 15.5524 13.1439 15.4466 12.8776 15.4466C12.6113 15.4466 12.3559 15.5524 12.1676 15.7407ZM20.7476 3.66068C19.9064 2.82469 18.7686 2.35547 17.5826 2.35547C16.3966 2.35547 15.2588 2.82469 14.4176 3.66068L10.5276 7.54068C10.4344 7.63392 10.3604 7.74461 10.3099 7.86643C10.2595 7.98825 10.2335 8.11882 10.2335 8.25068C10.2335 8.38254 10.2595 8.51311 10.3099 8.63493C10.3604 8.75675 10.4344 8.86744 10.5276 8.96068C10.6208 9.05392 10.7315 9.12788 10.8533 9.17834C10.9752 9.2288 11.1057 9.25477 11.2376 9.25477C11.3695 9.25477 11.5 9.2288 11.6218 9.17834C11.7437 9.12788 11.8544 9.05392 11.9476 8.96068L15.8276 5.08068C16.2974 4.62731 16.9247 4.37394 17.5776 4.37394C18.2304 4.37394 18.8578 4.62731 19.3276 5.08068C19.558 5.31017 19.7408 5.58289 19.8655 5.8832C19.9903 6.18351 20.0545 6.5055 20.0545 6.83068C20.0545 7.15587 19.9903 7.47785 19.8655 7.77816C19.7408 8.07847 19.558 8.35119 19.3276 8.58068L15.4476 12.4607C15.3539 12.5536 15.2795 12.6642 15.2287 12.7861C15.1779 12.908 15.1518 13.0387 15.1518 13.1707C15.1518 13.3027 15.1779 13.4334 15.2287 13.5553C15.2795 13.6771 15.3539 13.7877 15.4476 13.8807C15.5406 13.9744 15.6512 14.0488 15.773 14.0996C15.8949 14.1503 16.0256 14.1765 16.1576 14.1765C16.2896 14.1765 16.4203 14.1503 16.5422 14.0996C16.664 14.0488 16.7746 13.9744 16.8676 13.8807L20.7476 9.99068C21.5836 9.14946 22.0528 8.01165 22.0528 6.82568C22.0528 5.63971 21.5836 4.5019 20.7476 3.66068ZM8.88759 15.5207C8.98103 15.6134 9.09185 15.6867 9.21368 15.7365C9.33552 15.7862 9.46598 15.8114 9.59759 15.8107C9.7292 15.8114 9.85966 15.7862 9.9815 15.7365C10.1033 15.6867 10.2142 15.6134 10.3076 15.5207L15.2276 10.6007C15.4159 10.4124 15.5217 10.157 15.5217 9.89068C15.5217 9.62438 15.4159 9.36898 15.2276 9.18068C15.0393 8.99238 14.7839 8.88659 14.5176 8.88659C14.2513 8.88659 13.9959 8.99238 13.8076 9.18068L8.88759 14.1007C8.79386 14.1936 8.71947 14.3042 8.6687 14.4261C8.61793 14.548 8.59179 14.6787 8.59179 14.8107C8.59179 14.9427 8.61793 15.0734 8.6687 15.1953C8.71947 15.3171 8.79386 15.4277 8.88759 15.5207Z" fill="white"/>
</g>
</svg>
