<svg width="27" height="26" viewBox="0 0 27 26" fill="none" xmlns="http://www.w3.org/2000/svg">
<g id="lock-access">
<g id="Path">
<path d="M5.10449 8.54427V6.41374C5.10449 5.23708 6.05836 4.2832 7.23503 4.2832H9.36556" stroke="#FDBB14" stroke-width="2.48562" stroke-linecap="round" stroke-linejoin="round"/>
<path d="M5.10449 8.54427V6.41374C5.10449 5.23708 6.05836 4.2832 7.23503 4.2832H9.36556" stroke="#FDBB14" stroke-width="2.48562" stroke-linecap="round" stroke-linejoin="round"/>
</g>
<g id="Path_2">
<path d="M5.10449 17.0664V19.1969C5.10449 20.3736 6.05836 21.3275 7.23503 21.3275H9.36556" stroke="#FDBB14" stroke-width="2.48562" stroke-linecap="round" stroke-linejoin="round"/>
<path d="M5.10449 17.0664V19.1969C5.10449 20.3736 6.05836 21.3275 7.23503 21.3275H9.36556" stroke="#FDBB14" stroke-width="2.48562" stroke-linecap="round" stroke-linejoin="round"/>
</g>
<g id="Path_3">
<path d="M17.8877 4.2832H20.0182C21.1949 4.2832 22.1488 5.23708 22.1488 6.41374V8.54427" stroke="#FDBB14" stroke-width="2.48562" stroke-linecap="round" stroke-linejoin="round"/>
<path d="M17.8877 4.2832H20.0182C21.1949 4.2832 22.1488 5.23708 22.1488 6.41374V8.54427" stroke="#FDBB14" stroke-width="2.48562" stroke-linecap="round" stroke-linejoin="round"/>
</g>
<g id="Path_4">
<path d="M17.8877 21.3275H20.0182C21.1949 21.3275 22.1488 20.3736 22.1488 19.1969V17.0664" stroke="#FDBB14" stroke-width="2.48562" stroke-linecap="round" stroke-linejoin="round"/>
<path d="M17.8877 21.3275H20.0182C21.1949 21.3275 22.1488 20.3736 22.1488 19.1969V17.0664" stroke="#FDBB14" stroke-width="2.48562" stroke-linecap="round" stroke-linejoin="round"/>
</g>
<g id="Rectangle">
<rect x="9.36621" y="11.7402" width="8.52214" height="5.32633" rx="1.42036" stroke="#FDBB14" stroke-width="2.48562" stroke-linecap="round" stroke-linejoin="round"/>
<rect x="9.36621" y="11.7402" width="8.52214" height="5.32633" rx="1.42036" stroke="#FDBB14" stroke-width="2.48562" stroke-linecap="round" stroke-linejoin="round"/>
</g>
<g id="Path_5">
<path d="M11.4961 11.7396V9.60905C11.4961 8.43239 12.45 7.47852 13.6266 7.47852C14.8033 7.47852 15.7572 8.43239 15.7572 9.60905V11.7396" stroke="#FDBB14" stroke-width="2.48562" stroke-linecap="round" stroke-linejoin="round"/>
<path d="M11.4961 11.7396V9.60905C11.4961 8.43239 12.45 7.47852 13.6266 7.47852C14.8033 7.47852 15.7572 8.43239 15.7572 9.60905V11.7396" stroke="#FDBB14" stroke-width="2.48562" stroke-linecap="round" stroke-linejoin="round"/>
</g>
</g>
</svg>
