<svg width="17" height="17" viewBox="0 0 17 17" fill="none" xmlns="http://www.w3.org/2000/svg">
<path id="Vector" d="M12.2861 7.95821V5.55323C12.2861 3.3395 10.4915 1.54492 8.27781 1.54492C6.06408 1.54492 4.2695 3.3395 4.2695 5.55323V7.95821M4.91083 15.9748H11.6448C12.9917 15.9748 13.6652 15.9748 14.1796 15.7127C14.6322 15.4821 15 15.1142 15.2306 14.6617C15.4927 14.1472 15.4927 13.4737 15.4927 12.1268V11.8062C15.4927 10.4592 15.4927 9.7858 15.2306 9.27134C15 8.81881 14.6322 8.4509 14.1796 8.22033C13.6652 7.95821 12.9917 7.95821 11.6448 7.95821H4.91083C3.56392 7.95821 2.89046 7.95821 2.376 8.22033C1.92348 8.4509 1.55557 8.81881 1.32499 9.27134C1.06287 9.7858 1.06287 10.4592 1.06287 11.8062V12.1268C1.06287 13.4737 1.06287 14.1472 1.32499 14.6617C1.55557 15.1142 1.92348 15.4821 2.376 15.7127C2.89046 15.9748 3.56392 15.9748 4.91083 15.9748Z" stroke="#B1B0B6" stroke-width="1.92398" stroke-linecap="round" stroke-linejoin="round"/>
</svg>
