<svg width="25" height="25" viewBox="0 0 25 25" fill="none" xmlns="http://www.w3.org/2000/svg">
<g id="logout">
<path id="Path" d="M14.4913 8.23633V6.23633C14.4913 5.13176 13.5959 4.23633 12.4913 4.23633H5.49133C4.38676 4.23633 3.49133 5.13176 3.49133 6.23633V18.2363C3.49133 19.3409 4.38676 20.2363 5.49133 20.2363H12.4913C13.5959 20.2363 14.4913 19.3409 14.4913 18.2363V16.2363" stroke="#FF0006" stroke-width="1.75" stroke-linecap="round" stroke-linejoin="round"/>
<path id="Shape" d="M7.49133 11.3613C7.00808 11.3613 6.61633 11.7531 6.61633 12.2363C6.61633 12.7196 7.00808 13.1113 7.49133 13.1113V11.3613ZM21.4913 12.2363V13.1113C21.8452 13.1113 22.1643 12.8981 22.2997 12.5712C22.4352 12.2442 22.3603 11.8679 22.1101 11.6176L21.4913 12.2363ZM19.1101 8.61761C18.7683 8.2759 18.2143 8.2759 17.8726 8.61761C17.5309 8.95932 17.5309 9.51334 17.8726 9.85505L19.1101 8.61761ZM17.8726 14.6176C17.5309 14.9593 17.5309 15.5133 17.8726 15.855C18.2143 16.1968 18.7683 16.1968 19.1101 15.855L17.8726 14.6176ZM22.1101 12.855C22.4518 12.5133 22.4518 11.9593 22.1101 11.6176C21.7683 11.2759 21.2143 11.2759 20.8726 11.6176L22.1101 12.855ZM7.49133 13.1113H21.4913V11.3613H7.49133V13.1113ZM22.1101 11.6176L19.1101 8.61761L17.8726 9.85505L20.8726 12.855L22.1101 11.6176ZM19.1101 15.855L22.1101 12.855L20.8726 11.6176L17.8726 14.6176L19.1101 15.855Z" fill="#FF0006"/>
</g>
</svg>
