<svg width="25" height="25" viewBox="0 0 25 25" fill="none" xmlns="http://www.w3.org/2000/svg">
<g id="music-tune 1">
<path id="Vector" d="M10.0054 2.60078C9.58381 2.62549 9.18763 2.81038 8.89794 3.11761C8.60824 3.42485 8.44693 3.83119 8.44702 4.25347V17.5892H5.53639C4.16508 17.5892 2.8575 18.7006 2.61584 20.072C2.37419 21.4433 3.2895 22.5547 4.66081 22.5547H7.14357C8.51488 22.5547 9.82246 21.4433 10.0641 20.072C10.0889 19.9313 10.0939 19.7947 10.0956 19.6598L10.103 19.6582V8.42451C10.103 8.21605 10.1817 8.01528 10.3233 7.86231C10.4649 7.70934 10.659 7.61545 10.8669 7.5994L19.9703 6.89926C20.084 6.89048 20.1983 6.9053 20.306 6.94278C20.4138 6.98026 20.5126 7.03961 20.5963 7.11708C20.6799 7.19456 20.7467 7.28849 20.7924 7.393C20.8381 7.4975 20.8616 7.61032 20.8616 7.72437V15.1064H17.9502C16.5789 15.1064 15.2713 16.2179 15.0296 17.5892C14.788 18.9605 15.7033 20.072 17.0746 20.072H19.5574C20.9287 20.072 22.2363 18.9605 22.4779 17.5892C22.5027 17.4485 22.5077 17.312 22.5094 17.1771L22.5168 17.1754V3.62037C22.5169 3.39482 22.4708 3.17165 22.3815 2.96454C22.2922 2.75744 22.1615 2.57077 21.9974 2.41601C21.8333 2.26124 21.6394 2.14164 21.4274 2.06454C21.2154 1.98745 20.99 1.95448 20.7648 1.96768L10.0054 2.60078Z" fill="#FDBB14"/>
</g>
</svg>
