<svg width="65" height="65" viewBox="0 0 65 65" fill="none" xmlns="http://www.w3.org/2000/svg">
<g id="payment-gateway 1">
<path id="Vector" d="M47.3675 16.0089C48.0927 16.1848 48.7555 16.5569 49.2832 17.0845C49.8109 17.6121 50.1831 18.2748 50.3591 19C50.4161 19.2663 50.5616 19.5055 50.772 19.6786C50.9824 19.8516 51.2452 19.9482 51.5176 19.9527L51.5616 19.9527C51.7397 19.9527 51.9155 19.9124 52.076 19.8351C52.2364 19.7578 52.3774 19.6453 52.4885 19.506C52.5995 19.3667 52.6777 19.2042 52.7174 19.0305C52.757 18.8568 52.757 18.6765 52.7174 18.5028C52.4442 17.321 51.8447 16.2397 50.9871 15.382C50.1295 14.5243 49.0482 13.9246 47.8665 13.6512C47.6927 13.6114 47.5122 13.6113 47.3384 13.6508C47.1645 13.6904 47.0018 13.7686 46.8623 13.8796C46.7228 13.9906 46.6101 14.1317 46.5326 14.2922C46.455 14.4527 46.4146 14.6287 46.4144 14.807V14.8482C46.4186 15.121 46.5151 15.3842 46.6883 15.595C46.8614 15.8058 47.1008 15.9517 47.3675 16.0089ZM47.474 10.8994C47.5537 10.9089 47.6333 10.9195 47.7126 10.9311C49.6604 11.2146 51.4645 12.1197 52.8563 13.5115C54.2481 14.9033 55.1531 16.7074 55.4366 18.6551C55.4482 18.7345 55.4588 18.814 55.4683 18.8936C55.4874 19.0509 55.5374 19.2029 55.6153 19.3409C55.6933 19.4788 55.7978 19.6 55.9227 19.6975C56.0476 19.795 56.1905 19.8669 56.3432 19.909C56.496 19.9512 56.6555 19.9628 56.8128 19.9432C56.97 19.9235 57.1218 19.8731 57.2595 19.7947C57.3972 19.7163 57.5181 19.6114 57.6152 19.4862C57.7123 19.361 57.7837 19.2179 57.8254 19.065C57.8671 18.9121 57.8782 18.7525 57.858 18.5954C57.5494 16.0276 56.3875 13.6377 54.5587 11.809C52.73 9.98018 50.3401 8.81835 47.7723 8.50969C47.6152 8.48963 47.4556 8.50077 47.3028 8.54248C47.15 8.58419 47.0069 8.65564 46.8817 8.75274C46.7566 8.84984 46.6518 8.97069 46.5734 9.10835C46.495 9.24601 46.4446 9.39779 46.425 9.55498C46.4053 9.71217 46.4169 9.87169 46.4591 10.0244C46.5012 10.1771 46.573 10.32 46.6705 10.4449C46.7679 10.5698 46.8891 10.6742 47.027 10.7522C47.1648 10.8302 47.3167 10.8802 47.474 10.8994Z" fill="#BBBBBB"/>
<path id="Vector_2" d="M47.6924 3.17022C47.3746 3.15077 47.062 3.25802 46.8231 3.4685C46.5841 3.67898 46.4383 3.97555 46.4175 4.29329C46.3967 4.61104 46.5026 4.92408 46.7121 5.1639C46.9216 5.40373 47.2175 5.5508 47.5352 5.57293C47.5812 5.57634 47.6271 5.57993 47.6729 5.5837C51.0478 5.88591 54.2094 7.36409 56.6054 9.7601C59.0014 12.1561 60.4796 15.3177 60.7818 18.6926C60.7861 18.741 60.7902 18.7895 60.7939 18.8379C60.8176 19.1551 60.9658 19.4501 61.2062 19.6584C61.4465 19.8668 61.7595 19.9716 62.0769 19.95C62.3942 19.9285 62.6902 19.7823 62.9002 19.5434C63.1101 19.3045 63.2171 18.9922 63.1977 18.6747C62.8875 14.6657 61.1543 10.8996 58.311 8.05642C55.4676 5.21321 51.7015 3.48019 47.6924 3.17022ZM50.5462 42.4734C48.5938 42.4734 46.6851 43.0524 45.0617 44.1372C43.4383 45.2219 42.173 46.7637 41.4258 48.5676C40.6786 50.3714 40.4831 52.3563 40.864 54.2713C41.2449 56.1863 42.1851 57.9453 43.5657 59.3259C44.9464 60.7065 46.7054 61.6467 48.6203 62.0276C50.5353 62.4085 52.5202 62.213 54.3241 61.4659C56.1279 60.7187 57.6697 59.4534 58.7545 57.8299C59.8392 56.2065 60.4182 54.2979 60.4182 52.3454C60.4182 51.049 60.1628 49.7653 59.6667 48.5676C59.1706 47.3698 58.4435 46.2816 57.5268 45.3649C56.6101 44.4482 55.5218 43.721 54.3241 43.2249C53.1264 42.7288 51.8426 42.4734 50.5462 42.4734ZM55.6389 50.7453L49.9045 56.4796C49.5685 56.8156 49.1127 57.0043 48.6375 57.0043C48.1623 57.0043 47.7065 56.8156 47.3705 56.4796L44.5562 53.6653C44.3889 53.4991 44.256 53.3016 44.1652 53.0839C44.0744 52.8663 44.0274 52.6328 44.027 52.397C44.0266 52.1612 44.0727 51.9276 44.1628 51.7096C44.2529 51.4917 44.3851 51.2936 44.5518 51.1269C44.7186 50.9601 44.9166 50.8279 45.1346 50.7379C45.3526 50.6478 45.5862 50.6017 45.822 50.6021C46.0578 50.6025 46.2913 50.6495 46.5089 50.7403C46.7265 50.8311 46.9241 50.964 47.0903 51.1313L48.6375 52.6787L53.1048 48.2112C53.2711 48.0446 53.4687 47.9124 53.6861 47.8221C53.9036 47.7319 54.1367 47.6854 54.3722 47.6853C54.6076 47.6852 54.8408 47.7315 55.0583 47.8215C55.2759 47.9116 55.4735 48.0436 55.64 48.2101C55.8065 48.3766 55.9386 48.5742 56.0286 48.7918C56.1187 49.0093 56.165 49.2425 56.1649 49.4779C56.1648 49.7134 56.1183 49.9465 56.028 50.164C55.9378 50.3814 55.8055 50.579 55.6389 50.7453Z" fill="#BBBBBB"/>
<path id="Vector_3" d="M48.1999 40.0026V22.287C48.1988 21.1878 47.7613 20.134 46.9836 19.3572C46.2059 18.5804 45.1515 18.1442 44.0523 18.1445H5.58148C4.48228 18.1442 3.42793 18.5804 2.65019 19.3572C1.87246 20.134 1.43497 21.1878 1.4339 22.287V45.5706C1.43497 46.6698 1.87246 47.7236 2.6502 48.5003C3.42793 49.2771 4.48228 49.7133 5.58148 49.713H38.2376C38.5959 47.2228 39.7669 44.9208 41.5685 43.1648C43.3701 41.4087 45.7014 40.2971 48.1999 40.0026ZM5.47944 23.7154C5.48083 23.3104 5.64268 22.9225 5.92954 22.6366C6.2164 22.3507 6.60489 22.1901 7.0099 22.1901H12.04C12.2407 22.1896 12.4394 22.2288 12.625 22.3052C12.8105 22.3817 12.9792 22.4939 13.1213 22.6356C13.2635 22.7772 13.3763 22.9455 13.4534 23.1308C13.5304 23.3161 13.5702 23.5147 13.5705 23.7154V28.7456C13.5708 28.9466 13.5314 29.1458 13.4545 29.3316C13.3777 29.5174 13.265 29.6862 13.1228 29.8284C12.9806 29.9706 12.8118 30.0833 12.626 30.1601C12.4402 30.2369 12.241 30.2763 12.04 30.2761H7.0099C6.60409 30.2757 6.21499 30.1144 5.92804 29.8274C5.6411 29.5405 5.47976 29.1514 5.47944 28.7456V23.7154ZM7.00298 34.3228H13.9594C14.3637 34.3228 14.7513 34.4833 15.0372 34.7692C15.323 35.055 15.4836 35.4427 15.4836 35.8469C15.4836 36.2511 15.323 36.6388 15.0372 36.9246C14.7513 37.2105 14.3637 37.3711 13.9594 37.3711H7.00298C6.59875 37.3711 6.21108 37.2105 5.92524 36.9246C5.63941 36.6388 5.47883 36.2511 5.47883 35.8469C5.47883 35.4427 5.63941 35.055 5.92524 34.7692C6.21108 34.4833 6.59875 34.3228 7.00298 34.3228ZM26.1918 43.1626C26.1919 43.3717 26.1509 43.5787 26.0709 43.7719C25.991 43.9651 25.8738 44.1406 25.7259 44.2884C25.5781 44.4363 25.4025 44.5535 25.2094 44.6334C25.0162 44.7134 24.8091 44.7544 24.6 44.7543H7.07111C6.64914 44.7537 6.2446 44.5859 5.94622 44.2875C5.64784 43.9891 5.47998 43.5846 5.47944 43.1626V43.1575C5.47928 42.9484 5.52034 42.7414 5.60027 42.5482C5.6802 42.355 5.79744 42.1795 5.94527 42.0316C6.0931 41.8838 6.26863 41.7666 6.46182 41.6866C6.655 41.6067 6.86205 41.5656 7.07111 41.5658H24.6C24.8092 41.5652 25.0165 41.606 25.2099 41.6858C25.4032 41.7655 25.5789 41.8828 25.7269 42.0307C25.8748 42.1786 25.992 42.3543 26.0718 42.5477C26.1516 42.741 26.1924 42.9483 26.1918 43.1575V43.1626ZM28.2946 37.3711H21.3381C20.9339 37.3711 20.5462 37.2105 20.2604 36.9246C19.9746 36.6388 19.814 36.2511 19.814 35.8469C19.814 35.4427 19.9746 35.055 20.2604 34.7692C20.5462 34.4833 20.9339 34.3228 21.3381 34.3228H28.2946C28.6988 34.3228 29.0865 34.4833 29.3723 34.7692C29.6581 35.055 29.8187 35.4427 29.8187 35.8469C29.8187 36.2511 29.6581 36.6388 29.3723 36.9246C29.0865 37.2105 28.6988 37.3711 28.2946 37.3711ZM35.6733 37.3711C35.2691 37.3711 34.8814 37.2105 34.5956 36.9246C34.3097 36.6388 34.1491 36.2511 34.1491 35.8469C34.1491 35.4427 34.3097 35.055 34.5956 34.7692C34.8814 34.4833 35.2691 34.3228 35.6733 34.3228H42.6297C43.0339 34.3228 43.4216 34.4833 43.7075 34.7692C43.9933 35.055 44.1539 35.4427 44.1539 35.8469C44.1539 36.2511 43.9933 36.6388 43.7075 36.9246C43.4216 37.2105 43.0339 37.3711 42.6297 37.3711H35.6733Z" fill="#BBBBBB"/>
</g>
</svg>
