<svg width="22" height="22" viewBox="0 0 22 22" fill="none" xmlns="http://www.w3.org/2000/svg">
<g id="pdf-file 1" clip-path="url(#clip0_1827_19266)">
<path id="Vector" d="M17.1418 6.2776H21.7251L15.7209 0.273438V4.85677C15.7209 5.63594 16.3626 6.2776 17.1418 6.2776Z" fill="#BBBBBB"/>
<path id="Vector_2" d="M17.1417 7.19583C15.8583 7.19583 14.8042 6.14167 14.8042 4.85833V0H6.4625C5.17917 0 4.125 1.05417 4.125 2.3375V2.38333H10.6333C11.5042 2.38333 12.2375 3.11667 12.2375 3.9875V8.29583C12.2375 9.2125 11.5042 9.9 10.6333 9.9H4.125V19.6167C4.125 20.9 5.17917 21.9542 6.4625 21.9542H19.6625C20.9458 21.9542 22 20.9 22 19.6167V7.19583H17.1417ZM18.8375 18.5167H7.2875V17.6H18.8375V18.5167ZM18.8375 15.2625H7.2875V14.3458H18.8375V15.2625ZM18.8375 11.9625H7.2875V11.0458H18.8375V11.9625Z" fill="#BBBBBB"/>
<path id="Vector_3" d="M5.54575 5.45312H5.27075V6.82812H5.59159C5.82075 6.82812 6.00409 6.78229 6.14159 6.64479C6.27909 6.50729 6.32492 6.36979 6.32492 6.14062C6.32492 5.91146 6.27909 5.72813 6.14159 5.63646C6.00409 5.54479 5.82075 5.45312 5.54575 5.45312Z" fill="#BBBBBB"/>
<path id="Vector_4" d="M10.6792 3.30078H0.6875C0.320833 3.30078 0 3.62161 0 3.98828V8.29662C0 8.66328 0.320833 8.98412 0.6875 8.98412H10.6333C11 8.98412 11.3208 8.66328 11.3208 8.29662V3.98828C11.3667 3.62161 11.0458 3.30078 10.6792 3.30078ZM4.125 6.46328C3.94167 6.60078 3.7125 6.64661 3.39167 6.64661H3.07083V7.28828H2.56667V5.04245H3.34583C3.7125 5.04245 3.94167 5.08828 4.07917 5.22578C4.21667 5.36328 4.30833 5.54661 4.30833 5.86745C4.35417 6.14245 4.30833 6.32578 4.125 6.46328ZM6.50833 6.96745C6.27917 7.15078 5.95833 7.28828 5.54583 7.28828H4.76667V5.04245H5.54583C5.95833 5.04245 6.23333 5.13411 6.4625 5.31745C6.69167 5.50078 6.78333 5.77578 6.78333 6.14245C6.78333 6.50911 6.69167 6.78411 6.50833 6.96745ZM8.8 5.45495H7.74583V5.95911H8.75417V6.41745H7.74583V7.28828H7.24167V5.04245H8.8V5.45495Z" fill="#BBBBBB"/>
<path id="Vector_5" d="M3.39163 5.45312H3.0708V6.23229H3.39163C3.57497 6.23229 3.66663 6.18646 3.71247 6.14062C3.7583 6.09479 3.80413 5.95729 3.80413 5.86563C3.80413 5.72813 3.7583 5.63646 3.66663 5.59063C3.66663 5.49896 3.52913 5.45312 3.39163 5.45312Z" fill="#BBBBBB"/>
</g>
<defs>
<clipPath id="clip0_1827_19266">
<rect width="22" height="22" fill="white"/>
</clipPath>
</defs>
</svg>
