<svg width="41" height="41" viewBox="0 0 41 41" fill="none" xmlns="http://www.w3.org/2000/svg">
<g id="person 1" clip-path="url(#clip0_1869_15560)">
<path id="Vector" d="M20.3334 20.3275C24.0167 20.3275 27 17.3441 27 13.6608C27 9.97747 24.0167 6.99414 20.3334 6.99414C16.65 6.99414 13.6667 9.97747 13.6667 13.6608C13.6667 17.3441 16.65 20.3275 20.3334 20.3275ZM20.3334 23.6608C15.8834 23.6608 7.00005 25.8941 7.00005 30.3275V31.9941C7.00005 32.9108 7.75005 33.6608 8.66671 33.6608H32C32.9167 33.6608 33.6667 32.9108 33.6667 31.9941V30.3275C33.6667 25.8941 24.7834 23.6608 20.3334 23.6608Z" fill="#BBBBBB"/>
</g>
<defs>
<clipPath id="clip0_1869_15560">
<rect width="40" height="40" fill="white" transform="translate(0.333374 0.328125)"/>
</clipPath>
</defs>
</svg>
