<svg width="74" height="74" viewBox="0 0 74 74" fill="none" xmlns="http://www.w3.org/2000/svg">
<g id="referrals 1" clip-path="url(#clip0_1805_16605)">
<path id="Vector" fill-rule="evenodd" clip-rule="evenodd" d="M62.357 45.2381L58.1877 45.321L52.3566 39.495L47.7339 44.1181C46.5253 42.564 45.0396 41.2615 43.3132 40.2634L43.0099 40.0907L42.772 40.3406L43.7953 36.0103C44.631 36.2233 45.4993 36.3331 46.3857 36.3331C49.2676 36.3331 51.9559 35.175 53.9559 33.0785L54.1937 32.8286L54.497 33.0009C58.7274 35.447 61.5095 39.7204 62.3268 45.0448L62.3569 45.2381H62.357ZM46.3857 34.1936C51.6273 34.1936 55.8918 29.9287 55.8918 24.6863C55.8918 19.4403 51.6273 15.1758 46.3857 15.1758C41.8482 15.1758 38.0434 18.371 37.1027 22.6294C41.0787 24.0012 44.448 28.6709 44.4841 34.0018C45.1099 34.1294 45.747 34.1937 46.3857 34.1936Z" fill="#BBBBBB"/>
<path id="Vector_2" fill-rule="evenodd" clip-rule="evenodd" d="M39.6453 64.0022H9.85363C9.49313 56.0574 12.2528 49.2594 19.6665 44.9775L20.0452 44.7585L20.3528 45.0756C22.8901 47.7352 26.3008 49.2048 29.958 49.2048C33.6142 49.2048 37.0247 47.7353 39.5622 45.0756L39.8641 44.7585L40.2486 44.9775C41.8184 45.885 43.1791 46.9059 44.3469 48.0264L39.3729 53.0004H47.1565C46.8044 56.78 45.3993 59.8943 42.0573 62.2803L39.6453 64.0022ZM29.958 46.4904C36.6079 46.4904 42.0183 41.0797 42.0183 34.4289C42.0183 27.7733 36.6079 22.3633 29.958 22.3633C23.3072 22.3633 17.8965 27.7733 17.8965 34.4232C17.8965 41.0741 23.3071 46.4904 29.958 46.4904Z" fill="#BBBBBB"/>
<path id="Vector_3" fill-rule="evenodd" clip-rule="evenodd" d="M53.0437 43.4844L61.3931 51.4593H56.6252C55.4313 59.4414 49.4694 62.858 43.5075 63.9994C47.6822 61.1496 49.5856 57.1587 49.5856 51.4593H44.7014L53.0437 43.4844Z" fill="#BBBBBB"/>
</g>
<defs>
<clipPath id="clip0_1805_16605">
<rect width="73" height="73" fill="white" transform="matrix(-1 0 0 1 73.6974 0.191406)"/>
</clipPath>
</defs>
</svg>
