<svg width="59" height="59" viewBox="0 0 59 59" fill="none" xmlns="http://www.w3.org/2000/svg">
<g id="registration 1">
<path id="Vector" d="M42.3415 10.957C38.2634 10.957 34.9103 14.3102 34.9103 18.3883C34.9103 22.4664 38.2634 25.8195 42.3415 25.8195C46.4197 25.8195 49.7728 22.4664 49.7728 18.3883C49.7728 14.3102 46.4197 10.957 42.3415 10.957ZM46.2384 17.7539L42.6134 21.3789C42.3415 21.6508 42.0697 21.7414 41.7072 21.7414C41.3447 21.7414 41.0728 21.5602 40.8009 21.3789L38.5353 19.1133C37.9915 18.5695 37.9915 17.7539 38.5353 17.3008C39.079 16.757 39.8947 16.757 40.3478 17.3008L41.7072 18.6602L44.4259 15.9414C44.9697 15.3977 45.7853 15.3977 46.2384 15.9414C46.7822 16.3945 46.7822 17.2102 46.2384 17.7539Z" fill="#BBBBBB"/>
<path id="Vector_2" d="M31.7384 18.3875C31.7384 12.5875 36.4509 7.78438 42.3415 7.78438V6.87813C42.3415 5.7 41.3447 4.70312 40.1665 4.70312H7.90403C6.72591 4.70312 5.72903 5.7 5.72903 6.87813V52.3719C5.72903 53.55 6.72591 54.5469 7.90403 54.5469H40.1665C41.3447 54.5469 42.3415 53.55 42.3415 52.3719V28.9906C36.4509 28.9906 31.7384 24.1875 31.7384 18.3875ZM17.6915 10.8656H18.4165C19.0509 10.8656 19.504 11.3187 19.504 11.9531C19.504 12.5875 19.0509 13.0406 18.4165 13.0406H17.6915C17.0572 13.0406 16.604 12.5875 16.604 11.9531C16.604 11.4094 17.0572 10.8656 17.6915 10.8656ZM11.3478 10.8656H13.8853C14.5197 10.8656 14.9728 11.3187 14.9728 11.9531C14.9728 12.5875 14.5197 13.0406 13.8853 13.0406H11.3478C10.7134 13.0406 10.2603 12.5875 10.2603 11.9531C10.2603 11.4094 10.7134 10.8656 11.3478 10.8656ZM11.3478 20.925H22.1322C22.7665 20.925 23.2197 21.3781 23.2197 22.0125C23.2197 22.6469 22.7665 23.1 22.1322 23.1H11.3478C10.7134 23.1 10.2603 22.6469 10.2603 22.0125C10.2603 21.4688 10.7134 20.925 11.3478 20.925ZM36.7228 49.8344H11.3478C10.7134 49.8344 10.2603 49.3812 10.2603 48.7469C10.2603 48.1125 10.7134 47.6594 11.3478 47.6594H36.8134C37.4478 47.6594 37.9009 48.1125 37.9009 48.7469C37.8103 49.2906 37.3572 49.8344 36.7228 49.8344ZM36.7228 43.9437H11.3478C10.7134 43.9437 10.2603 43.4906 10.2603 42.8562C10.2603 42.2219 10.7134 41.7687 11.3478 41.7687H36.8134C37.4478 41.7687 37.9009 42.2219 37.9009 42.8562C37.8103 43.4906 37.3572 43.9437 36.7228 43.9437ZM36.7228 38.2344H11.3478C10.7134 38.2344 10.2603 37.7812 10.2603 37.1469C10.2603 36.5125 10.7134 36.0594 11.3478 36.0594H36.8134C37.4478 36.0594 37.9009 36.5125 37.9009 37.1469C37.8103 37.7812 37.3572 38.2344 36.7228 38.2344ZM36.7228 32.4344H11.3478C10.7134 32.4344 10.2603 31.9812 10.2603 31.3469C10.2603 30.7125 10.7134 30.2594 11.3478 30.2594H36.8134C37.4478 30.2594 37.9009 30.7125 37.9009 31.3469C37.8103 31.9812 37.3572 32.4344 36.7228 32.4344Z" fill="#BBBBBB"/>
</g>
</svg>
