<svg width="40" height="40" viewBox="0 0 40 40" fill="none" xmlns="http://www.w3.org/2000/svg">
<g id="save 1">
<path id="Vector" d="M25.2001 9.60156H14.8001C11.9299 9.60156 9.6001 11.9314 9.6001 14.8016V25.2016C9.6001 28.0717 11.9299 30.4016 14.8001 30.4016H25.2001C28.0703 30.4016 30.4001 28.0717 30.4001 25.2016V14.8016C30.4001 11.9314 28.0703 9.60156 25.2001 9.60156ZM20.0001 26.2416C18.2842 26.2416 16.8801 24.8375 16.8801 23.1216C16.8801 21.4057 18.2842 20.0016 20.0001 20.0016C21.716 20.0016 23.1201 21.4057 23.1201 23.1216C23.1201 24.8375 21.716 26.2416 20.0001 26.2416ZM24.1601 14.8016C24.1601 15.3734 23.6919 15.8416 23.1201 15.8416H16.8801C16.3083 15.8416 15.8401 15.3734 15.8401 14.8016V11.6816H24.1601V14.8016Z" fill="url(#paint0_linear_1827_19261)"/>
</g>
<defs>
<linearGradient id="paint0_linear_1827_19261" x1="11.1238" y1="11.1253" x2="28.8764" y2="28.8779" gradientUnits="userSpaceOnUse">
<stop stop-color="#BBBBBB"/>
<stop offset="1" stop-color="#A0A0A0"/>
</linearGradient>
</defs>
</svg>
