<svg width="30" height="30" viewBox="0 0 30 30" fill="none" xmlns="http://www.w3.org/2000/svg">
<g id="scan">
<g id="Path">
<path d="M5.19336 8.95941V7.73366C5.19336 6.37974 6.29093 5.28217 7.64486 5.28217H10.0964" stroke="white" stroke-width="2.14506" stroke-linecap="round" stroke-linejoin="round"/>
<path d="M5.19336 8.95941V7.73366C5.19336 6.37974 6.29093 5.28217 7.64486 5.28217H10.0964" stroke="white" stroke-opacity="0.2" stroke-width="2.14506" stroke-linecap="round" stroke-linejoin="round"/>
</g>
<g id="Path_2">
<path d="M5.19336 21.2169V22.4426C5.19336 23.7965 6.29093 24.8941 7.64486 24.8941H10.0964" stroke="white" stroke-width="2.14506" stroke-linecap="round" stroke-linejoin="round"/>
<path d="M5.19336 21.2169V22.4426C5.19336 23.7965 6.29093 24.8941 7.64486 24.8941H10.0964" stroke="white" stroke-opacity="0.2" stroke-width="2.14506" stroke-linecap="round" stroke-linejoin="round"/>
</g>
<g id="Path_3">
<path d="M19.9023 5.28217H22.3538C23.7078 5.28217 24.8053 6.37974 24.8053 7.73366V8.95941" stroke="white" stroke-width="2.14506" stroke-linecap="round" stroke-linejoin="round"/>
<path d="M19.9023 5.28217H22.3538C23.7078 5.28217 24.8053 6.37974 24.8053 7.73366V8.95941" stroke="white" stroke-opacity="0.2" stroke-width="2.14506" stroke-linecap="round" stroke-linejoin="round"/>
</g>
<g id="Path_4">
<path d="M19.9023 24.8941H22.3538C23.7078 24.8941 24.8053 23.7965 24.8053 22.4426V21.2169" stroke="white" stroke-width="2.14506" stroke-linecap="round" stroke-linejoin="round"/>
<path d="M19.9023 24.8941H22.3538C23.7078 24.8941 24.8053 23.7965 24.8053 22.4426V21.2169" stroke="white" stroke-opacity="0.2" stroke-width="2.14506" stroke-linecap="round" stroke-linejoin="round"/>
</g>
<g id="Path_5">
<path d="M6.41992 15.0882H23.5804" stroke="white" stroke-width="2.14506" stroke-linecap="round" stroke-linejoin="round"/>
<path d="M6.41992 15.0882H23.5804" stroke="white" stroke-opacity="0.2" stroke-width="2.14506" stroke-linecap="round" stroke-linejoin="round"/>
</g>
</g>
</svg>
