<svg width="59" height="59" viewBox="0 0 59 59" fill="none" xmlns="http://www.w3.org/2000/svg">
<g id="send-mail 1">
<path id="Vector" d="M29.6814 22.4635C29.0405 22.4635 28.4258 22.2089 27.9726 21.7557C27.5193 21.3025 27.2647 20.6878 27.2647 20.0469V7.96354C27.2647 7.3226 27.5193 6.70791 27.9726 6.2547C28.4258 5.80149 29.0405 5.54688 29.6814 5.54688C30.3223 5.54688 30.937 5.80149 31.3902 6.2547C31.8434 6.70791 32.0981 7.3226 32.0981 7.96354V20.0469C32.0981 20.6878 31.8434 21.3025 31.3902 21.7557C30.937 22.2089 30.3223 22.4635 29.6814 22.4635Z" fill="#B1B1B1"/>
<path id="Vector_2" d="M34.5147 15.213C34.1973 15.2134 33.883 15.151 33.5898 15.0295C33.2966 14.9079 33.0303 14.7297 32.8061 14.5049L29.6814 11.3802L26.5566 14.5049C26.1009 14.9452 25.4904 15.1887 24.8568 15.1832C24.2231 15.1777 23.617 14.9236 23.1689 14.4755C22.7208 14.0274 22.4667 13.4213 22.4612 12.7877C22.4557 12.154 22.6993 11.5436 23.1395 11.0878L27.9728 6.25444C28.426 5.80139 29.0406 5.54687 29.6814 5.54688C30.3222 5.54687 30.9368 5.80139 31.39 6.25444L36.2233 11.0878C36.5612 11.4258 36.7913 11.8563 36.8845 12.325C36.9777 12.7938 36.9298 13.2796 36.7469 13.7211C36.5641 14.1626 36.2544 14.54 35.8571 14.8056C35.4598 15.0711 34.9926 15.2129 34.5147 15.213Z" fill="#B1B1B1"/>
<path id="Vector_3" d="M39.3481 27.2969H20.0147C18.7006 27.3033 17.4124 27.6635 16.2855 28.3396C15.1587 29.0157 14.2346 29.9829 13.6106 31.1394L24.5581 42.0627C25.9114 43.4354 27.7553 44.2111 29.6814 44.2135C31.6028 44.2079 33.4442 43.4436 34.8047 42.0869L45.7522 31.1394C45.1282 29.9829 44.2041 29.0157 43.0773 28.3396C41.9504 27.6635 40.6622 27.3033 39.3481 27.2969Z" fill="#BBBBBB"/>
<path id="Vector_4" d="M45.7232 31.168L34.8047 42.0865C33.4441 43.4431 31.6028 44.2075 29.6814 44.2131C28.7276 44.2115 27.7836 44.0206 26.9041 43.6514C26.0246 43.2821 25.2272 42.742 24.5581 42.0623L13.6396 31.168C13.0744 32.205 12.7739 33.3655 12.7647 34.5465V46.6298C12.7666 48.552 13.5311 50.395 14.8903 51.7542C16.2495 53.1134 18.0925 53.8779 20.0147 53.8798H39.3481C41.2703 53.8779 43.1132 53.1134 44.4725 51.7542C45.8317 50.395 46.5961 48.552 46.5981 46.6298V34.5465C46.5888 33.3655 46.2884 32.205 45.7232 31.168Z" fill="#EBEBEB"/>
</g>
</svg>
