<svg width="37" height="37" viewBox="0 0 37 37" fill="none" xmlns="http://www.w3.org/2000/svg">
<g id="set-top-stack 1" clip-path="url(#clip0_1827_21532)">
<path id="Vector" d="M3.51953 5.48047C1.65557 5.48047 0.144531 6.9915 0.144531 8.85547V20.1055C0.144531 21.9694 1.65557 23.4805 3.51953 23.4805H19.2695C21.1335 23.4805 22.6445 21.9694 22.6445 20.1055V8.85547C22.6445 6.9915 21.1335 5.48047 19.2695 5.48047H3.51953ZM12.34 9.37079L13.7665 11.5829L16.1059 12.0304C16.5207 12.1097 16.856 12.4146 16.9744 12.8199C17.0928 13.2252 16.9743 13.6626 16.6675 13.9528L14.9227 15.6027L15.8463 18.6546C15.9823 19.1041 15.8249 19.5907 15.4514 19.8753C15.0778 20.1599 14.5668 20.1826 14.1696 19.9321L11.3946 18.1827L8.61952 19.9321C8.22228 20.1826 7.71128 20.1599 7.33776 19.8753C6.96424 19.5907 6.80678 19.1041 6.94279 18.6546L7.8664 15.6027L6.12159 13.9528C5.8148 13.6626 5.69629 13.2252 5.81471 12.8199C5.93311 12.4146 6.26847 12.1097 6.68319 12.0304L9.02263 11.5829L10.4491 9.37079C10.6563 9.04955 11.0123 8.85547 11.3946 8.85547C11.7768 8.85547 12.1329 9.04955 12.34 9.37079Z" fill="#BBBBBB"/>
<path id="Vector_2" d="M4.83691 25.7299C5.30023 27.0407 6.55036 27.9799 8.01985 27.9799H20.3949C24.1227 27.9799 27.1449 24.9577 27.1449 21.2298V13.3548C27.1449 11.8853 26.2058 10.6352 24.8949 10.1719V21.2298C24.8949 23.715 22.88 25.7299 20.3949 25.7299H4.83691Z" fill="#BBBBBB"/>
<path id="Vector_3" d="M9.33691 30.2299C9.80023 31.5407 11.0504 32.4799 12.5199 32.4799H21.5199C27.1118 32.4799 31.6449 27.9468 31.6449 22.3548V17.8548C31.6449 16.3853 30.7058 15.1352 29.3949 14.6719V22.3548C29.3949 26.7041 25.8692 30.2299 21.5199 30.2299H9.33691Z" fill="#BBBBBB"/>
</g>
<defs>
<clipPath id="clip0_1827_21532">
<rect width="36" height="36" fill="white" transform="translate(0.144531 0.980469)"/>
</clipPath>
</defs>
</svg>
