<svg width="47" height="47" viewBox="0 0 47 47" fill="none" xmlns="http://www.w3.org/2000/svg">
<g id="technical-support 1">
<path id="Vector" d="M23.6582 8.15547C23.6105 8.15547 23.5648 8.13654 23.5311 8.10284C23.4974 8.06914 23.4785 8.02344 23.4785 7.97578V3.07031C23.4785 3.02266 23.4974 2.97695 23.5311 2.94325C23.5648 2.90956 23.6105 2.89062 23.6582 2.89062C23.7059 2.89062 23.7516 2.90956 23.7853 2.94325C23.819 2.97695 23.8379 3.02266 23.8379 3.07031V7.97578C23.8379 8.02344 23.819 8.06914 23.7853 8.10284C23.7516 8.13654 23.7059 8.15547 23.6582 8.15547Z" fill="#949494"/>
<path id="Vector_2" d="M24.5063 3.62742C24.5063 3.79517 24.4566 3.95914 24.3634 4.09861C24.2702 4.23809 24.1377 4.34679 23.9827 4.41099C23.8278 4.47518 23.6572 4.49198 23.4927 4.45925C23.3282 4.42653 23.1771 4.34575 23.0585 4.22714C22.9399 4.10852 22.8591 3.9574 22.8264 3.79288C22.7936 3.62836 22.8104 3.45783 22.8746 3.30286C22.9388 3.14788 23.0475 3.01542 23.187 2.92223C23.3265 2.82904 23.4904 2.7793 23.6582 2.7793C23.8828 2.78024 24.098 2.8699 24.2569 3.02875C24.4157 3.1876 24.5054 3.40278 24.5063 3.62742Z" fill="#919191"/>
<path id="Vector_3" d="M32.1251 10.6387H15.1949C13.5059 10.6387 12.1367 12.0079 12.1367 13.697C12.1367 15.386 13.5059 16.7552 15.1949 16.7552H32.1251C33.8141 16.7552 35.1834 15.386 35.1834 13.697C35.1834 12.0079 33.8141 10.6387 32.1251 10.6387Z" fill="#BBBBBB"/>
<path id="Vector_4" d="M30.4288 7.68555H16.884C15.6117 7.68555 14.5804 8.7169 14.5804 9.98914V17.4066C14.5804 18.6789 15.6117 19.7102 16.884 19.7102H30.4288C31.7011 19.7102 32.7324 18.6789 32.7324 17.4066V9.98914C32.7324 8.7169 31.7011 7.68555 30.4288 7.68555Z" fill="#EAEAEA"/>
<path id="Vector_5" d="M29.3903 10.2734H17.9226C17.3272 10.2734 16.8445 10.7561 16.8445 11.3516V16.045C16.8445 16.6404 17.3272 17.1231 17.9226 17.1231H29.3903C29.9857 17.1231 30.4684 16.6404 30.4684 16.045V11.3516C30.4684 10.7561 29.9857 10.2734 29.3903 10.2734Z" fill="#BBBBBB"/>
<path id="Vector_6" d="M21.5019 13.6981C21.5027 13.9058 21.4417 14.1091 21.3268 14.2821C21.212 14.4551 21.0483 14.5902 20.8566 14.6702C20.665 14.7502 20.4539 14.7715 20.2501 14.7314C20.0463 14.6913 19.8589 14.5916 19.7118 14.445C19.5647 14.2984 19.4644 14.1114 19.4236 13.9078C19.3828 13.7041 19.4034 13.4929 19.4827 13.301C19.5621 13.109 19.6965 12.9449 19.8692 12.8295C20.0418 12.714 20.2449 12.6524 20.4526 12.6523C20.7303 12.6523 20.9966 12.7624 21.1933 12.9584C21.39 13.1545 21.501 13.4204 21.5019 13.6981ZM27.9168 13.6981C27.9175 13.906 27.8565 14.1094 27.7414 14.2825C27.6264 14.4556 27.4625 14.5907 27.2707 14.6705C27.0788 14.7504 26.8675 14.7715 26.6636 14.7311C26.4597 14.6907 26.2724 14.5907 26.1254 14.4437C25.9784 14.2968 25.8784 14.1095 25.838 13.9056C25.7977 13.7017 25.8187 13.4904 25.8986 13.2985C25.9785 13.1066 26.1135 12.9427 26.2867 12.8277C26.4598 12.7127 26.6632 12.6516 26.871 12.6523C27.1484 12.6523 27.4144 12.7625 27.6105 12.9587C27.8066 13.1548 27.9168 13.4208 27.9168 13.6981Z" fill="white"/>
<path id="Vector_7" d="M26.2781 19.709H21.0348V21.894H26.2781V19.709Z" fill="#BBBBBB"/>
<path id="Vector_8" d="M7.68396 39.0051C7.44568 39.0051 7.21716 38.9105 7.04867 38.742C6.88018 38.5735 6.78552 38.345 6.78552 38.1067C6.78552 29.8015 14.2749 27.7136 14.3504 27.6848C14.465 27.6521 14.5851 27.6426 14.7035 27.6568C14.8219 27.6709 14.9363 27.7085 15.04 27.7674C15.1437 27.8262 15.2347 27.9051 15.3076 27.9995C15.3805 28.0939 15.4339 28.2018 15.4647 28.317C15.4955 28.4322 15.503 28.5524 15.4868 28.6705C15.4707 28.7887 15.4312 28.9024 15.3706 29.0052C15.31 29.1079 15.2296 29.1975 15.134 29.2688C15.0385 29.3402 14.9297 29.3918 14.814 29.4206C14.5624 29.4889 8.5824 31.1959 8.5824 38.0959C8.58382 38.2148 8.56164 38.3328 8.51713 38.443C8.47262 38.5533 8.40666 38.6536 8.32309 38.7382C8.23952 38.8228 8.14 38.8899 8.03029 38.9357C7.92057 38.9815 7.80286 39.0051 7.68396 39.0051Z" fill="#EAEAEA"/>
<path id="Vector_9" d="M12.6793 27.2168H13.452V31.6766H12.6793C12.3934 31.6766 12.1192 31.5631 11.917 31.3609C11.7148 31.1587 11.6012 30.8845 11.6012 30.5985V28.2949C11.6012 28.009 11.7148 27.7348 11.917 27.5326C12.1192 27.3304 12.3934 27.2168 12.6793 27.2168Z" fill="#BBBBBB"/>
<path id="Vector_10" d="M4.71558 39.0039H10.6704C10.7657 39.0039 10.8571 39.0418 10.9245 39.1092C10.9919 39.1766 11.0298 39.268 11.0298 39.3633V41.595C11.0298 41.8809 10.9162 42.1552 10.714 42.3573C10.5118 42.5595 10.2376 42.6731 9.95167 42.6731H5.43433C5.14839 42.6731 4.87416 42.5595 4.67198 42.3573C4.46979 42.1552 4.3562 41.8809 4.3562 41.595V39.3633C4.3562 39.268 4.39406 39.1766 4.46146 39.1092C4.52886 39.0418 4.62026 39.0039 4.71558 39.0039Z" fill="#EAEAEA"/>
<path id="Vector_11" d="M6.37585 37.8145H9.00648C9.10179 37.8145 9.1932 37.8523 9.2606 37.9197C9.32799 37.9871 9.36585 38.0785 9.36585 38.1738V39.8845H6.01648V38.1738C6.01648 38.0785 6.05434 37.9871 6.12174 37.9197C6.18913 37.8523 6.28054 37.8145 6.37585 37.8145Z" fill="#BBBBBB"/>
<path id="Vector_12" d="M39.6324 39.005C39.3941 39.005 39.1656 38.9103 38.9971 38.7418C38.8286 38.5733 38.734 38.3448 38.734 38.1065C38.734 31.2065 32.754 29.4995 32.5024 29.4312C32.2726 29.3681 32.0772 29.2167 31.9587 29.01C31.8401 28.8033 31.8082 28.5581 31.8699 28.3279C31.8999 28.2142 31.9522 28.1075 32.0236 28.014C32.0951 27.9206 32.1843 27.8422 32.2862 27.7834C32.3881 27.7246 32.5006 27.6865 32.6173 27.6714C32.734 27.6563 32.8525 27.6645 32.966 27.6954C33.0415 27.7134 40.5129 29.8014 40.5129 38.1173C40.5101 38.3506 40.4167 38.5737 40.2524 38.7394C40.088 38.9051 39.8657 39.0003 39.6324 39.005Z" fill="#EAEAEA"/>
<path id="Vector_13" d="M33.8644 27.2168H34.6371C34.923 27.2168 35.1973 27.3304 35.3994 27.5326C35.6016 27.7348 35.7152 28.009 35.7152 28.2949V30.5985C35.7152 30.8845 35.6016 31.1587 35.3994 31.3609C35.1973 31.5631 34.923 31.6766 34.6371 31.6766H33.8644V27.2168Z" fill="#BBBBBB"/>
<path id="Vector_14" d="M36.646 39.0039H42.6008C42.6962 39.0039 42.7876 39.0418 42.855 39.1092C42.9224 39.1766 42.9602 39.268 42.9602 39.3633V41.595C42.9602 41.8809 42.8466 42.1552 42.6444 42.3573C42.4423 42.5595 42.168 42.6731 41.8821 42.6731H37.3647C37.0788 42.6731 36.8046 42.5595 36.6024 42.3573C36.4002 42.1552 36.2866 41.8809 36.2866 41.595V39.3633C36.2866 39.268 36.3245 39.1766 36.3919 39.1092C36.4593 39.0418 36.5507 39.0039 36.646 39.0039Z" fill="#EAEAEA"/>
<path id="Vector_15" d="M38.3099 37.8145H40.9406C41.0359 37.8145 41.1273 37.8523 41.1947 37.9197C41.2621 37.9871 41.2999 38.0785 41.2999 38.1738V39.8845H37.9506V38.1738C37.9506 38.0785 37.9884 37.9871 38.0558 37.9197C38.1232 37.8523 38.2146 37.8145 38.3099 37.8145Z" fill="#BBBBBB"/>
<g id="Group">
<path id="Vector_16" d="M28.4774 21.8945H18.8426C15.8654 21.8945 13.452 24.308 13.452 27.2852V38.1419C13.452 41.119 15.8654 43.5325 18.8426 43.5325H28.4774C31.4546 43.5325 33.8681 41.119 33.8681 38.1419V27.2852C33.8681 24.308 31.4546 21.8945 28.4774 21.8945Z" fill="#EAEAEA"/>
<path id="Vector_17" d="M31.3488 27.2852V38.1419C31.3488 38.9044 31.0459 39.6356 30.5068 40.1748C29.9676 40.714 29.2363 41.0169 28.4738 41.0169H18.8426C18.0801 41.0169 17.3488 40.714 16.8097 40.1748C16.2705 39.6356 15.9676 38.9044 15.9676 38.1419V27.2852C15.9676 26.5227 16.2705 25.7914 16.8097 25.2522C17.3488 24.7131 18.0801 24.4102 18.8426 24.4102H28.4738C29.2363 24.4102 29.9676 24.7131 30.5068 25.2522C31.0459 25.7914 31.3488 26.5227 31.3488 27.2852Z" fill="#BBBBBB"/>
<path id="Vector_18" d="M28.3085 30.2543L27.5395 29.9488C27.4978 29.9306 27.4603 29.9039 27.4294 29.8705C27.3984 29.8372 27.3747 29.7977 27.3598 29.7548C27.3078 29.5998 27.2453 29.4485 27.1729 29.302C27.1543 29.2601 27.1446 29.2148 27.1446 29.169C27.1446 29.1232 27.1543 29.0779 27.1729 29.036L27.4999 28.2777C27.5276 28.2185 27.5363 28.1521 27.5247 28.0878C27.5131 28.0234 27.4818 27.9642 27.4352 27.9184L26.7488 27.2571C26.7036 27.2096 26.6443 27.1777 26.5797 27.166C26.5151 27.1544 26.4485 27.1636 26.3894 27.1924L25.6312 27.5159C25.5893 27.5345 25.544 27.5441 25.4982 27.5441C25.4524 27.5441 25.4071 27.5345 25.3652 27.5159C25.2181 27.4447 25.0669 27.3823 24.9124 27.329C24.869 27.3138 24.8293 27.2896 24.7958 27.258C24.7624 27.2265 24.736 27.1882 24.7184 27.1457L24.4273 26.391C24.4042 26.3327 24.3641 26.2826 24.3122 26.2474C24.2602 26.2121 24.1989 26.1933 24.1362 26.1934H23.1802C23.1175 26.1933 23.0562 26.2121 23.0042 26.2474C22.9523 26.2826 22.9122 26.3327 22.8891 26.391L22.5801 27.1385C22.5624 27.181 22.536 27.2193 22.5026 27.2509C22.4692 27.2824 22.4294 27.3066 22.386 27.3218C22.2315 27.3751 22.0803 27.4375 21.9332 27.5087C21.8913 27.5273 21.846 27.5369 21.8002 27.5369C21.7544 27.5369 21.7091 27.5273 21.6673 27.5087L20.909 27.1852C20.85 27.1564 20.7833 27.1472 20.7187 27.1588C20.6541 27.1705 20.5949 27.2024 20.5496 27.2499L19.874 27.9255C19.8274 27.9714 19.7961 28.0306 19.7845 28.095C19.7729 28.1593 19.7816 28.2257 19.8093 28.2849L20.1363 29.0432C20.1559 29.0848 20.166 29.1302 20.166 29.1762C20.166 29.2221 20.1559 29.2675 20.1363 29.3091C20.0639 29.4557 20.0015 29.607 19.9494 29.762C19.9345 29.8049 19.9108 29.8443 19.8799 29.8777C19.8489 29.9111 19.8115 29.9378 19.7698 29.956L19.0007 30.2615C18.9423 30.2846 18.8923 30.3247 18.857 30.3766C18.8218 30.4285 18.803 30.4898 18.803 30.5526V31.5085C18.8027 31.5709 18.8215 31.6319 18.8568 31.6833C18.8921 31.7347 18.9423 31.774 19.0007 31.796L19.7698 32.1051C19.8115 32.1233 19.8489 32.15 19.8799 32.1834C19.9108 32.2168 19.9345 32.2562 19.9494 32.2991C20.0021 32.4527 20.0645 32.6028 20.1363 32.7484C20.1559 32.7906 20.1661 32.8366 20.1661 32.8831C20.1661 32.9297 20.1559 32.9757 20.1363 33.0179L19.8093 33.7762C19.7805 33.8352 19.7713 33.9018 19.7829 33.9664C19.7945 34.031 19.8264 34.0903 19.874 34.1355L20.5496 34.8112C20.5944 34.8593 20.6535 34.8919 20.7181 34.9042C20.7827 34.9165 20.8496 34.9078 20.909 34.8795L21.6673 34.5524C21.7091 34.5338 21.7544 34.5242 21.8002 34.5242C21.846 34.5242 21.8913 34.5338 21.9332 34.5524C22.0803 34.6248 22.2315 34.6884 22.386 34.7429C22.4296 34.7566 22.4697 34.7799 22.5032 34.8109C22.5368 34.842 22.563 34.8801 22.5801 34.9226L22.8855 35.6916C22.9086 35.75 22.9487 35.8001 23.0006 35.8353C23.0526 35.8706 23.1139 35.8894 23.1766 35.8893H24.1326C24.1953 35.8894 24.2567 35.8706 24.3086 35.8353C24.3605 35.8001 24.4006 35.75 24.4237 35.6916L24.7363 34.9046C24.7534 34.8622 24.7796 34.824 24.8132 34.793C24.8467 34.7619 24.8868 34.7387 24.9304 34.7249C25.0849 34.6704 25.2361 34.6068 25.3832 34.5345C25.4251 34.5158 25.4704 34.5062 25.5162 34.5062C25.562 34.5062 25.6073 34.5158 25.6491 34.5345L26.4074 34.8615C26.4668 34.8898 26.5337 34.8985 26.5983 34.8862C26.6629 34.8739 26.722 34.8414 26.7668 34.7932L27.4424 34.1176C27.49 34.0723 27.5219 34.0131 27.5335 33.9485C27.5451 33.8839 27.5359 33.8172 27.5071 33.7582L27.1801 32.9999C27.1614 32.9575 27.1517 32.9116 27.1517 32.8652C27.1517 32.8188 27.1614 32.7729 27.1801 32.7304C27.2519 32.5848 27.3143 32.4347 27.367 32.2812C27.3819 32.2382 27.4056 32.1988 27.4365 32.1654C27.4675 32.132 27.5049 32.1053 27.5466 32.0871L28.3085 31.7816C28.3669 31.7596 28.4171 31.7203 28.4524 31.6689C28.4878 31.6175 28.5065 31.5565 28.5062 31.4941V30.5454C28.5062 30.4826 28.4874 30.4213 28.4522 30.3694C28.4169 30.3175 28.3669 30.2774 28.3085 30.2543ZM24.4057 33.8121L24.3123 33.8373C23.8815 33.9331 23.4349 33.9331 23.0041 33.8373L22.9107 33.8121C22.2326 33.6307 21.6435 33.209 21.2533 32.6254C20.8631 32.0419 20.6984 31.3364 20.7899 30.6404C20.8814 29.9444 21.2228 29.3054 21.7505 28.8425C22.2782 28.3796 22.9562 28.1244 23.6582 28.1244C24.3602 28.1244 25.0382 28.3796 25.5659 28.8425C26.0936 29.3054 26.435 29.9444 26.5265 30.6404C26.618 31.3364 26.4533 32.0419 26.0631 32.6254C25.6729 33.209 25.0838 33.6307 24.4057 33.8121Z" fill="#A0A0A0"/>
<path id="Vector_19" d="M25.2071 30.8509C25.2072 31.1278 25.1328 31.3996 24.9918 31.638C24.8509 31.8763 24.6484 32.0724 24.4057 32.2057V33.8121L24.3123 33.8373C23.882 33.9378 23.4344 33.9378 23.0041 33.8373L22.9107 33.8121V32.2021C22.6721 32.0686 22.4726 31.8749 22.332 31.6404C22.1914 31.4059 22.1146 31.1386 22.1093 30.8652C22.1042 30.5635 22.1872 30.2669 22.348 30.0116C22.5089 29.7563 22.7406 29.5534 23.0149 29.4277V30.7035C23.0139 30.8758 23.081 31.0414 23.2014 31.1646C23.3218 31.2877 23.486 31.3583 23.6582 31.3612C23.7452 31.3621 23.8315 31.3458 23.9121 31.3132C23.9927 31.2806 24.066 31.2323 24.1279 31.1711C24.1897 31.1099 24.2388 31.0371 24.2723 30.9569C24.3058 30.8766 24.323 30.7905 24.323 30.7035V29.4529C24.5869 29.5792 24.8098 29.7774 24.9662 30.0247C25.1226 30.272 25.2061 30.5583 25.2071 30.8509Z" fill="#919191"/>
<path id="Vector_20" d="M31.3488 37.416V38.1348C31.3488 38.8973 31.0459 39.6285 30.5068 40.1677C29.9676 40.7069 29.2363 41.0098 28.4738 41.0098H18.8426C18.0801 41.0098 17.3488 40.7069 16.8097 40.1677C16.2705 39.6285 15.9676 38.8973 15.9676 38.1348V37.416H31.3488Z" fill="#EAEAEA"/>
<path id="Vector_21" d="M20.1938 39.8805C20.567 39.8805 20.8694 39.5781 20.8694 39.2049C20.8694 38.8318 20.567 38.5293 20.1938 38.5293C19.8207 38.5293 19.5182 38.8318 19.5182 39.2049C19.5182 39.5781 19.8207 39.8805 20.1938 39.8805Z" fill="#919191"/>
<path id="Vector_22" d="M23.6582 39.8805C24.0314 39.8805 24.3339 39.5781 24.3339 39.2049C24.3339 38.8318 24.0314 38.5293 23.6582 38.5293C23.2851 38.5293 22.9826 38.8318 22.9826 39.2049C22.9826 39.5781 23.2851 39.8805 23.6582 39.8805Z" fill="#A0A0A0"/>
<path id="Vector_23" d="M27.1226 39.8805C27.4957 39.8805 27.7982 39.5781 27.7982 39.2049C27.7982 38.8318 27.4957 38.5293 27.1226 38.5293C26.7494 38.5293 26.447 38.8318 26.447 39.2049C26.447 39.5781 26.7494 39.8805 27.1226 39.8805Z" fill="#A0A0A0"/>
</g>
</g>
</svg>
