<svg width="33" height="33" viewBox="0 0 33 33" fill="none" xmlns="http://www.w3.org/2000/svg">
<g id="tools 1" clip-path="url(#clip0_1869_15588)">
<path id="Vector" d="M1.0171 27.2225C0.596972 27.6418 0.310765 28.1764 0.194739 28.7585C0.0787128 29.3406 0.13809 29.944 0.365347 30.4924C0.592604 31.0407 0.977512 31.5092 1.4713 31.8386C1.96509 32.1679 2.54554 32.3433 3.1391 32.3425C3.53321 32.3432 3.92358 32.266 4.28775 32.1153C4.65192 31.9647 4.98271 31.7435 5.2611 31.4645L15.1111 21.6145L10.8671 17.3725L1.0171 27.2225ZM25.6351 8.9665L29.9211 6.7485L32.1691 2.4065L30.0751 0.3125L25.7331 2.5605L23.5151 6.8465L18.2911 12.0705L20.4111 14.1905L25.6351 8.9665ZM26.5731 20.3525C26.4371 20.3445 26.3071 20.3125 26.1691 20.3125C25.4371 20.3125 24.7431 20.4625 24.0951 20.7025L11.7791 8.3865C12.0191 7.7385 12.1691 7.0445 12.1691 6.3125C12.1691 6.1745 12.1371 6.0445 12.1291 5.9085C11.9171 2.7865 9.3451 0.3125 6.1691 0.3125C5.2451 0.3125 4.3791 0.5385 3.5971 0.9125L7.5831 4.8985C7.7931 5.1085 7.9371 5.3565 8.0331 5.6185C8.2951 6.3285 8.1531 7.1545 7.5831 7.7265C7.1931 8.1165 6.6811 8.3125 6.1691 8.3125C5.9331 8.3125 5.6991 8.2605 5.4751 8.1765C5.20544 8.08021 4.95981 7.9267 4.7551 7.7265L0.769096 3.7405C0.378523 4.54191 0.173449 5.42099 0.169096 6.3125C0.169096 9.4885 2.6431 12.0605 5.7651 12.2725C5.9011 12.2805 6.0311 12.3125 6.1691 12.3125C6.9011 12.3125 7.5951 12.1625 8.2431 11.9225L20.5591 24.2385C20.3066 24.9011 20.1745 25.6035 20.1691 26.3125C20.1691 26.4505 20.2011 26.5805 20.2091 26.7165C20.4211 29.8385 22.9931 32.3125 26.1691 32.3125C27.0931 32.3125 27.9591 32.0865 28.7411 31.7125L24.7551 27.7265C24.5542 27.5223 24.4006 27.2765 24.3051 27.0065C24.1705 26.6489 24.1413 26.2602 24.2211 25.8865C24.3008 25.5129 24.4862 25.1699 24.7551 24.8985C25.1451 24.5085 25.6571 24.3125 26.1691 24.3125C26.4051 24.3125 26.6391 24.3645 26.8631 24.4485C27.1251 24.5465 27.3731 24.6885 27.5831 24.8985L31.5691 28.8845C31.9431 28.1025 32.1691 27.2365 32.1691 26.3125C32.1691 23.1365 29.6951 20.5645 26.5731 20.3525Z" fill="#BBBBBB"/>
</g>
<defs>
<clipPath id="clip0_1869_15588">
<rect width="32.324" height="32.03" fill="white" transform="translate(0.169067 0.3125)"/>
</clipPath>
</defs>
</svg>
