<svg width="25" height="25" viewBox="0 0 25 25" fill="none" xmlns="http://www.w3.org/2000/svg">
<g id="user-x">
<g id="Oval">
<circle cx="9.84375" cy="7.80469" r="4" stroke="#FDBB14" stroke-width="1.75" stroke-linecap="round" stroke-linejoin="round"/>
<circle cx="9.84375" cy="7.80469" r="4" stroke="white" stroke-opacity="0.2" stroke-width="1.75" stroke-linecap="round" stroke-linejoin="round"/>
</g>
<g id="Path">
<path d="M3.84375 21.8047V19.8047C3.84375 17.5955 5.63461 15.8047 7.84375 15.8047H11.8438C14.0529 15.8047 15.8438 17.5955 15.8438 19.8047V21.8047" stroke="#FDBB14" stroke-width="1.75" stroke-linecap="round" stroke-linejoin="round"/>
<path d="M3.84375 21.8047V19.8047C3.84375 17.5955 5.63461 15.8047 7.84375 15.8047H11.8438C14.0529 15.8047 15.8438 17.5955 15.8438 19.8047V21.8047" stroke="white" stroke-opacity="0.2" stroke-width="1.75" stroke-linecap="round" stroke-linejoin="round"/>
</g>
<g id="Shape">
<path d="M18.4625 9.18597C18.1208 8.84426 17.5667 8.84426 17.225 9.18597C16.8833 9.52768 16.8833 10.0817 17.225 10.4234L18.4625 9.18597ZM21.225 14.4234C21.5667 14.7651 22.1208 14.7651 22.4625 14.4234C22.8042 14.0817 22.8042 13.5277 22.4625 13.186L21.225 14.4234ZM22.4625 10.4234C22.8042 10.0817 22.8042 9.52768 22.4625 9.18597C22.1208 8.84426 21.5667 8.84426 21.225 9.18597L22.4625 10.4234ZM17.225 13.186C16.8833 13.5277 16.8833 14.0817 17.225 14.4234C17.5667 14.7651 18.1208 14.7651 18.4625 14.4234L17.225 13.186ZM17.225 10.4234L21.225 14.4234L22.4625 13.186L18.4625 9.18597L17.225 10.4234ZM21.225 9.18597L17.225 13.186L18.4625 14.4234L22.4625 10.4234L21.225 9.18597Z" fill="#FDBB14"/>
<path d="M18.4625 9.18597C18.1208 8.84426 17.5667 8.84426 17.225 9.18597C16.8833 9.52768 16.8833 10.0817 17.225 10.4234L18.4625 9.18597ZM21.225 14.4234C21.5667 14.7651 22.1208 14.7651 22.4625 14.4234C22.8042 14.0817 22.8042 13.5277 22.4625 13.186L21.225 14.4234ZM22.4625 10.4234C22.8042 10.0817 22.8042 9.52768 22.4625 9.18597C22.1208 8.84426 21.5667 8.84426 21.225 9.18597L22.4625 10.4234ZM17.225 13.186C16.8833 13.5277 16.8833 14.0817 17.225 14.4234C17.5667 14.7651 18.1208 14.7651 18.4625 14.4234L17.225 13.186ZM17.225 10.4234L21.225 14.4234L22.4625 13.186L18.4625 9.18597L17.225 10.4234ZM21.225 9.18597L17.225 13.186L18.4625 14.4234L22.4625 10.4234L21.225 9.18597Z" fill="white" fill-opacity="0.2"/>
</g>
</g>
</svg>
