<svg width="45" height="45" viewBox="0 0 45 45" fill="none" xmlns="http://www.w3.org/2000/svg">
<g id="voice-note 1">
<path id="Vector" d="M7.66671 33.375C6.56671 33.375 5.83337 32.6417 5.83337 31.5417V13.2083C5.83337 12.1083 6.56671 11.375 7.66671 11.375C8.76671 11.375 9.50004 12.1083 9.50004 13.2083V31.5417C9.50004 32.6417 8.76671 33.375 7.66671 33.375ZM38.8334 31.5417V13.2083C38.8334 12.1083 38.1 11.375 37 11.375C35.9 11.375 35.1667 12.1083 35.1667 13.2083V31.5417C35.1667 32.6417 35.9 33.375 37 33.375C38.1 33.375 38.8334 32.6417 38.8334 31.5417ZM24.1667 29.7083V16.875C24.1667 15.775 23.4334 15.0417 22.3334 15.0417C21.2334 15.0417 20.5 15.775 20.5 16.875V29.7083C20.5 30.8083 21.2334 31.5417 22.3334 31.5417C23.4334 31.5417 24.1667 30.8083 24.1667 29.7083ZM31.5 37.0417V7.70833C31.5 6.60833 30.7667 5.875 29.6667 5.875C28.5667 5.875 27.8334 6.60833 27.8334 7.70833V37.0417C27.8334 38.1417 28.5667 38.875 29.6667 38.875C30.7667 38.875 31.5 38.1417 31.5 37.0417ZM16.8334 37.0417V7.70833C16.8334 6.60833 16.1 5.875 15 5.875C13.9 5.875 13.1667 6.60833 13.1667 7.70833V37.0417C13.1667 38.1417 13.9 38.875 15 38.875C16.1 38.875 16.8334 38.1417 16.8334 37.0417Z" fill="#BBBBBB"/>
</g>
</svg>
