<svg width="25" height="24" viewBox="0 0 25 24" fill="none" xmlns="http://www.w3.org/2000/svg">
<g id="word 1" clip-path="url(#clip0_1827_19272)">
<path id="Vector" d="M23.6485 3.00037H14.1485V0.500366C14.1497 0.426397 14.1345 0.35308 14.1039 0.285703C14.0734 0.218327 14.0283 0.158569 13.9718 0.11074C13.9154 0.0629103 13.849 0.0282009 13.7776 0.00911445C13.7061 -0.00997197 13.6313 -0.0129598 13.5585 0.000366455L0.558504 2.50037C0.442025 2.52166 0.336885 2.58361 0.261804 2.67517C0.186722 2.76673 0.146573 2.88197 0.148504 3.00037V21.0004C0.148932 21.117 0.190155 21.2299 0.265032 21.3194C0.33991 21.4089 0.443727 21.4694 0.558504 21.4904L13.5585 23.9904H13.6485C13.7811 23.9904 13.9083 23.9377 14.0021 23.8439C14.0958 23.7502 14.1485 23.623 14.1485 23.4904V21.0004H23.6485C23.7811 21.0004 23.9083 20.9477 24.0021 20.8539C24.0958 20.7602 24.1485 20.633 24.1485 20.5004V3.50037C24.1485 3.36776 24.0958 3.24058 24.0021 3.14681C23.9083 3.05305 23.7811 3.00037 23.6485 3.00037ZM11.1485 8.13037L9.1485 15.6304C9.1192 15.7394 9.05383 15.8354 8.96304 15.9026C8.87225 15.9698 8.76139 16.0042 8.6485 16.0004C8.53693 16.0048 8.42708 15.9718 8.33647 15.9065C8.24585 15.8413 8.17968 15.7476 8.1485 15.6404L6.6285 10.2604L5.1485 15.1504C5.12254 15.2579 5.05872 15.3524 4.96873 15.4167C4.87874 15.481 4.76861 15.5107 4.6585 15.5004C4.54261 15.506 4.42834 15.4712 4.3353 15.4019C4.24225 15.3326 4.17621 15.233 4.1485 15.1204L2.6485 9.12037C2.61668 8.98776 2.63883 8.84794 2.7101 8.73167C2.78136 8.61539 2.8959 8.53219 3.0285 8.50037C3.16111 8.46854 3.30093 8.4907 3.4172 8.56196C3.53348 8.63322 3.61668 8.74776 3.6485 8.88037L4.7085 13.1404L6.1485 8.35037C6.19202 8.25199 6.2616 8.16738 6.34973 8.10569C6.43786 8.044 6.54117 8.00758 6.6485 8.00037C6.76008 7.99593 6.86992 8.02896 6.96054 8.0942C7.05116 8.15945 7.11733 8.25315 7.1485 8.36037L8.6485 13.6204L10.1485 7.87037C10.183 7.73776 10.2687 7.62428 10.3869 7.55489C10.505 7.4855 10.6459 7.46589 10.7785 7.50037C10.9111 7.53484 11.0246 7.62059 11.094 7.73874C11.1634 7.85688 11.183 7.99776 11.1485 8.13037ZM23.1485 20.0004H14.1485V18.5004H21.6485C21.7811 18.5004 21.9083 18.4477 22.0021 18.3539C22.0958 18.2602 22.1485 18.133 22.1485 18.0004C22.1485 17.8678 22.0958 17.7406 22.0021 17.6468C21.9083 17.553 21.7811 17.5004 21.6485 17.5004H14.1485V15.5004H21.6485C21.7811 15.5004 21.9083 15.4477 22.0021 15.3539C22.0958 15.2602 22.1485 15.133 22.1485 15.0004C22.1485 14.8678 22.0958 14.7406 22.0021 14.6468C21.9083 14.553 21.7811 14.5004 21.6485 14.5004H14.1485V12.5004H21.6485C21.7811 12.5004 21.9083 12.4477 22.0021 12.3539C22.0958 12.2602 22.1485 12.133 22.1485 12.0004C22.1485 11.8678 22.0958 11.7406 22.0021 11.6468C21.9083 11.553 21.7811 11.5004 21.6485 11.5004H14.1485V9.50037H21.6485C21.7811 9.50037 21.9083 9.44769 22.0021 9.35392C22.0958 9.26015 22.1485 9.13297 22.1485 9.00037C22.1485 8.86776 22.0958 8.74058 22.0021 8.64681C21.9083 8.55304 21.7811 8.50037 21.6485 8.50037H14.1485V6.50037H21.6485C21.7811 6.50037 21.9083 6.44769 22.0021 6.35392C22.0958 6.26015 22.1485 6.13298 22.1485 6.00037C22.1485 5.86776 22.0958 5.74058 22.0021 5.64681C21.9083 5.55305 21.7811 5.50037 21.6485 5.50037H14.1485V4.00037H23.1485V20.0004Z" fill="#BBBBBB"/>
</g>
<defs>
<clipPath id="clip0_1827_19272">
<rect width="24" height="24" fill="white" transform="translate(0.148438)"/>
</clipPath>
</defs>
</svg>
