<svg xmlns="http://www.w3.org/2000/svg" width="43" height="43" viewBox="0 0 43 43" fill="none">
  <g clip-path="url(#clip0_1371_11684)">
    <path d="M35.4495 30.9839H8.46142C8.0491 30.9839 7.66389 30.7743 7.43174 30.424C3.87096 25.0543 3.5978 14.7248 3.57713 13.1915C3.57584 13.1314 3.5752 13.0706 3.5752 13.0102C3.5752 12.3033 4.13185 11.7298 4.81927 11.7285H4.82186C5.50799 11.7285 6.06561 12.2993 6.06819 13.0052C6.06819 13.0138 6.06852 13.0895 6.07142 13.2237C6.1812 16.8705 9.10041 19.8021 12.6728 19.8021C16.3146 19.8021 19.2774 16.7553 19.2774 13.0102C19.2774 12.3023 19.8357 11.7285 20.5238 11.7285H23.3868C24.0752 11.7285 24.6331 12.3023 24.6331 13.0102C24.6331 16.7553 27.5963 19.8021 31.2381 19.8021C34.8137 19.8021 37.7349 16.8652 37.8398 13.2137C37.8421 13.0856 37.8427 13.0138 37.8427 13.0055C37.8453 12.2993 38.4026 11.7285 39.0891 11.7285H39.0913C39.7787 11.7298 40.3354 12.3033 40.3354 13.0102C40.3354 13.071 40.3347 13.1314 40.3338 13.1918C40.3128 14.7248 40.0396 25.0546 36.4792 30.4244C36.247 30.7743 35.8615 30.9839 35.4495 30.9839Z" fill="#F79C6E"/>
    <path d="M39.0913 11.7285C39.0906 11.7285 39.09 11.7285 39.089 11.7285C38.4029 11.7285 37.8452 12.2993 37.8426 13.0052C37.8426 13.0139 37.8423 13.0856 37.8397 13.2138C37.7348 16.8649 34.8136 19.8022 31.238 19.8022C27.5961 19.8022 24.6333 16.7554 24.6333 13.0102C24.6333 12.3023 24.075 11.7285 23.3869 11.7285H21.9556V30.9839H35.4494C35.8617 30.9839 36.2469 30.7743 36.4791 30.4244C40.0399 25.0545 40.3131 14.7246 40.3337 13.1915C40.335 13.1314 40.3357 13.0706 40.3357 13.0102C40.3353 12.3033 39.7787 11.7298 39.0913 11.7285Z" fill="#F6844B"/>
    <path d="M21.9553 7.35156C19.5423 7.35156 17.5791 9.31483 17.5791 11.728C17.5791 14.1411 19.5423 16.104 21.9553 16.104C24.3683 16.104 26.3315 14.1411 26.3315 11.728C26.3315 9.31483 24.3683 7.35156 21.9553 7.35156Z" fill="#F6844B"/>
    <path d="M21.9556 7.35156V16.104C24.3688 16.1036 26.3318 14.1408 26.3318 11.7278C26.3318 9.31475 24.3684 7.35191 21.9556 7.35156Z" fill="#F47434"/>
    <path d="M4.88846 9.97656C2.71665 9.97656 0.949707 11.9398 0.949707 14.3528C0.949707 16.7658 2.71665 18.729 4.88846 18.729C7.06026 18.729 8.82689 16.7658 8.82689 14.3528C8.82689 11.9398 7.06026 9.97656 4.88846 9.97656Z" fill="#F6844B"/>
    <path d="M39.0224 9.97656C36.8506 9.97656 35.084 11.9398 35.084 14.353C35.084 16.7657 36.8506 18.729 39.0224 18.729C41.1942 18.729 42.9612 16.7657 42.9612 14.353C42.9612 11.9398 41.1942 9.97656 39.0224 9.97656Z" fill="#F47434"/>
    <path d="M35.5764 35.3589H8.33424C7.63937 35.3589 7.07617 34.7685 7.07617 34.0401V30.1074H36.8344V34.0401C36.8344 34.7685 36.2712 35.3589 35.5764 35.3589Z" fill="#F6844B"/>
    <path d="M21.9556 35.3589H35.5766C36.2715 35.3589 36.8347 34.7685 36.8347 34.0401V30.1074H21.9556V35.3589Z" fill="#F47434"/>
  </g>
  <defs>
    <clipPath id="clip0_1371_11684">
      <rect width="42.0117" height="42.0117" fill="white" transform="translate(0.949707 0.349609)"/>
    </clipPath>
  </defs>
</svg>