<svg width="54" height="54" viewBox="0 0 54 54" fill="none" xmlns="http://www.w3.org/2000/svg">
<g id="key 1" clip-path="url(#clip0_1371_11725)">
<path id="Vector" d="M9.75228 32.3904C9.5684 32.2065 9.45476 31.9528 9.45495 31.6724L9.45492 27.1175C9.45491 26.5568 9.90947 26.1022 10.4702 26.1022C11.031 26.1022 11.4855 26.5568 11.4855 27.1175L11.4856 31.6724C11.4856 32.2332 11.031 32.6877 10.4703 32.6877C10.1897 32.6877 9.93597 32.5741 9.75228 32.3904Z" fill="#3BA7F5"/>
<path id="Vector_2" d="M14.7034 32.3919C14.5198 32.2082 14.3981 31.962 14.3827 31.6972L14.1297 27.3954C14.0985 26.8658 14.5026 26.4617 15.0322 26.4929C15.5618 26.5241 16.0163 26.9786 16.0475 27.5082L16.3005 31.8101C16.3317 32.3397 15.9277 32.7437 15.3981 32.7126C15.1333 32.6972 14.8871 32.5755 14.7034 32.3919Z" fill="#3BA7F5"/>
<path id="Vector_3" d="M16.4152 27.0831C16.4152 26.5409 15.9756 26.1013 15.4336 26.1015L10.4582 26.1013C10.1978 26.1013 9.94811 26.2047 9.76401 26.3888C9.57992 26.5729 9.47635 26.8228 9.47654 27.0831L9.47646 30.4651L16.4155 30.4648L16.4152 27.0831Z" fill="#259DF4"/>
<path id="Vector_4" d="M44.2449 28.2152C44.2376 27.3198 44.0289 26.4383 43.6374 25.6353C44.0153 24.8395 44.2092 23.9615 44.2015 23.0651C44.1744 19.7913 41.4883 17.1056 38.2151 17.0783C35.783 17.0576 33.3346 18.2959 30.9379 20.7591C30.1836 21.5344 29.5591 22.3066 29.1086 22.9077L11.9983 22.7644C10.5623 22.7524 9.40405 23.9107 9.41604 25.3467L9.42975 26.9891C9.43188 27.2443 9.43778 27.951 9.43778 27.951L29.1482 28.1156C29.6109 28.7274 30.2505 29.513 31.0177 30.3009C33.4568 32.8012 35.9253 34.0827 38.3574 34.103C41.6312 34.1302 44.2724 31.489 44.2449 28.2152ZM37.799 25.5855C37.8048 26.3666 38.1572 27.103 38.7646 27.6043C38.9359 27.7459 39.0353 27.953 39.0373 28.1714C39.0405 28.5739 38.716 28.8984 38.3137 28.8952C36.9143 28.8834 35.053 27.1971 33.7024 25.5525C35.0252 23.93 36.8579 22.2746 38.2587 22.2864C38.4527 22.2879 38.6362 22.3653 38.7753 22.5045C38.9147 22.6438 38.9921 22.8273 38.9936 23.0227C38.9957 23.2412 38.9004 23.4455 38.7316 23.5836C38.1325 24.0749 37.7927 24.8048 37.799 25.5855Z" fill="#1B99F3"/>
<path id="Vector_5" d="M38.7407 27.7478C38.9097 27.8873 39.0072 28.092 39.0083 28.3081C39.0099 28.7066 38.6871 29.0294 38.289 29.0277C36.9032 29.022 35.0672 27.36 33.7368 25.7372L9.68999 25.6372L9.69673 27.2606C9.69778 27.5133 9.70069 28.213 9.70069 28.213L29.2167 28.294C29.6723 28.8979 30.3023 29.6731 31.0587 30.4501C33.4634 32.9156 35.9024 34.1743 38.3104 34.1843C41.5521 34.1978 44.1783 31.5716 44.1647 28.3301C44.1608 27.4436 43.9582 26.5716 43.5738 25.7779L37.793 25.7539C37.796 26.5271 38.1417 27.2543 38.7407 27.7478Z" fill="#3BA7F5"/>
</g>
<defs>
<clipPath id="clip0_1371_11725">
<rect width="37.3437" height="37.3437" fill="white" transform="translate(27.3867 0.513672) rotate(45)"/>
</clipPath>
</defs>
</svg>
