<svg
				xmlns="http://www.w3.org/2000/svg"
				width="143"
				height="34"
				viewBox="0 0 143 34"
				fill="none">
				<path
					d="M117.481 29.2721H112.602V13.413L112.489 13.3792C112.088 14.7914 111.682 16.2037 111.271 17.6159C110.224 21.2834 109.163 24.9475 108.149 28.6234C107.999 29.1708 107.776 29.3482 107.232 29.3194C106.279 29.2671 105.095 29.61 104.438 29.159C103.841 28.7518 103.803 27.5119 103.549 26.625C102.38 22.5617 101.218 18.4949 100.062 14.4248C99.9933 14.1314 99.8676 13.8543 99.6925 13.6089V29.2721H94.7124V7.71662H99.4543C101.787 7.71662 101.784 7.71662 102.449 9.92792C103.561 13.6365 104.68 17.3428 105.806 21.0469C105.884 21.3054 105.994 21.5537 106.166 22.02C106.916 19.5147 107.607 17.2206 108.291 14.9249C108.931 12.7744 109.577 10.6256 110.193 8.46836C110.344 7.9413 110.55 7.68621 111.168 7.69973C113.249 7.74365 115.33 7.71662 117.484 7.71662L117.481 29.2721Z"
					fill="white"
				/>
				<path
					d="M19.3239 21.6095C19.6415 20.1105 19.9585 18.6132 20.2749 17.1176C20.8814 14.234 21.4997 11.3554 22.074 8.46671C22.1906 7.88053 22.4119 7.6947 23.015 7.71329C24.5539 7.75721 26.0929 7.7268 27.767 7.7268C25.8429 14.9908 23.9542 22.1112 22.0504 29.3009C20.5706 29.3009 19.1093 29.3262 17.6582 29.2722C17.4572 29.2722 17.1514 28.8904 17.0974 28.6387C16.2933 25.3124 15.5246 21.9761 14.7458 18.6431C14.5185 17.5578 14.2136 16.4903 13.8336 15.4486C12.757 20.0469 11.6809 24.6547 10.6054 29.2722H5.63037C3.78058 22.1433 1.93079 14.9874 0.0556641 7.73187C1.8345 7.73187 3.51705 7.71329 5.19791 7.75721C5.38035 7.75721 5.66077 8.11027 5.7047 8.34002C6.22838 10.7236 6.71828 13.1157 7.20987 15.506C7.62543 17.5079 8.03593 19.5097 8.64577 21.5419C8.84173 20.7547 9.0529 19.9726 9.23196 19.1769C10.0513 15.5652 10.8773 11.9551 11.6612 8.33495C11.7727 7.82816 11.999 7.70653 12.4568 7.71666C13.413 7.73694 14.3725 7.75721 15.3287 7.71666C15.9115 7.68964 16.0872 7.94641 16.2003 8.46503C17.1531 12.8488 18.1312 17.2258 19.1026 21.6044L19.3239 21.6095Z"
					fill="#EC2227"
				/>
				<path
					d="M30.3804 29.4681V7.78925H35.7507V15.7797H42.8998V7.79093H48.4458V9.23529C48.4458 12.6392 48.4458 16.0432 48.4357 19.4471C48.4357 19.763 48.3985 20.1583 48.216 20.3847C46.722 22.2017 44.9555 23.7763 42.9792 25.0522V20.753C42.5991 20.7293 42.3035 20.6955 42.0095 20.6938C40.2662 20.6938 38.5211 20.7226 36.7727 20.6753C36.026 20.655 35.7405 20.834 35.7591 21.6432C35.8182 23.64 35.7912 25.6384 35.7591 27.6352C35.7591 27.9072 35.5716 28.3751 35.3925 28.4173C33.7742 28.8025 32.1288 29.1133 30.3804 29.4681Z"
					fill="#EC2227"
				/>
				<path
					d="M76.1182 7.64905C79.6083 7.74196 83.0528 7.63891 86.455 7.97002C90.9283 8.40755 92.545 12.4281 92.2916 15.5381C92.0382 18.6481 90.685 21.128 87.4889 22.074C86.3064 22.4254 84.9988 22.4271 83.7437 22.5284C82.9632 22.5909 82.176 22.5403 81.2672 22.5403V29.2688H76.1182V7.64905ZM81.257 12.4467C81.257 14.2069 81.2435 15.7256 81.2756 17.2409C81.2756 17.4098 81.5543 17.7055 81.6996 17.7021C82.9041 17.6818 84.1204 17.7021 85.3046 17.518C86.455 17.349 87.0361 16.4385 87.0615 15.1766C87.0868 13.9147 86.5733 13.0025 85.3891 12.7879C84.0799 12.548 82.7284 12.548 81.257 12.4382V12.4467Z"
					fill="#EC2227"
				/>
				<path
					d="M133.269 15.9266V20.6567H126.906V24.4965H132.48C133.572 24.4965 133.572 24.4965 133.572 25.5979C133.572 26.8007 133.572 28.0035 133.572 29.2502H121.578V7.77911H133.572C133.572 9.22685 133.59 10.6796 133.543 12.1308C133.543 12.276 133.127 12.5244 132.901 12.5294C131.212 12.5632 129.522 12.548 127.833 12.548H126.884V15.9266H133.269Z"
					fill="white"
				/>
				<path
					d="M137.09 23.3072H142.766C142.766 23.716 142.741 24.0758 142.766 24.4306C142.81 24.9374 142.628 25.184 142.114 25.3175C141.12 25.5661 140.156 25.9259 139.242 26.3902L141.422 27.0439C142.932 27.4984 142.993 27.6082 142.641 29.2687H137.067V28.0406H140.707C140.721 27.9764 140.732 27.9122 140.746 27.848C139.732 27.5507 138.702 27.2821 137.705 26.9375C137.558 26.8797 137.424 26.793 137.31 26.6825C137.197 26.5719 137.107 26.4398 137.046 26.2939C136.893 25.8192 137.295 25.7229 137.676 25.6182C138.746 25.3431 139.798 25.0046 140.827 24.6046H137.09V23.3072Z"
					fill="white"
				/>
				<path
					d="M142.891 19.3441C142.898 19.7452 142.824 20.1436 142.673 20.5155C142.523 20.8875 142.299 21.2253 142.015 21.509C141.732 21.7927 141.394 22.0164 141.022 22.1669C140.65 22.3174 140.252 22.3915 139.851 22.3849C139.055 22.3716 138.297 22.0472 137.738 21.4813C137.179 20.9154 136.864 20.153 136.86 19.3576C136.845 17.6683 138.237 16.2476 139.883 16.2797C141.631 16.3118 142.901 17.6159 142.891 19.3441ZM139.911 20.9337C140.898 20.9236 141.65 20.1854 141.619 19.2596C141.591 18.3863 140.803 17.6818 139.874 17.692C138.945 17.7021 138.127 18.4893 138.156 19.3813C138.185 20.2732 138.955 20.9439 139.911 20.9337Z"
					fill="white"
				/>
				<path
					d="M140.623 15.6039C140.555 14.9164 140.438 14.3015 141.168 13.7727C141.844 13.2811 141.775 12.2828 141.168 11.6848C140.519 11.0361 139.31 11.0293 138.634 11.6696C137.999 12.2828 137.899 13.2271 138.575 13.7508C139.251 14.2745 139.158 14.8758 139.114 15.5381C137.891 15.4941 136.85 14.2187 136.849 12.7845C136.849 11.2236 138.07 9.87382 139.582 9.76908C141.285 9.65083 142.694 10.7573 142.871 12.352C143.048 13.9467 142.092 15.3759 140.623 15.6039Z"
					fill="white"
				/>
				<path
					d="M138.241 8.96331H137.075V7.74194H138.241V8.96331Z"
					fill="white"
				/>
				<path
					d="M74.4832 9.53094C74.0676 3.85994 68.3392 -0.856591 61.7593 0.942517C58.6983 1.78717 56.6171 3.7873 55.2454 6.62871C53.9277 9.35694 52.9395 12.3352 50.0727 14.0127C51.1471 14.234 51.1471 14.234 54.5561 12.7474C51.1623 30.806 29.4497 32.323 29.4497 32.323C54.9835 37.8977 67.4236 20.9067 67.4236 20.9067C67.3391 22.9913 66.263 24.5607 65.0704 26.1976C65.29 26.1976 65.3542 26.2162 65.3947 26.1976C65.5636 26.103 65.7326 26.0033 65.9015 25.8935C67.7307 24.6752 69.3317 23.1451 70.6315 21.373C73.2027 17.8474 74.8075 13.9738 74.4832 9.53094ZM64.496 14.9806C63.6316 14.9779 62.7875 14.7184 62.0709 14.235C61.3543 13.7517 60.7974 13.0663 60.471 12.266C60.1446 11.4656 60.0634 10.5862 60.2376 9.73958C60.4119 8.89294 60.8337 8.11716 61.4497 7.51072C62.0657 6.90428 62.8479 6.49452 63.6972 6.33347C64.5464 6.17241 65.4244 6.26732 66.2196 6.60615C67.0148 6.94497 67.6914 7.51244 68.1635 8.2365C68.6357 8.96057 68.882 9.80858 68.8713 10.6729C68.8553 11.8221 68.3871 12.9187 67.5681 13.7251C66.7491 14.5314 65.6453 14.9825 64.496 14.9806Z"
					fill="url(#paint0_linear_643_11813)"
				/>
				<defs>
					<linearGradient
						id="paint0_linear_643_11813"
						x1="28.3297"
						y1="34.0073"
						x2="67.2259"
						y2="11.2321"
						gradientUnits="userSpaceOnUse">
						<stop stop-color="#FDBB14" />
						<stop offset="1" stop-color="#EC2227" />
					</linearGradient>
				</defs>
			</svg>