<svg width="43" height="43" viewBox="0 0 43 43" fill="none" xmlns="http://www.w3.org/2000/svg">
<g id="star 1">
<path id="Vector" d="M36.0891 22.1724C38.8906 19.7947 40.2913 18.6059 39.9203 17.4852C39.5493 16.3644 37.7159 16.2461 34.0491 16.0095L29.6388 15.725C28.5658 15.6557 28.0294 15.6211 27.6193 15.3234C27.2093 15.0258 27.0102 14.5264 26.6121 13.5277L24.9231 9.29079C23.5462 5.83661 22.8577 4.10952 21.671 4.10952C20.4844 4.10952 19.7959 5.8366 18.4189 9.29077L16.7298 13.528C16.3317 14.5266 16.1327 15.0259 15.7227 15.3235C15.3128 15.6212 14.7764 15.6559 13.7036 15.7252L9.30678 16.0095C5.64698 16.2462 3.81708 16.3645 3.4457 17.4841C3.07432 18.6037 4.47073 19.7922 7.26355 22.1693L10.7034 25.097C11.512 25.7852 11.9163 26.1293 12.0683 26.6069C12.2202 27.0844 12.089 27.5989 11.8268 28.6278L10.7007 33.0453C9.78021 36.6566 9.31995 38.4622 10.2811 39.1601C11.2422 39.858 12.8167 38.8614 15.9656 36.8682L19.7986 34.4421C20.7086 33.8661 21.1636 33.5781 21.6711 33.5781C22.1785 33.5781 22.6335 33.8661 23.5435 34.4421L27.3764 36.8682C30.5254 38.8614 32.0999 39.858 33.061 39.1601C34.0221 38.4622 33.5618 36.6566 32.6413 33.0453L31.5161 28.6311C31.2534 27.6006 31.1221 27.0854 31.2746 26.6073C31.427 26.1293 31.8324 25.7852 32.6432 25.0971L36.0891 22.1724Z" fill="#3BF5BD"/>
<path id="Vector_2" d="M32.643 25.0971C31.8322 25.7852 31.4269 26.1293 31.2744 26.6073C31.1219 27.0854 31.2533 27.6006 31.5159 28.6311L32.6411 33.0453C33.5617 36.6566 34.0219 38.4622 33.0608 39.1601C32.0997 39.858 30.5252 38.8614 27.3762 36.8682L23.2995 34.2878C22.5031 33.7837 22.1049 33.5317 21.8879 33.1375C21.6709 32.7433 21.6709 32.272 21.6709 31.3296V15.0056C21.6709 11.3967 21.6709 9.5922 22.1055 9.0968C22.6336 8.49485 23.5028 8.32799 24.2162 8.6916C24.8034 8.99084 25.4716 10.667 26.808 14.0194C27.0143 14.5369 27.1174 14.7957 27.2789 14.9982C27.4763 15.2458 27.7372 15.4352 28.0338 15.5462C28.2764 15.6371 28.5544 15.655 29.1104 15.6909L34.049 16.0095C37.7158 16.2461 39.5492 16.3644 39.9201 17.4852C40.2911 18.6059 38.8904 19.7947 36.089 22.1724L32.643 25.0971Z" fill="#0CF3AD"/>
</g>
</svg>
