<svg width="52" height="52" viewBox="0 0 52 52" fill="none" xmlns="http://www.w3.org/2000/svg">
<g id="Group 1000008539">
<g id="Group 1000008511">
<circle id="Ellipse 263" cx="26.347" cy="25.7963" r="25.0884" stroke="white" stroke-width="0.82257"/>
</g>
<path id="Vector" d="M38.548 16.0241C35.7438 13.7705 31.3095 13.3888 31.1221 13.3726C30.826 13.3471 30.5448 13.5148 30.4234 13.7856C30.4187 13.7948 30.1712 14.5132 29.9317 15.2062C33.1906 15.7765 35.4048 17.0421 35.5228 17.1115C36.0758 17.4331 36.2609 18.1423 35.9381 18.6941C35.7241 19.062 35.3366 19.2679 34.9386 19.2679C34.7408 19.2679 34.5418 19.2182 34.359 19.1117C34.3266 19.0921 31.0782 17.2434 26.8429 17.2434C22.6065 17.2434 19.3568 19.0932 19.3245 19.1117C18.7726 19.4322 18.0646 19.2436 17.7442 18.6906C17.4237 18.14 17.61 17.4331 18.1607 17.1115C18.2787 17.0421 20.501 15.7719 23.7691 15.2027C23.5169 14.5017 23.2624 13.7948 23.2578 13.7856C23.1363 13.5137 22.8552 13.3425 22.559 13.3726C22.3716 13.3876 17.9374 13.7694 15.0961 16.0542C13.6107 17.4262 10.6445 25.4479 10.6445 32.3832C10.6445 32.5059 10.6758 32.625 10.7371 32.7315C12.7859 36.3293 18.3712 37.271 19.6438 37.3115C19.6518 37.3126 19.6588 37.3126 19.6657 37.3126C19.8902 37.3126 20.1019 37.205 20.2349 37.0234L21.6116 35.1586C18.5922 34.4309 16.9957 33.2868 16.8997 33.2162C16.386 32.8379 16.275 32.1137 16.6533 31.5989C17.0304 31.0864 17.7523 30.973 18.2659 31.349C18.3087 31.3768 21.2553 33.4395 26.8406 33.4395C32.4479 33.4395 35.3863 31.3687 35.4152 31.3479C35.9289 30.9753 36.6531 31.0876 37.029 31.6035C37.4039 32.1172 37.2951 32.8367 36.7838 33.2139C36.6878 33.2844 35.0994 34.4263 32.0869 35.1539L33.4463 37.0223C33.5793 37.205 33.791 37.3115 34.0154 37.3115C34.0235 37.3115 34.0305 37.3115 34.0374 37.3103C35.3111 37.2698 40.8964 36.3281 42.9441 32.7303C43.0054 32.6239 43.0366 32.5047 43.0366 32.3821C43.0366 25.4479 40.0704 17.4262 38.548 16.0241ZM22.2131 29.9689C20.9348 29.9689 19.8994 28.6744 19.8994 27.0767C19.8994 25.4791 20.9348 24.1846 22.2131 24.1846C23.4915 24.1846 24.5269 25.4791 24.5269 27.0767C24.5269 28.6744 23.4915 29.9689 22.2131 29.9689ZM31.468 29.9689C30.1897 29.9689 29.1543 28.6744 29.1543 27.0767C29.1543 25.4791 30.1897 24.1846 31.468 24.1846C32.7464 24.1846 33.7817 25.4791 33.7817 27.0767C33.7817 28.6744 32.7464 29.9689 31.468 29.9689Z" fill="white"/>
</g>
</svg>
