<svg width="52" height="52" viewBox="0 0 52 52" fill="none" xmlns="http://www.w3.org/2000/svg">
<circle cx="26.3785" cy="25.7963" r="25.0884" stroke="white" stroke-width="0.82257"/>
<g clip-path="url(#clip0_1467_67644)">
<path d="M18.9396 37.7572H13.2174V20.9319H18.9396V37.7572ZM16.0797 18.6885C14.4969 18.6885 13.2174 17.4311 13.2174 15.8832C13.2174 14.3352 14.4992 13.0801 16.0797 13.0801C17.6567 13.0801 18.9396 14.3375 18.9396 15.8832C18.9396 17.4311 17.6567 18.6885 16.0797 18.6885ZM39.5397 37.7572H34.0383V29.5689C34.0383 27.616 34.0005 25.1046 31.1783 25.1046C28.3138 25.1046 27.8732 27.2313 27.8732 29.4275V37.7572H22.373V20.9195H27.6534V23.2201H27.7278C28.4626 21.8965 30.2582 20.5012 32.9362 20.5012C38.5097 20.5012 39.5397 23.9885 39.5397 28.5223V37.7572Z" fill="white"/>
</g>
<defs>
<clipPath id="clip0_1467_67644">
<rect width="27.6384" height="27.6384" fill="white" transform="translate(10.5842 11.9785)"/>
</clipPath>
</defs>
</svg>
