<svg width="52" height="52" viewBox="0 0 52 52" fill="none" xmlns="http://www.w3.org/2000/svg">
<g id="Group 1000008541">
<g id="Group 607">
<circle id="Ellipse 263" cx="26.2845" cy="25.7963" r="25.0884" stroke="white" stroke-width="0.82257"/>
</g>
<path id="Vector" d="M41.0438 16.6421C39.9573 17.1246 38.7902 17.4493 37.5653 17.5957C38.8164 16.8464 39.7757 15.6601 40.2275 14.2455C39.0582 14.9392 37.7617 15.4432 36.3812 15.7157C35.2765 14.5384 33.703 13.8027 31.9615 13.8027C28.617 13.8027 25.9059 16.5149 25.9059 19.8583C25.9059 20.3329 25.9604 20.7961 26.0626 21.2377C21.0299 20.9857 16.5682 18.5743 13.5801 14.9096C13.0602 15.8042 12.7616 16.8442 12.7616 17.9556C12.7616 20.0559 13.8299 21.9098 15.4545 22.9951C14.4622 22.9633 13.5279 22.6909 12.7116 22.2379C12.7116 22.264 12.7116 22.2878 12.7116 22.314C12.7116 25.2487 14.7983 27.6963 17.5695 28.2515C17.062 28.39 16.5262 28.4638 15.9733 28.4638C15.5839 28.4638 15.2036 28.4252 14.8346 28.3559C15.6055 30.7616 17.842 32.5133 20.4917 32.5622C18.4198 34.1867 15.8087 35.1551 12.9705 35.1551C12.4823 35.1551 11.9998 35.1268 11.5253 35.07C14.2057 36.7877 17.3879 37.7901 20.8085 37.7901C31.9479 37.7901 38.0375 28.5626 38.0375 20.5599C38.0375 20.2977 38.0319 20.0366 38.0205 19.7766C39.2046 18.9217 40.232 17.8557 41.0438 16.6421Z" fill="white"/>
</g>
</svg>
