<svg width="52" height="52" viewBox="0 0 52 52" fill="none" xmlns="http://www.w3.org/2000/svg">
<g clip-path="url(#clip0_1467_67634)">
<path d="M20.0105 11.9277C15.6651 11.9277 12.1298 15.4631 12.1298 19.8085V32.4178C12.1298 36.7632 15.6651 40.2986 20.0105 40.2986H32.6198C36.9653 40.2986 40.5006 36.7632 40.5006 32.4178V19.8085C40.5006 15.4631 36.9653 11.9277 32.6198 11.9277H20.0105ZM20.0105 15.08H32.6198C35.2268 15.08 37.3483 17.2016 37.3483 19.8085V32.4178C37.3483 35.0247 35.2268 37.1462 32.6198 37.1462H20.0105C17.4036 37.1462 15.2821 35.0247 15.2821 32.4178V19.8085C15.2821 17.2016 17.4036 15.08 20.0105 15.08ZM34.196 16.6562C33.7779 16.6562 33.377 16.8223 33.0814 17.1178C32.7859 17.4134 32.6198 17.8143 32.6198 18.2324C32.6198 18.6504 32.7859 19.0513 33.0814 19.3469C33.377 19.6425 33.7779 19.8085 34.196 19.8085C34.614 19.8085 35.0149 19.6425 35.3105 19.3469C35.6061 19.0513 35.7721 18.6504 35.7721 18.2324C35.7721 17.8143 35.6061 17.4134 35.3105 17.1178C35.0149 16.8223 34.614 16.6562 34.196 16.6562ZM26.3152 18.2324C21.9697 18.2324 18.4344 21.7677 18.4344 26.1131C18.4344 30.4586 21.9697 33.9939 26.3152 33.9939C30.6606 33.9939 34.196 30.4586 34.196 26.1131C34.196 21.7677 30.6606 18.2324 26.3152 18.2324ZM26.3152 21.3847C28.9221 21.3847 31.0436 23.5062 31.0436 26.1131C31.0436 28.7201 28.9221 30.8416 26.3152 30.8416C23.7082 30.8416 21.5867 28.7201 21.5867 26.1131C21.5867 23.5062 23.7082 21.3847 26.3152 21.3847Z" fill="white"/>
</g>
<circle cx="26.3158" cy="25.7963" r="25.0884" stroke="white" stroke-width="0.82257"/>
<defs>
<clipPath id="clip0_1467_67634">
<rect width="36.6638" height="36.6638" fill="white" transform="translate(7.98376 7.46484)"/>
</clipPath>
</defs>
</svg>
