<svg width="301" height="228" viewBox="0 0 301 228" fill="none" xmlns="http://www.w3.org/2000/svg">
<g filter="url(#filter0_d_6463_16541)">
<path d="M84.6886 13.8578C84.7305 6.29596 90.8946 0.191131 98.4564 0.222287L201.455 0.646652C209.017 0.677808 215.113 6.83314 215.071 14.395L214.87 50.8366C214.828 58.3984 208.664 64.5033 201.102 64.4721L98.1028 64.0477C90.5409 64.0166 84.4448 57.8613 84.4867 50.2994L84.6886 13.8578Z" fill="url(#paint0_linear_6463_16541)" fill-opacity="0.93"/>
<path d="M138.909 34.8341C139.168 35.3205 139.453 35.7458 139.765 36.1102C140.088 36.4749 140.444 36.7603 140.834 36.9664C141.223 37.1725 141.645 37.2808 142.1 37.2914C142.63 37.3037 143.064 37.1783 143.403 36.9152C143.742 36.6521 143.917 36.2867 143.928 35.819C143.938 35.4128 143.842 35.0842 143.639 34.8332C143.448 34.5824 143.151 34.36 142.75 34.1659C142.361 33.9598 141.88 33.7393 141.307 33.5043C141.002 33.3864 140.648 33.2304 140.247 33.0363C139.858 32.8302 139.488 32.5753 139.138 32.2716C138.789 31.9556 138.503 31.5795 138.279 31.1433C138.056 30.6947 137.953 30.1627 137.968 29.5473C137.986 28.8088 138.186 28.1791 138.568 27.6584C138.963 27.1257 139.484 26.7252 140.131 26.457C140.791 26.1768 141.521 26.0459 142.321 26.0645C143.146 26.0837 143.85 26.2417 144.434 26.5385C145.03 26.8233 145.52 27.1857 145.903 27.6256C146.299 28.0536 146.603 28.4978 146.813 28.9584L144.717 30.055C144.552 29.7433 144.35 29.4615 144.109 29.2096C143.882 28.9457 143.616 28.7363 143.312 28.5815C143.008 28.4143 142.659 28.3262 142.265 28.317C141.749 28.305 141.358 28.4191 141.093 28.6592C140.829 28.8871 140.693 29.1611 140.685 29.4811C140.677 29.8011 140.775 30.0866 140.978 30.3377C141.182 30.5764 141.496 30.8116 141.921 31.0431C142.347 31.2624 142.883 31.4904 143.53 31.7271C143.945 31.8845 144.341 32.0784 144.717 32.3088C145.105 32.5395 145.449 32.8185 145.749 33.1457C146.062 33.4608 146.299 33.8358 146.461 34.2706C146.635 34.6934 146.715 35.1817 146.702 35.7356C146.686 36.3634 146.549 36.9206 146.291 37.4072C146.033 37.8938 145.684 38.3045 145.245 38.6391C144.806 38.9614 144.313 39.2025 143.767 39.3622C143.234 39.5345 142.671 39.6138 142.08 39.6001C141.293 39.5818 140.558 39.417 139.876 39.1055C139.206 38.7821 138.626 38.356 138.134 37.8273C137.642 37.2986 137.261 36.7295 136.993 36.1197L138.909 34.8341Z" fill="#303030"/>
<path d="M149.773 33.7379L149.831 31.3562L159.322 31.5766L159.263 33.9584L149.773 33.7379ZM157.761 26.6818L160.401 26.7431L160.084 39.6673L157.443 39.606L157.761 26.6818ZM149.083 26.4802L151.723 26.5415L151.406 39.4657L148.765 39.4044L149.083 26.4802Z" fill="#303030"/>
<path d="M164.729 36.8379L165.094 34.7589L171.298 34.903L171.56 36.9966L164.729 36.8379ZM168.25 31.119L166.202 35.5235L166.243 36.1157L164.453 39.7688L161.481 39.6998L168.372 26.1708L174.59 40.0043L171.599 39.9348L170.025 36.3144L170.078 35.6505L168.25 31.119Z" fill="#303030"/>
<path d="M179.076 34.0861L181.864 34.1508L185.926 40.2676L182.805 40.1951L179.076 34.0861ZM176.31 27.1127L178.95 27.174L178.632 40.0982L175.992 40.0368L176.31 27.1127ZM177.861 29.4025L177.916 27.15L180.649 27.2134C181.671 27.2372 182.534 27.4297 183.24 27.7909C183.945 28.1521 184.481 28.6449 184.847 29.2692C185.214 29.8935 185.387 30.618 185.367 31.4427C185.347 32.255 185.138 32.9707 184.741 33.5896C184.344 34.1961 183.785 34.6635 183.062 34.9915C182.34 35.3196 181.468 35.4717 180.446 35.448L177.714 35.3845L177.765 33.2797L180.332 33.3393C180.8 33.3502 181.202 33.2857 181.538 33.1457C181.886 32.9937 182.156 32.7783 182.348 32.4994C182.54 32.2083 182.641 31.8597 182.651 31.4535C182.661 31.0473 182.577 30.7005 182.399 30.4131C182.222 30.1134 181.963 29.8857 181.622 29.73C181.293 29.5623 180.895 29.473 180.427 29.4621L177.861 29.4025Z" fill="#303030"/>
<path d="M189.14 40.3423L189.195 38.1082L195.713 38.2596L195.658 40.4937L189.14 40.3423ZM189.403 29.6521L189.458 27.4181L195.976 27.5695L195.921 29.8035L189.403 29.6521ZM189.282 34.5818L189.336 32.3847L195.484 32.5275L195.43 34.7246L189.282 34.5818ZM187.76 27.3786L190.308 27.4378L189.99 40.362L187.442 40.3028L187.76 27.3786Z" fill="#303030"/>
<path d="M129.033 39.0975C125.407 48.1922 115.111 52.6322 106.035 49.0145C96.9595 45.3968 92.5409 35.0914 96.1662 25.9966C99.7914 16.9019 110.088 12.4619 119.163 16.0796C128.239 19.6973 132.658 30.0027 129.033 39.0975Z" fill="#D73B6B" fill-opacity="0.2"/>
<path d="M121.129 35.947C119.247 40.667 113.904 42.9714 109.194 41.0938C104.483 39.2163 102.19 33.8679 104.072 29.1478C105.953 24.4278 111.297 22.1235 116.007 24.001C120.717 25.8785 123.01 31.2269 121.129 35.947Z" fill="#D73B6B"/>
</g>
<path d="M29.3874 77.1201L27.8963 224.886M164.811 78.3709L163.32 226.137M98.1408 77.7551L96.6497 225.521M232.87 78.9994L231.379 226.766M62.7221 77.428L61.231 225.194M198.841 78.6851L197.35 226.451M131.475 78.063L129.984 225.829M266.9 79.3137L265.408 227.08M0.0414889 198.46L299.362 201.225M0.679091 135.259L299.999 138.023M0.354997 167.305L299.675 170.069M1.00186 103.213L300.322 105.978" stroke="#E4B5A8" stroke-width="0.411357"/>
<path d="M22 215.12L91.077 155.801L115.5 187.12L171 141.12L214.822 191.996L279 122.12" stroke="url(#paint1_linear_6463_16541)" stroke-width="8" stroke-linecap="round"/>
<g filter="url(#filter1_d_6463_16541)">
<ellipse cx="171.727" cy="141.861" rx="12.0979" ry="12.1232" transform="rotate(21.7327 171.727 141.861)" fill="white"/>
<path d="M181.107 145.6C179.035 150.797 173.155 153.328 167.978 151.265C162.801 149.201 160.275 143.319 162.346 138.122C164.418 132.925 170.298 130.394 175.475 132.458C180.652 134.521 183.178 140.403 181.107 145.6Z" stroke="#D73B6B" stroke-width="4"/>
</g>
<g filter="url(#filter2_d_6463_16541)">
<ellipse cx="113.727" cy="187.861" rx="12.0979" ry="12.1232" transform="rotate(21.7327 113.727 187.861)" fill="white"/>
<path d="M123.107 191.6C121.035 196.797 115.155 199.328 109.978 197.265C104.801 195.201 102.275 189.319 104.346 184.122C106.418 178.925 112.298 176.394 117.475 178.458C122.652 180.521 125.178 186.403 123.107 191.6Z" stroke="#D73B6B" stroke-width="4"/>
</g>
<g filter="url(#filter3_d_6463_16541)">
<ellipse cx="216.727" cy="187.861" rx="12.0979" ry="12.1232" transform="rotate(21.7327 216.727 187.861)" fill="white"/>
<path d="M226.107 191.6C224.035 196.797 218.155 199.328 212.978 197.265C207.801 195.201 205.275 189.319 207.346 184.122C209.418 178.925 215.298 176.394 220.475 178.458C225.652 180.521 228.178 186.403 226.107 191.6Z" stroke="#D73B6B" stroke-width="4"/>
</g>
<g filter="url(#filter4_d_6463_16541)">
<ellipse cx="87.7041" cy="156.838" rx="12.0803" ry="12.1055" transform="rotate(21.7327 87.7041 156.838)" fill="white"/>
<path d="M97.0679 160.571C94.9999 165.759 89.1301 168.285 83.9622 166.226C78.7944 164.166 76.2723 158.294 78.3403 153.106C80.4083 147.918 86.2781 145.391 91.4459 147.451C96.6138 149.511 99.1359 155.383 97.0679 160.571Z" stroke="#D73B6B" stroke-width="4"/>
</g>
<defs>
<filter id="filter0_d_6463_16541" x="82.9034" y="0.222168" width="136.917" height="71.1098" filterUnits="userSpaceOnUse" color-interpolation-filters="sRGB">
<feFlood flood-opacity="0" result="BackgroundImageFix"/>
<feColorMatrix in="SourceAlpha" type="matrix" values="0 0 0 0 0 0 0 0 0 0 0 0 0 0 0 0 0 0 127 0" result="hardAlpha"/>
<feOffset dx="1.58303" dy="3.69374"/>
<feGaussianBlur stdDeviation="1.58303"/>
<feComposite in2="hardAlpha" operator="out"/>
<feColorMatrix type="matrix" values="0 0 0 0 0.0117647 0 0 0 0 0.278431 0 0 0 0 0.215686 0 0 0 0.31 0"/>
<feBlend mode="normal" in2="BackgroundImageFix" result="effect1_dropShadow_6463_16541"/>
<feBlend mode="normal" in="SourceGraphic" in2="effect1_dropShadow_6463_16541" result="shape"/>
</filter>
<filter id="filter1_d_6463_16541" x="157.831" y="129.738" width="31.3726" height="32.0062" filterUnits="userSpaceOnUse" color-interpolation-filters="sRGB">
<feFlood flood-opacity="0" result="BackgroundImageFix"/>
<feColorMatrix in="SourceAlpha" type="matrix" values="0 0 0 0 0 0 0 0 0 0 0 0 0 0 0 0 0 0 127 0" result="hardAlpha"/>
<feOffset dx="1.79086" dy="4.17866"/>
<feGaussianBlur stdDeviation="1.79086"/>
<feComposite in2="hardAlpha" operator="out"/>
<feColorMatrix type="matrix" values="0 0 0 0 0.875 0 0 0 0 0.73125 0 0 0 0 0.707292 0 0 0 1 0"/>
<feBlend mode="multiply" in2="BackgroundImageFix" result="effect1_dropShadow_6463_16541"/>
<feBlend mode="normal" in="SourceGraphic" in2="effect1_dropShadow_6463_16541" result="shape"/>
</filter>
<filter id="filter2_d_6463_16541" x="99.8312" y="175.738" width="31.3726" height="32.0062" filterUnits="userSpaceOnUse" color-interpolation-filters="sRGB">
<feFlood flood-opacity="0" result="BackgroundImageFix"/>
<feColorMatrix in="SourceAlpha" type="matrix" values="0 0 0 0 0 0 0 0 0 0 0 0 0 0 0 0 0 0 127 0" result="hardAlpha"/>
<feOffset dx="1.79086" dy="4.17866"/>
<feGaussianBlur stdDeviation="1.79086"/>
<feComposite in2="hardAlpha" operator="out"/>
<feColorMatrix type="matrix" values="0 0 0 0 0.875 0 0 0 0 0.73125 0 0 0 0 0.707292 0 0 0 1 0"/>
<feBlend mode="multiply" in2="BackgroundImageFix" result="effect1_dropShadow_6463_16541"/>
<feBlend mode="normal" in="SourceGraphic" in2="effect1_dropShadow_6463_16541" result="shape"/>
</filter>
<filter id="filter3_d_6463_16541" x="202.831" y="175.738" width="31.3726" height="32.0062" filterUnits="userSpaceOnUse" color-interpolation-filters="sRGB">
<feFlood flood-opacity="0" result="BackgroundImageFix"/>
<feColorMatrix in="SourceAlpha" type="matrix" values="0 0 0 0 0 0 0 0 0 0 0 0 0 0 0 0 0 0 127 0" result="hardAlpha"/>
<feOffset dx="1.79086" dy="4.17866"/>
<feGaussianBlur stdDeviation="1.79086"/>
<feComposite in2="hardAlpha" operator="out"/>
<feColorMatrix type="matrix" values="0 0 0 0 0.875 0 0 0 0 0.73125 0 0 0 0 0.707292 0 0 0 1 0"/>
<feBlend mode="multiply" in2="BackgroundImageFix" result="effect1_dropShadow_6463_16541"/>
<feBlend mode="normal" in="SourceGraphic" in2="effect1_dropShadow_6463_16541" result="shape"/>
</filter>
<filter id="filter4_d_6463_16541" x="73.8262" y="144.733" width="31.3374" height="31.9711" filterUnits="userSpaceOnUse" color-interpolation-filters="sRGB">
<feFlood flood-opacity="0" result="BackgroundImageFix"/>
<feColorMatrix in="SourceAlpha" type="matrix" values="0 0 0 0 0 0 0 0 0 0 0 0 0 0 0 0 0 0 127 0" result="hardAlpha"/>
<feOffset dx="1.79086" dy="4.17866"/>
<feGaussianBlur stdDeviation="1.79086"/>
<feComposite in2="hardAlpha" operator="out"/>
<feColorMatrix type="matrix" values="0 0 0 0 0.875 0 0 0 0 0.73125 0 0 0 0 0.707292 0 0 0 1 0"/>
<feBlend mode="multiply" in2="BackgroundImageFix" result="effect1_dropShadow_6463_16541"/>
<feBlend mode="normal" in="SourceGraphic" in2="effect1_dropShadow_6463_16541" result="shape"/>
</filter>
<linearGradient id="paint0_linear_6463_16541" x1="203.549" y1="23.6517" x2="94.6766" y2="-1.49774" gradientUnits="userSpaceOnUse">
<stop stop-color="#F4F4F4"/>
<stop offset="0.421875" stop-color="#F4F4F4"/>
<stop offset="1" stop-color="white"/>
</linearGradient>
<linearGradient id="paint1_linear_6463_16541" x1="238.131" y1="115.082" x2="26.7897" y2="175.084" gradientUnits="userSpaceOnUse">
<stop stop-color="#D73B6B"/>
<stop offset="1" stop-color="#C82442"/>
</linearGradient>
</defs>
</svg>
