<svg width="50" height="31" viewBox="0 0 50 31" fill="none" xmlns="http://www.w3.org/2000/svg">
<path id="Arrow 1" d="M3 13.6924C1.88089 13.6924 0.973667 14.5996 0.973667 15.7188C0.973667 16.8379 1.88089 17.7451 3 17.7451V13.6924ZM48.4875 17.1516C49.2789 16.3603 49.2789 15.0772 48.4875 14.2859L35.592 1.39041C34.8007 0.599083 33.5177 0.599083 32.7264 1.39041C31.935 2.18175 31.935 3.46475 32.7264 4.25608L44.189 15.7187L32.7264 27.1814C31.935 27.9728 31.935 29.2558 32.7264 30.0471C33.5177 30.8384 34.8007 30.8384 35.592 30.0471L48.4875 17.1516ZM3 17.7451L47.0547 17.7451V13.6924L3 13.6924V17.7451Z" fill="white"/>
</svg>
