<svg width="50" height="31" viewBox="0 0 50 31" fill="none" xmlns="http://www.w3.org/2000/svg">
<path id="Arrow 2" d="M47 17.7451C48.1191 17.7451 49.0263 16.8379 49.0263 15.7188C49.0263 14.5996 48.1191 13.6924 47 13.6924L47 17.7451ZM1.51246 14.2859C0.721127 15.0772 0.721127 16.3602 1.51246 17.1516L14.408 30.0471C15.1993 30.8384 16.4823 30.8384 17.2736 30.0471C18.065 29.2558 18.065 27.9727 17.2736 27.1814L5.81096 15.7187L17.2736 4.25608C18.065 3.46475 18.065 2.18174 17.2736 1.39041C16.4823 0.59908 15.1993 0.59908 14.408 1.39041L1.51246 14.2859ZM47 13.6924L2.94529 13.6924L2.94529 17.7451L47 17.7451L47 13.6924Z" fill="white"/>
</svg>
