<svg width="27" height="27" viewBox="0 0 27 27" fill="none" xmlns="http://www.w3.org/2000/svg">
<g id="bell">
<g id="Path">
<path d="M11.4378 5.81495C11.4378 4.61833 12.4079 3.64828 13.6045 3.64828C14.8011 3.64828 15.7711 4.61833 15.7711 5.81495C18.3063 7.01372 19.973 9.51372 20.1045 12.315V15.565C20.2698 16.9308 21.0739 18.137 22.2711 18.815H4.93781C6.13501 18.137 6.93914 16.9308 7.10447 15.565V12.315C7.23595 9.51372 8.90262 7.01372 11.4378 5.81495" stroke="white" stroke-width="2" stroke-linecap="round" stroke-linejoin="round"/>
<path d="M11.4378 5.81495C11.4378 4.61833 12.4079 3.64828 13.6045 3.64828C14.8011 3.64828 15.7711 4.61833 15.7711 5.81495C18.3063 7.01372 19.973 9.51372 20.1045 12.315V15.565C20.2698 16.9308 21.0739 18.137 22.2711 18.815H4.93781C6.13501 18.137 6.93914 16.9308 7.10447 15.565V12.315C7.23595 9.51372 8.90262 7.01372 11.4378 5.81495" stroke="white" stroke-opacity="0.2" stroke-width="2" stroke-linecap="round" stroke-linejoin="round"/>
</g>
<g id="Path_2">
<path d="M10.3545 18.8149V19.8983C10.3545 21.6932 11.8096 23.1483 13.6045 23.1483C15.3994 23.1483 16.8545 21.6932 16.8545 19.8983V18.8149" stroke="white" stroke-width="2" stroke-linecap="round" stroke-linejoin="round"/>
<path d="M10.3545 18.8149V19.8983C10.3545 21.6932 11.8096 23.1483 13.6045 23.1483C15.3994 23.1483 16.8545 21.6932 16.8545 19.8983V18.8149" stroke="white" stroke-opacity="0.2" stroke-width="2" stroke-linecap="round" stroke-linejoin="round"/>
</g>
</g>
</svg>
