<svg width="30" height="29" viewBox="0 0 30 29" fill="none" xmlns="http://www.w3.org/2000/svg">
<g id="Group 1000008702">
<g id="Group">
<path id="Vector" d="M17.3102 13.5789C17.6724 13.5789 17.966 13.3085 17.966 12.975C17.966 12.6415 17.6724 12.3711 17.3102 12.3711C16.9481 12.3711 16.6545 12.6415 16.6545 12.975C16.6545 13.3085 16.9481 13.5789 17.3102 13.5789Z" fill="white"/>
<path id="Vector_2" d="M12.3403 16.5173C13.0096 16.8519 13.8074 17.0298 14.6336 17.0298C14.8053 17.0298 14.9782 17.0224 15.1511 17.0063C15.7587 16.952 16.3354 16.8075 16.8664 16.579C17.1159 16.4703 17.232 16.1801 17.1233 15.9294C17.0134 15.6775 16.7207 15.5663 16.4737 15.6725C16.0402 15.8602 15.5672 15.9788 15.0646 16.0233C14.2359 16.0986 13.4295 15.959 12.7811 15.6355C12.5428 15.512 12.2402 15.6095 12.1192 15.8553C11.9969 16.0986 12.0957 16.395 12.3403 16.5173Z" fill="white"/>
<path id="Vector_3" d="M11.7849 13.5789C12.147 13.5789 12.4406 13.3085 12.4406 12.975C12.4406 12.6415 12.147 12.3711 11.7849 12.3711C11.4227 12.3711 11.1291 12.6415 11.1291 12.975C11.1291 13.3085 11.4227 13.5789 11.7849 13.5789Z" fill="white"/>
<path id="Vector_4" d="M12.3826 12.0854C12.4517 12.1175 12.5221 12.1323 12.5937 12.1323C12.7777 12.1323 12.9568 12.0286 13.0396 11.8495C13.1569 11.6025 13.0507 11.3086 12.8049 11.1913C12.2319 10.9221 11.3464 10.9196 10.7672 11.19C10.5202 11.3049 10.4128 11.5988 10.5289 11.8458C10.6437 12.0928 10.9376 12.2015 11.1846 12.0842C11.4971 11.9397 12.0738 11.9397 12.3826 12.0854Z" fill="white"/>
<path id="Vector_5" d="M18.5674 11.8511C18.6835 11.6041 18.5773 11.3102 18.3303 11.1941C17.7536 10.9261 16.8706 10.9236 16.2926 11.1941C16.0456 11.309 15.9382 11.6029 16.0543 11.8499C16.1691 12.0969 16.463 12.2055 16.71 12.0882C17.0237 11.9425 17.6004 11.9425 17.9116 12.0882C17.9796 12.1191 18.05 12.1352 18.1216 12.1352C18.3056 12.1352 18.4834 12.0302 18.5674 11.8511Z" fill="white"/>
<path id="Vector_6" d="M29.855 27.5231C28.2841 21.9719 23.6011 21.8471 22.1945 21.9435C22.0092 21.5137 21.6116 20.8295 20.8039 20.2231C22.3489 19.3303 23.6876 17.8508 23.6876 15.3821V13.3604C24.3582 13.1554 24.8534 12.5725 24.8534 11.8624V9.69256C24.8534 8.9738 24.3458 8.38843 23.6641 8.19083C23.4245 3.7894 19.4331 0.273438 14.5476 0.273438C9.69907 0.273438 5.73111 3.73629 5.43719 8.09203C4.72584 8.28716 4.20098 8.90958 4.20098 9.65427V11.9007C4.20098 12.801 4.96419 13.5333 5.90277 13.5333C6.1757 13.5333 6.39676 13.3123 6.39676 13.0393C6.39676 13.0146 6.38564 12.9936 6.38317 12.9702C6.38688 12.9467 6.39676 12.9257 6.39676 12.901V8.60578C6.39676 4.55508 10.0523 1.26018 14.5476 1.26018C19.0429 1.26018 22.6984 4.55508 22.6984 8.60578V15.3808C22.6984 19.397 18.434 20.3133 16.7792 20.5171C16.5988 20.2639 16.3086 20.0873 15.9628 20.0873H14.6155C14.0647 20.0873 13.6152 20.5121 13.6152 21.0308V21.1062C13.6152 21.6248 14.0659 22.0497 14.6155 22.0497H15.9628C16.3654 22.0497 16.7112 21.8187 16.8693 21.4927C17.2707 21.4396 17.8165 21.342 18.4266 21.1803L15.0872 24.3541L10.6129 20.1046V18.9906C11.0699 19.2821 11.554 19.5414 12.0838 19.7292C12.1394 19.7489 12.1949 19.7576 12.2493 19.7576C12.4531 19.7576 12.6432 19.6304 12.7149 19.4278C12.8063 19.1709 12.6716 18.8881 12.4148 18.798C10.0214 17.952 8.41346 15.7773 8.41346 13.3876V7.54494C9.82133 7.39798 11.0081 6.64465 11.6417 5.58257C13.0113 8.63172 16.5124 10.2187 19.8999 10.2187C20.2778 10.2187 20.6483 10.168 21.02 10.1285V14.7362C21.02 16.7763 19.832 17.9879 17.0471 18.7893C16.7841 18.8647 16.6334 19.1388 16.7088 19.4007C16.7717 19.618 16.9693 19.7588 17.1842 19.7588C17.2287 19.7588 17.2744 19.7526 17.3201 19.739C19.3331 19.1611 22.0092 18.0126 22.0092 14.7374V9.61846C22.0092 9.6024 22.0018 9.58882 21.9994 9.57276C21.9981 9.553 22.0043 9.53571 22.0018 9.51595C21.9969 9.48878 21.9821 9.46779 21.9734 9.44186C21.9697 9.43321 21.9673 9.42457 21.9636 9.41716C21.8771 9.20598 21.656 9.0689 21.435 9.10841C17.5498 9.74689 12.8964 7.93025 12.1369 3.89067C12.1369 3.88326 12.1394 3.87585 12.1394 3.86844C12.1394 3.59551 11.9171 3.37445 11.6454 3.37445C11.3737 3.37445 11.1514 3.59551 11.1514 3.86844C11.1514 5.37633 9.70154 6.60266 7.92071 6.60266C7.64778 6.60266 7.42672 6.82372 7.42672 7.09665V13.3888C7.42672 15.2487 8.26156 16.9838 9.6262 18.2373V20.0416C8.6444 20.685 8.18623 21.4717 7.98122 21.9459C6.57336 21.8508 1.89282 21.9756 0.321939 27.5255C0.246606 27.7873 0.399742 28.0615 0.661556 28.1356C0.70725 28.148 0.751709 28.1541 0.796168 28.1541C1.01229 28.1541 1.20988 28.0121 1.27163 27.7947C2.74372 22.5893 7.20566 22.8351 8.08496 22.9413L12.9878 27.6885C13.0903 27.7873 13.2298 27.8343 13.3682 27.8269C13.509 27.817 13.6386 27.7466 13.7238 27.6342L15.0872 25.8472L16.4531 27.6317C16.5383 27.7441 16.668 27.8133 16.8088 27.8244C16.9508 27.8343 17.0879 27.7849 17.1892 27.6861L22.0908 22.9388C22.9651 22.8339 27.4308 22.5869 28.9053 27.7923C28.9671 28.0096 29.1647 28.1517 29.3808 28.1517C29.4252 28.1517 29.4697 28.1455 29.5154 28.1331C29.776 28.059 29.9291 27.7861 29.855 27.5231ZM5.19019 11.9007V9.65427C5.19019 9.47273 5.27417 9.30971 5.40878 9.19239V12.3626C5.27417 12.2452 5.19019 12.0822 5.19019 11.9007ZM23.8642 11.8624C23.8642 12.018 23.7938 12.1563 23.6863 12.2638V9.29119C23.7938 9.39863 23.8642 9.53695 23.8642 9.69256V11.8624ZM13.2743 26.5907L8.88275 22.3374C9.0186 22.0176 9.35081 21.4458 10.0634 20.9456L14.4253 25.0877L13.2743 26.5907ZM16.8989 26.5907L15.748 25.0877L20.1111 20.9456C20.8224 21.4458 21.1547 22.0176 21.2905 22.3374L16.8989 26.5907Z" fill="white"/>
</g>
</g>
</svg>
