<svg width="41" height="41" viewBox="0 0 41 41" fill="none" xmlns="http://www.w3.org/2000/svg">
<g id="Group 1000008703">
<g id="Group">
<g id="Group_2">
<g id="Group_3">
<path id="Vector" fill-rule="evenodd" clip-rule="evenodd" d="M23.7304 17.2906C21.9403 15.5005 19.0331 15.5005 17.243 17.2906C15.4529 19.0807 15.4529 21.9878 17.243 23.7779C19.0331 25.568 21.9403 25.568 23.7304 23.7779C25.5205 21.9878 25.5205 19.0807 23.7304 17.2906ZM22.1085 18.9124C23.0038 19.8077 23.0038 21.2608 22.1085 22.1561C21.2133 23.0513 19.7601 23.0513 18.8649 22.1561C17.9696 21.2608 17.9696 19.8077 18.8649 18.9124C19.7601 18.0171 21.2133 18.0171 22.1085 18.9124Z" fill="white"/>
</g>
<g id="Group_4">
<path id="Vector_2" fill-rule="evenodd" clip-rule="evenodd" d="M10.5834 21.9808L16.2974 27.6948C16.745 28.1423 16.745 28.8689 16.2973 29.3165C15.8497 29.7642 15.1231 29.7642 14.6756 29.3166L8.32318 22.9642C7.95464 22.5957 7.88092 22.024 8.14472 21.5742C10.8748 16.9071 15.0131 13.2938 19.242 10.0525C20.9949 8.70926 24.1499 7.10258 26.3531 6.5892C28.3024 6.13496 31.5152 6.31492 33.5169 6.41092C34.1071 6.43993 34.5786 6.9115 34.6077 7.50167C34.7037 9.50333 34.8836 12.7161 34.4294 14.6655C33.916 16.8687 32.3093 20.0237 30.9661 21.7766C27.7248 26.0055 24.1114 30.1437 19.4443 32.8739C18.8982 33.1938 18.1951 33.0097 17.8755 32.4638C17.5559 31.9171 17.7401 31.2142 18.2858 30.8947C22.6956 28.3144 26.0831 24.3768 29.1459 20.3813C30.3247 18.8427 31.7448 16.0785 32.1954 14.145C32.538 12.6759 32.4569 10.4192 32.3683 8.65031C30.5994 8.56167 28.3426 8.48061 26.8736 8.82313C24.9401 9.27375 22.1759 10.6939 20.6373 11.8727C16.8716 14.759 13.1578 17.934 10.5834 21.9808Z" fill="white"/>
</g>
<g id="Group_5">
<path id="Vector_3" fill-rule="evenodd" clip-rule="evenodd" d="M16.419 15.3257C16.7511 15.0285 16.8808 14.5662 16.7523 14.1401C16.6238 13.7132 16.2597 13.4001 15.8185 13.3361C13.4969 13.0004 10.2289 12.6517 8.90908 12.9156C8.2198 13.0535 7.40887 13.4411 6.6235 13.9426C5.00693 14.9737 3.47064 16.4597 3.47064 16.4597C3.18276 16.7387 3.06112 17.1474 3.15032 17.5383C3.23953 17.9291 3.52578 18.2446 3.9057 18.3715L10.5544 20.5877C11.0195 20.743 11.5316 20.5853 11.8288 20.1957C13.1834 18.4218 14.751 16.8186 16.419 15.3257ZM13.1113 15.2916C11.6009 15.1177 10.1182 15.0127 9.35914 15.1643C8.72338 15.2916 7.96435 15.7765 7.26453 16.2785C7.0103 16.4605 6.765 16.6483 6.53632 16.8307L10.5147 18.1566C11.3244 17.1539 12.1953 16.2019 13.1113 15.2916Z" fill="white"/>
</g>
<g id="Group_6">
<path id="Vector_4" fill-rule="evenodd" clip-rule="evenodd" d="M27.6778 25.1976C27.6138 24.7564 27.3008 24.3923 26.8738 24.2638C26.4477 24.1353 25.9855 24.265 25.6882 24.5971C24.1953 26.2652 22.5921 27.8327 20.8183 29.1873C20.4286 29.4845 20.2709 29.9966 20.4262 30.4617L22.6424 37.1104C22.7693 37.4903 23.0848 37.7766 23.4757 37.8658C23.8665 37.955 24.2752 37.8334 24.5542 37.5455C24.5542 37.5455 26.0402 36.0092 27.0713 34.3926C27.5728 33.6072 27.9604 32.7963 28.0983 32.107C28.3623 30.7873 28.0136 27.5192 27.6778 25.1976ZM25.7223 27.9048C24.812 28.8208 23.86 29.6925 22.8573 30.5014L24.1832 34.4798C24.3656 34.2511 24.5534 34.0058 24.7354 33.7516C25.2374 33.0518 25.7223 32.2927 25.8496 31.657C26.0013 30.898 25.8962 29.4152 25.7223 27.9048Z" fill="white"/>
</g>
<g id="Group_7">
<path id="Vector_5" fill-rule="evenodd" clip-rule="evenodd" d="M5.89042 23.7717L4.69375 24.9684C4.24619 25.4159 4.24629 26.1424 4.69392 26.59C5.14155 27.0377 5.86803 27.0378 6.31559 26.5902L7.51227 25.3935C7.95982 24.946 7.95972 24.2195 7.51209 23.7719C7.06446 23.3242 6.33798 23.3241 5.89042 23.7717Z" fill="white"/>
</g>
<g id="Group_8">
<path id="Vector_6" fill-rule="evenodd" clip-rule="evenodd" d="M9.13317 27.0219L5.88948 30.2655C5.44185 30.7132 5.44185 31.4398 5.88948 31.8874C6.33711 32.335 7.0637 32.335 7.51133 31.8874L10.755 28.6437C11.2026 28.1961 11.2026 27.4695 10.755 27.0219C10.3074 26.5742 9.5808 26.5742 9.13317 27.0219Z" fill="white"/>
</g>
<g id="Group_9">
<path id="Vector_7" fill-rule="evenodd" clip-rule="evenodd" d="M12.3773 30.264L9.13362 33.5077C8.686 33.9554 8.686 34.6819 9.13362 35.1296C9.58125 35.5772 10.3078 35.5772 10.7555 35.1296L13.9992 31.8859C14.4468 31.4383 14.4468 30.7117 13.9992 30.264C13.5515 29.8164 12.8249 29.8164 12.3773 30.264Z" fill="white"/>
</g>
<g id="Group_10">
<path id="Vector_8" fill-rule="evenodd" clip-rule="evenodd" d="M15.6212 33.506L14.4077 34.7195C13.9599 35.1673 13.9603 35.8935 14.4079 36.3411C14.8556 36.7887 15.5817 36.7892 16.0295 36.3414L17.2431 35.1278C17.6909 34.68 17.6904 33.9539 17.2428 33.5062C16.7952 33.0586 16.069 33.0582 15.6212 33.506Z" fill="white"/>
</g>
</g>
</g>
</g>
</svg>
