<svg width="41" height="44" viewBox="0 0 41 44" fill="none" xmlns="http://www.w3.org/2000/svg">
<g id="Group 1000008701">
<g id="Group">
<path id="Vector" d="M4.002 18.4577C4.002 18.7447 4.23448 18.9775 4.5218 18.9775C4.80911 18.9775 5.04159 18.7447 5.04159 18.4577C5.04159 16.8589 6.34216 15.5584 7.94117 15.5584C8.22849 15.5584 8.461 15.3256 8.461 15.0385C8.461 14.7515 8.22849 14.5187 7.94117 14.5187C6.34216 14.5187 5.04159 13.2154 5.04159 11.6135C5.04159 11.3265 4.80911 11.0938 4.5218 11.0938C4.23448 11.0938 4.002 11.3265 4.002 11.6135C4.002 13.2154 2.69889 14.5187 1.09683 14.5187C0.809512 14.5187 0.577026 14.7515 0.577026 15.0385C0.577026 15.3256 0.809512 15.5584 1.09683 15.5584C2.69889 15.5584 4.002 16.8589 4.002 18.4577ZM4.52128 13.5699C4.87103 14.1799 5.37818 14.6882 5.98731 15.038C5.37818 15.3875 4.87103 15.8952 4.52128 16.504C4.17152 15.8952 3.6634 15.3875 3.05323 15.038C3.6634 14.6882 4.17152 14.1799 4.52128 13.5699Z" fill="white"/>
<path id="Vector_2" d="M39.6289 16.0187C38.0299 16.0187 36.7294 14.7154 36.7294 13.1136C36.7294 12.8265 36.4969 12.5938 36.2096 12.5938C35.9223 12.5938 35.6897 12.8265 35.6897 13.1136C35.6897 14.7154 34.3867 16.0187 32.7846 16.0187C32.4973 16.0187 32.2648 16.2515 32.2648 16.5386C32.2648 16.8256 32.4973 17.0584 32.7846 17.0584C34.3867 17.0584 35.6897 18.3589 35.6897 19.9577C35.6897 20.2448 35.9223 20.4775 36.2096 20.4775C36.4969 20.4775 36.7294 20.2448 36.7294 19.9577C36.7294 18.3589 38.0299 17.0584 39.6289 17.0584C39.9163 17.0584 40.1487 16.8256 40.1487 16.5386C40.1487 16.2515 39.9163 16.0187 39.6289 16.0187ZM36.2091 18.0041C35.8593 17.3952 35.3512 16.8875 34.741 16.538C35.3512 16.1883 35.8593 15.6799 36.2091 15.07C36.5588 15.6799 37.0659 16.1883 37.6751 16.538C37.0659 16.8875 36.5588 17.3952 36.2091 18.0041Z" fill="white"/>
<path id="Vector_3" d="M10.7438 6.43639C13.0647 6.43639 14.9531 8.32073 14.9531 10.637C14.9531 10.9241 15.1856 11.1568 15.4729 11.1568C15.7602 11.1568 15.9927 10.9241 15.9927 10.637C15.9927 8.32073 17.877 6.43639 20.1933 6.43639C20.4806 6.43639 20.7132 6.20365 20.7132 5.91659C20.7132 5.62954 20.4806 5.39676 20.1933 5.39676C17.877 5.39676 15.9927 3.50865 15.9927 1.18777C15.9927 0.900714 15.7602 0.667969 15.4729 0.667969C15.1856 0.667969 14.9531 0.900714 14.9531 1.18777C14.9531 3.50865 13.0647 5.39676 10.7438 5.39676C10.4565 5.39676 10.224 5.62954 10.224 5.91659C10.224 6.20365 10.4565 6.43639 10.7438 6.43639ZM15.4724 3.46501C15.9876 4.53254 16.8541 5.40008 17.9197 5.91607C16.8541 6.43158 15.9876 7.29759 15.4724 8.36336C14.9561 7.29759 14.0886 6.43158 13.021 5.91607C14.0886 5.40008 14.9561 4.53254 15.4724 3.46501Z" fill="white"/>
<path id="Vector_4" d="M30.0441 30.3249C29.9687 30.0645 29.8738 29.8078 29.7506 29.5632C31.537 28.9685 32.8086 27.2674 32.8086 25.3366C32.8086 23.4059 31.5375 21.7048 29.7511 21.1099C30.5953 19.4263 30.2907 17.3263 28.9237 15.9646C27.5602 14.596 25.4606 14.2911 23.7769 15.1353C23.1824 13.3492 21.4813 12.0781 19.5503 12.0781C17.6193 12.0781 15.9177 13.3498 15.3233 15.1363C13.6354 14.2921 11.5328 14.5967 10.1719 15.9638C8.80635 17.3293 8.50177 19.4289 9.34342 21.1099C7.5571 21.7046 6.28599 23.4059 6.28599 25.3366C6.28599 27.2676 7.55759 28.969 9.34446 29.5634C9.21981 29.8104 9.12528 30.0681 9.05003 30.3312L3.20063 36.1808C3.06356 36.3177 3.01432 36.5192 3.07217 36.7037C3.13006 36.8883 3.28541 37.0256 3.47575 37.0598L8.38655 37.9464L9.27845 42.8635C9.31298 43.0536 9.45054 43.209 9.6348 43.2668C9.68608 43.2826 9.73838 43.2905 9.79015 43.2905C9.92569 43.2905 10.0587 43.2372 10.1577 43.1382L16.2107 37.0854C17.0506 38.0419 18.2578 38.6007 19.5503 38.6007C20.8426 38.6007 22.0495 38.0421 22.8895 37.0857L28.9369 43.1382C29.0359 43.2372 29.1684 43.2905 29.3044 43.2905C29.3562 43.2905 29.4085 43.2829 29.4592 43.2668C29.644 43.2092 29.7816 43.0536 29.8161 42.8635L30.708 37.9464L35.6249 37.0601C35.8153 37.0256 35.9706 36.8885 36.0285 36.7037C36.0863 36.5192 36.0371 36.3177 35.9 36.1808L30.0441 30.3249ZM28.8587 28.7114C28.678 28.7383 28.5252 28.8581 28.4551 29.0266C28.3851 29.1951 28.409 29.388 28.5176 29.5347C28.7811 29.8908 28.9765 30.3035 29.0826 30.7297C29.3806 31.9112 29.0465 33.1257 28.1876 33.9798C27.0018 35.1661 25.0941 35.308 23.7489 34.3102C23.6027 34.2019 23.4103 34.1788 23.2413 34.247C23.0728 34.3166 22.953 34.4694 22.9255 34.6496C22.907 34.7714 22.8819 34.8922 22.8504 35.0113C22.7559 35.3688 22.6046 35.7107 22.4047 36.0159L22.4043 36.0169C21.7697 36.9839 20.7031 37.5611 19.5503 37.5611C18.3975 37.5611 17.33 36.9834 16.6954 36.0159C16.4289 35.6088 16.2487 35.1364 16.1751 34.6501C16.1482 34.4699 16.0284 34.3171 15.8599 34.2476C15.8021 34.2234 15.7418 34.2143 15.6813 34.2119C15.6745 34.2117 15.6681 34.208 15.6614 34.208C15.6535 34.208 15.6459 34.2113 15.638 34.2117C15.6015 34.2133 15.566 34.2194 15.5306 34.2288C15.5165 34.2325 15.5024 34.2346 15.4886 34.2395C15.4408 34.2565 15.3947 34.2787 15.3528 34.3097C14.0019 35.306 12.0922 35.1646 10.9069 33.9798C10.8003 33.8731 10.7017 33.7608 10.6115 33.6437C10.1603 33.058 9.91707 32.3508 9.90846 31.6182C9.90507 31.3253 9.93915 31.0285 10.0125 30.7338L10.0126 30.7324C10.1177 30.3069 10.3085 29.9029 10.579 29.5322C10.6861 29.3852 10.709 29.1928 10.6389 29.0251C10.5684 28.8573 10.4155 28.7383 10.2358 28.7114C8.57693 28.4642 7.32562 27.0133 7.32562 25.3366C7.32562 23.6597 8.57693 22.2089 10.2358 21.9617C10.4165 21.9348 10.5699 21.815 10.6394 21.6462C10.7095 21.4774 10.6856 21.2845 10.5765 21.1378C9.57896 19.7931 9.72111 17.8849 10.908 16.6981C12.0892 15.5117 13.9999 15.3711 15.3528 16.3691C15.5 16.4783 15.6918 16.5006 15.8609 16.4313C16.0289 16.3613 16.1487 16.2082 16.1756 16.0277C16.4223 14.3688 17.8736 13.1178 19.5503 13.1178C21.227 13.1178 22.6783 14.3688 22.925 16.0277C22.952 16.2082 23.0718 16.3615 23.2403 16.4313C23.4103 16.5016 23.6022 16.4775 23.7489 16.3686C25.0972 15.3689 27.0049 15.5107 28.1881 16.6996C29.376 17.8824 29.5176 19.7903 28.5181 21.1378C28.409 21.2845 28.3851 21.4774 28.4551 21.6462C28.5247 21.815 28.678 21.9348 28.8587 21.9617C30.5177 22.2089 31.769 23.6597 31.769 25.3366C31.769 27.0133 30.5177 28.4642 28.8587 28.7114Z" fill="white"/>
<path id="Vector_5" d="M19.548 16.5352C14.6857 16.5352 10.744 20.4768 10.744 25.3392C10.744 30.2015 14.6857 34.1432 19.548 34.1432C24.4103 34.1432 28.352 30.2015 28.352 25.3392C28.352 20.4768 24.4103 16.5352 19.548 16.5352ZM16.4891 20.8016C14.9784 21.8222 14.0763 23.5185 14.0763 25.3391C14.0763 26.9812 14.8043 28.5221 16.0744 29.5666C16.2957 29.7491 16.3277 30.0768 16.1454 30.2983C16.0424 30.4232 15.8937 30.4879 15.7434 30.4879C15.6272 30.4879 15.5104 30.4491 15.4134 30.3697C13.9032 29.1267 13.0367 27.2932 13.0367 25.3391C13.0367 23.1725 14.1098 21.1542 15.9073 19.9402C16.1459 19.7798 16.4683 19.8422 16.6292 20.08C16.7896 20.3178 16.7272 20.641 16.4891 20.8016ZM19.548 19.8676C19.341 19.8676 19.1323 19.8792 18.9277 19.9023C18.9079 19.9046 18.8882 19.9057 18.8688 19.9057C18.6079 19.9057 18.3825 19.7095 18.3526 19.444C18.3206 19.1589 18.5257 18.9016 18.811 18.8693C19.0547 18.8419 19.3024 18.8279 19.548 18.8279C19.8354 18.8279 20.0679 19.0607 20.0679 19.3478C20.0679 19.6348 19.8354 19.8676 19.548 19.8676Z" fill="white"/>
</g>
</g>
</svg>
