<svg width="15" height="19" viewBox="0 0 15 19" fill="none" xmlns="http://www.w3.org/2000/svg">
<g id="icon-bell">
<path id="Vector" d="M9.97213 7.54427C9.97213 9.88402 10.5245 11.3476 11.0519 12.2109H3.05904C3.58638 11.3476 4.13879 9.88402 4.13879 7.54427C4.13879 6.73869 4.46487 6.0101 4.99279 5.4816C5.52071 4.9531 6.24988 4.6276 7.05546 4.6276C7.86104 4.6276 8.58962 4.95369 9.11812 5.4816C9.64662 6.00952 9.97213 6.73869 9.97213 7.54427ZM11.1388 7.54427C11.1388 6.41669 10.6809 5.39527 9.94296 4.65677C9.20504 3.91827 8.18304 3.46094 7.05546 3.46094C5.92788 3.46094 4.90646 3.91885 4.16796 4.65677C3.42946 5.39469 2.97213 6.41669 2.97213 7.54427C2.97213 11.1184 1.57621 12.2384 1.47704 12.3124C1.21279 12.4921 1.14279 12.8514 1.32013 13.118C1.43213 13.2854 1.61529 13.3764 1.80546 13.3776H12.3055C12.6275 13.3776 12.8888 13.1163 12.8888 12.7943C12.8888 12.5965 12.7908 12.4221 12.6385 12.3154C12.5359 12.2395 11.1388 11.1195 11.1388 7.54427ZM7.56004 14.8348C7.47896 14.9742 7.35063 15.0675 7.20537 15.106C7.06012 15.1445 6.90204 15.1276 6.76263 15.0471C6.66813 14.9923 6.59754 14.9176 6.55321 14.8389C6.39337 14.5589 6.03754 14.4614 5.75754 14.6213C5.47754 14.7811 5.38013 15.1369 5.53996 15.4169C5.68579 15.673 5.90337 15.897 6.17754 16.0563C6.59521 16.2989 7.07296 16.3485 7.50521 16.2336C7.93746 16.1187 8.32713 15.8381 8.56921 15.4204C8.73079 15.1416 8.63571 14.7846 8.35746 14.623C8.07921 14.4614 7.72162 14.5565 7.56004 14.8348Z" fill="black"/>
</g>
</svg>
