<svg width="19" height="19" viewBox="0 0 19 19" fill="none" xmlns="http://www.w3.org/2000/svg">
<g id="icon-bell-off" clip-path="url(#clip0_1040_97583)">
<path id="Vector" d="M10.2239 15.4948C10.1196 15.674 9.9546 15.794 9.76785 15.8435C9.5811 15.893 9.37785 15.8713 9.1986 15.7678C9.0771 15.6973 8.98635 15.6013 8.92935 15.5C8.72385 15.14 8.26635 15.0148 7.90635 15.2203C7.54635 15.4258 7.4211 15.8833 7.6266 16.2433C7.8141 16.5725 8.09385 16.8605 8.44635 17.0653C8.98335 17.3773 9.5976 17.441 10.1534 17.2933C10.7091 17.1455 11.2101 16.7848 11.5214 16.2478C11.7291 15.8893 11.6069 15.4303 11.2491 15.2225C10.8914 15.0148 10.4316 15.137 10.2239 15.4948ZM14.8251 6.10403C14.8221 4.66178 14.2371 3.35453 13.2929 2.40803C12.3449 1.45703 11.0324 0.866781 9.5826 0.864531C8.4966 0.863031 7.48335 1.19228 6.6576 1.74953C6.31485 1.98128 6.2241 2.44778 6.45585 2.79128C6.6876 3.13478 7.1541 3.22478 7.4976 2.99303C8.0706 2.60603 8.7786 2.37128 9.5451 2.36528C10.6311 2.37353 11.5581 2.79203 12.2309 3.46778C12.9074 4.14653 13.3244 5.08028 13.3251 6.11228C13.2936 7.35578 13.4549 8.71928 13.8239 10.07C13.9334 10.4698 14.3451 10.7053 14.7449 10.5958C15.1446 10.4863 15.3801 10.0745 15.2706 9.67478C14.9384 8.45603 14.7966 7.23728 14.8251 6.14378C14.8251 6.14003 14.8251 6.13553 14.8251 6.13178C14.8251 6.12953 14.8251 6.12728 14.8251 6.12503V6.10403ZM5.8221 6.42953L11.5146 12.1213H4.43685C5.09085 11.0503 5.7741 9.26228 5.8221 6.42953ZM0.794852 1.40153L4.43685 5.04353C4.35735 5.41328 4.3206 5.78153 4.3251 6.13103C4.3251 10.7165 2.53035 12.1565 2.40285 12.2518C2.0631 12.4828 1.9731 12.9448 2.2011 13.2875C2.3451 13.5028 2.5806 13.6198 2.8251 13.6213H13.0146L17.2949 17.9015C17.5881 18.1948 18.0629 18.1948 18.3554 17.9015C18.6479 17.6083 18.6486 17.1335 18.3554 16.841L1.85535 0.341031C1.5621 0.0477812 1.08735 0.0477812 0.794852 0.341031C0.502352 0.634281 0.501602 1.10903 0.794852 1.40153Z" fill="#888888"/>
</g>
<defs>
<clipPath id="clip0_1040_97583">
<rect width="18" height="18" fill="white" transform="translate(0.575195 0.121094)"/>
</clipPath>
</defs>
</svg>
