<svg width="19" height="19" viewBox="0 0 19 19" fill="none" xmlns="http://www.w3.org/2000/svg">
<g id="icon-maximize">
<path id="Vector" d="M6.05566 1.62109H3.80566C3.18466 1.62109 2.62066 1.87384 2.21491 2.28034C1.80916 2.68684 1.55566 3.25009 1.55566 3.87109V6.12109C1.55566 6.53509 1.89166 6.87109 2.30566 6.87109C2.71966 6.87109 3.05566 6.53509 3.05566 6.12109V3.87109C3.05566 3.66409 3.13891 3.47734 3.27541 3.34084C3.41191 3.20434 3.59866 3.12109 3.80566 3.12109H6.05566C6.46966 3.12109 6.80566 2.78509 6.80566 2.37109C6.80566 1.95709 6.46966 1.62109 6.05566 1.62109ZM16.5557 6.12109V3.87109C16.5557 3.25009 16.3029 2.68609 15.8964 2.28034C15.4899 1.87459 14.9267 1.62109 14.3057 1.62109H12.0557C11.6417 1.62109 11.3057 1.95709 11.3057 2.37109C11.3057 2.78509 11.6417 3.12109 12.0557 3.12109H14.3057C14.5127 3.12109 14.6994 3.20434 14.8359 3.34084C14.9724 3.47734 15.0557 3.66409 15.0557 3.87109V6.12109C15.0557 6.53509 15.3917 6.87109 15.8057 6.87109C16.2197 6.87109 16.5557 6.53509 16.5557 6.12109ZM12.0557 16.6211H14.3057C14.9267 16.6211 15.4907 16.3683 15.8964 15.9618C16.3022 15.5553 16.5557 14.9921 16.5557 14.3711V12.1211C16.5557 11.7071 16.2197 11.3711 15.8057 11.3711C15.3917 11.3711 15.0557 11.7071 15.0557 12.1211V14.3711C15.0557 14.5781 14.9724 14.7648 14.8359 14.9013C14.6994 15.0378 14.5127 15.1211 14.3057 15.1211H12.0557C11.6417 15.1211 11.3057 15.4571 11.3057 15.8711C11.3057 16.2851 11.6417 16.6211 12.0557 16.6211ZM1.55566 12.1211V14.3711C1.55566 14.9921 1.80841 15.5561 2.21491 15.9618C2.62141 16.3676 3.18466 16.6211 3.80566 16.6211H6.05566C6.46966 16.6211 6.80566 16.2851 6.80566 15.8711C6.80566 15.4571 6.46966 15.1211 6.05566 15.1211H3.80566C3.59866 15.1211 3.41191 15.0378 3.27541 14.9013C3.13891 14.7648 3.05566 14.5781 3.05566 14.3711V12.1211C3.05566 11.7071 2.71966 11.3711 2.30566 11.3711C1.89166 11.3711 1.55566 11.7071 1.55566 12.1211Z" fill="#888888"/>
</g>
</svg>
