<svg width="21" height="27" viewBox="0 0 21 27" fill="none" xmlns="http://www.w3.org/2000/svg">
<g id="icon-bell">
<path id="Vector" d="M14.2101 9.94442C14.2101 13.284 14.9986 15.373 15.7513 16.6052H4.34299C5.09566 15.373 5.88413 13.284 5.88413 9.94442C5.88413 8.7946 6.34956 7.75468 7.10306 7.00034C7.85657 6.246 8.89732 5.78141 10.0471 5.78141C11.197 5.78141 12.2369 6.24684 12.9912 7.00034C13.7456 7.75384 14.2101 8.7946 14.2101 9.94442ZM15.8753 9.94442C15.8753 8.335 15.2218 6.87712 14.1685 5.82304C13.1153 4.76897 11.6566 4.11621 10.0471 4.11621C8.43772 4.11621 6.97984 4.7698 5.92576 5.82304C4.87169 6.87628 4.21893 8.335 4.21893 9.94442C4.21893 15.0458 2.22652 16.6444 2.08498 16.7501C1.70781 17.0065 1.6079 17.5194 1.86101 17.8999C2.02087 18.1389 2.2823 18.2688 2.55373 18.2704H17.5405C18.0001 18.2704 18.3731 17.8974 18.3731 17.4378C18.3731 17.1556 18.2333 16.9066 18.016 16.7543C17.8694 16.646 15.8753 15.0474 15.8753 9.94442ZM10.7673 20.3503C10.6516 20.5493 10.4684 20.6825 10.2611 20.7374C10.0538 20.7924 9.82817 20.7682 9.62917 20.6533C9.49429 20.5751 9.39355 20.4685 9.33027 20.3561C9.10214 19.9564 8.59425 19.8174 8.1946 20.0455C7.79495 20.2737 7.65591 20.7816 7.88404 21.1812C8.09219 21.5467 8.40275 21.8664 8.79407 22.0937C9.39022 22.4401 10.0721 22.5109 10.6891 22.3468C11.306 22.1828 11.8622 21.7823 12.2077 21.1862C12.4384 20.7882 12.3027 20.2787 11.9055 20.048C11.5084 19.8174 10.998 19.9531 10.7673 20.3503Z" fill="white"/>
</g>
</svg>
