<svg width="16" height="22" viewBox="0 0 16 22" fill="none" xmlns="http://www.w3.org/2000/svg">
<g id="icon-arrow-right">
<path id="Vector" d="M8.1371 5.60255L12.6302 10.0956H2.79516C2.32658 10.0956 1.94629 10.4759 1.94629 10.9445C1.94629 11.4131 2.32658 11.7934 2.79516 11.7934H12.6302L8.1371 16.2864C7.80519 16.6183 7.80519 17.1557 8.1371 17.4867C8.46901 17.8178 9.00634 17.8186 9.3374 17.4867L15.2795 11.5446C15.3576 11.4665 15.4204 11.3732 15.4637 11.2696C15.5494 11.0616 15.5494 10.8273 15.4637 10.6194C15.4221 10.5192 15.361 10.4258 15.2795 10.3443L9.3374 4.40225C9.00549 4.07034 8.46816 4.07034 8.1371 4.40225C7.80604 4.73416 7.80519 5.27149 8.1371 5.60255Z" fill="white"/>
</g>
</svg>
