<svg width="27" height="27" viewBox="0 0 27 27" fill="none" xmlns="http://www.w3.org/2000/svg">
<g id="moon-stars">
<g id="Path">
<path fill-rule="evenodd" clip-rule="evenodd" d="M13.6045 3.64822C13.7475 3.64822 13.8894 3.64822 14.0302 3.64822C11.1585 6.31665 10.6015 10.6551 12.7061 13.9623C14.8107 17.2696 18.9766 18.6026 22.6102 17.1314C20.7331 21.6479 15.8002 24.0748 11.0767 22.8055C6.35313 21.5363 3.30099 16.9638 3.94054 12.1147C4.58009 7.26557 8.71339 3.64074 13.6045 3.63956V3.64822Z" stroke="white" stroke-width="2" stroke-linecap="round" stroke-linejoin="round"/>
<path fill-rule="evenodd" clip-rule="evenodd" d="M13.6045 3.64822C13.7475 3.64822 13.8894 3.64822 14.0302 3.64822C11.1585 6.31665 10.6015 10.6551 12.7061 13.9623C14.8107 17.2696 18.9766 18.6026 22.6102 17.1314C20.7331 21.6479 15.8002 24.0748 11.0767 22.8055C6.35313 21.5363 3.30099 16.9638 3.94054 12.1147C4.58009 7.26557 8.71339 3.64074 13.6045 3.63956V3.64822Z" stroke="white" stroke-opacity="0.2" stroke-width="2" stroke-linecap="round" stroke-linejoin="round"/>
</g>
<g id="Path_2">
<path d="M19.0212 4.73161C19.0212 5.92823 19.9912 6.89828 21.1878 6.89828C19.9912 6.89828 19.0212 7.86833 19.0212 9.06495C19.0212 7.86833 18.0511 6.89828 16.8545 6.89828C18.0511 6.89828 19.0212 5.92823 19.0212 4.73161" stroke="white" stroke-width="2" stroke-linecap="round" stroke-linejoin="round"/>
<path d="M19.0212 4.73161C19.0212 5.92823 19.9912 6.89828 21.1878 6.89828C19.9912 6.89828 19.0212 7.86833 19.0212 9.06495C19.0212 7.86833 18.0511 6.89828 16.8545 6.89828C18.0511 6.89828 19.0212 5.92823 19.0212 4.73161" stroke="white" stroke-opacity="0.2" stroke-width="2" stroke-linecap="round" stroke-linejoin="round"/>
</g>
<g id="Shape">
<path d="M21.1878 11.3149C20.6355 11.3149 20.1878 11.7627 20.1878 12.3149C20.1878 12.8672 20.6355 13.3149 21.1878 13.3149V11.3149ZM23.3545 13.3149C23.9068 13.3149 24.3545 12.8672 24.3545 12.3149C24.3545 11.7627 23.9068 11.3149 23.3545 11.3149V13.3149ZM23.2711 11.2316C23.2711 10.6793 22.8234 10.2316 22.2711 10.2316C21.7189 10.2316 21.2711 10.6793 21.2711 11.2316H23.2711ZM21.2711 13.3983C21.2711 13.9506 21.7189 14.3983 22.2711 14.3983C22.8234 14.3983 23.2711 13.9506 23.2711 13.3983H21.2711ZM21.1878 13.3149H23.3545V11.3149H21.1878V13.3149ZM21.2711 11.2316V13.3983H23.2711V11.2316H21.2711Z" fill="white"/>
<path d="M21.1878 11.3149C20.6355 11.3149 20.1878 11.7627 20.1878 12.3149C20.1878 12.8672 20.6355 13.3149 21.1878 13.3149V11.3149ZM23.3545 13.3149C23.9068 13.3149 24.3545 12.8672 24.3545 12.3149C24.3545 11.7627 23.9068 11.3149 23.3545 11.3149V13.3149ZM23.2711 11.2316C23.2711 10.6793 22.8234 10.2316 22.2711 10.2316C21.7189 10.2316 21.2711 10.6793 21.2711 11.2316H23.2711ZM21.2711 13.3983C21.2711 13.9506 21.7189 14.3983 22.2711 14.3983C22.8234 14.3983 23.2711 13.9506 23.2711 13.3983H21.2711ZM21.1878 13.3149H23.3545V11.3149H21.1878V13.3149ZM21.2711 11.2316V13.3983H23.2711V11.2316H21.2711Z" fill="white" fill-opacity="0.2"/>
</g>
</g>
</svg>
