<svg width="42" height="42" viewBox="0 0 42 42" fill="none" xmlns="http://www.w3.org/2000/svg">
<g id="Group 36813">
<rect id="Rectangle 4268" x="0.325684" y="0.285156" width="41.5" height="41.5" rx="8" fill="#555555"/>
<g id="Group 36811">
<path id="Vector" d="M21.0757 11.8852C20.4406 11.8852 19.9257 12.4 19.9257 13.0352V29.0352C19.9257 29.6703 20.4406 30.1852 21.0757 30.1852C21.7108 30.1852 22.2257 29.6703 22.2257 29.0352V13.0352C22.2257 12.4 21.7108 11.8852 21.0757 11.8852Z" fill="white" stroke="white" stroke-width="0.3" stroke-linecap="round"/>
<path id="Vector_2" d="M13.0757 19.8852C12.4406 19.8852 11.9257 20.4 11.9257 21.0352C11.9257 21.6703 12.4406 22.1852 13.0757 22.1852H29.0757C29.7108 22.1852 30.2257 21.6703 30.2257 21.0352C30.2257 20.4 29.7108 19.8852 29.0757 19.8852H13.0757Z" fill="white" stroke="white" stroke-width="0.3" stroke-linecap="round"/>
</g>
</g>
</svg>
