<svg width="17" height="17" viewBox="0 0 17 17" fill="none" xmlns="http://www.w3.org/2000/svg">
<g id="send (4) 1">
<path id="Vector" d="M13.9318 3.62277C13.8745 3.38319 13.6113 3.22017 13.3725 3.3049C13.3725 3.3049 3.02972 6.95457 3.028 6.95586C2.86925 7.01479 2.75267 7.1662 2.74406 7.33954C2.73632 7.506 2.83914 7.67934 2.991 7.74989L6.99715 9.61967C6.99715 9.61967 8.94903 7.66816 8.95247 7.66472C9.33967 7.2776 9.95788 7.87634 9.5608 8.27293L7.60547 10.2279C7.60547 10.2279 9.47303 14.229 9.47647 14.2354C9.55262 14.3817 9.70148 14.4746 9.86496 14.4819C10.0426 14.49 10.207 14.3541 10.2706 14.195C10.2706 14.195 13.9189 3.8602 13.921 3.85375C13.9481 3.77934 13.9498 3.69891 13.9318 3.62277Z" fill="white"/>
</g>
</svg>
