<svg width="56" height="57" viewBox="0 0 56 57" fill="none" xmlns="http://www.w3.org/2000/svg">
<g id="undone.svg" clip-path="url(#clip0_1783_16595)">
<path id="Vector" d="M56 28.4531C56 12.9892 43.464 0.453125 28 0.453125C12.536 0.453125 0 12.9892 0 28.4531C0 43.9171 12.536 56.4531 28 56.4531C43.464 56.4531 56 43.9171 56 28.4531Z" fill="black" fill-opacity="0.48"/>
<path id="Vector_2" d="M52 28.4531C52 15.1983 41.2548 4.45312 28 4.45312C14.7452 4.45312 4 15.1983 4 28.4531C4 41.708 14.7452 52.4531 28 52.4531C41.2548 52.4531 52 41.708 52 28.4531Z" fill="#15131D"/>
<path id="Vector_3" fill-rule="evenodd" clip-rule="evenodd" d="M19 25.4531H30.126C30.5701 27.1783 32.1362 28.4531 34 28.4531C36.2091 28.4531 38 26.6622 38 24.4531C38 22.244 36.2091 20.4531 34 20.4531C32.1362 20.4531 30.5701 21.7279 30.126 23.4531H19C18.4477 23.4531 18 23.9008 18 24.4531C18 25.0054 18.4477 25.4531 19 25.4531Z" fill="#CAC6DD"/>
<path id="Vector_4" fill-rule="evenodd" clip-rule="evenodd" d="M37 31.4531H25.874C25.4299 29.7279 23.8638 28.4531 22 28.4531C19.7909 28.4531 18 30.244 18 32.4531C18 34.6622 19.7909 36.4531 22 36.4531C23.8638 36.4531 25.4299 35.1783 25.874 33.4531H37C37.5523 33.4531 38 33.0054 38 32.4531C38 31.9008 37.5523 31.4531 37 31.4531Z" fill="#CAC6DD"/>
<path id="Vector_5" d="M51.5 28.4531C51.5 15.4744 40.9787 4.95312 28 4.95312C15.0213 4.95312 4.5 15.4744 4.5 28.4531C4.5 41.4318 15.0213 51.9531 28 51.9531C40.9787 51.9531 51.5 41.4318 51.5 28.4531Z" stroke="url(#paint0_linear_1783_16595)" stroke-opacity="0.15"/>
</g>
<defs>
<linearGradient id="paint0_linear_1783_16595" x1="28" y1="4.45312" x2="28" y2="52.4531" gradientUnits="userSpaceOnUse">
<stop stop-color="white"/>
<stop offset="0.560128" stop-color="white" stop-opacity="0"/>
</linearGradient>
<clipPath id="clip0_1783_16595">
<rect width="56" height="56" fill="white" transform="translate(0 0.453125)"/>
</clipPath>
</defs>
</svg>
