<svg width="31" height="27" viewBox="0 0 31 27" fill="none" xmlns="http://www.w3.org/2000/svg">
<path id="Vector" d="M15.5001 5.58834C15.5001 3.12546 22.0599 1.12891 30.1525 1.12891V22.1519C22.0599 22.1519 15.5001 24.1485 15.5001 26.6114C15.5001 24.1485 8.93834 22.1519 0.847656 22.1519V1.12891C8.93834 1.12891 15.5001 3.12546 15.5001 5.58834ZM15.5001 5.58834V25.9743M12.3148 8.44237C10.2634 7.65751 7.36288 7.08671 4.03296 6.86246M12.3148 12.2647C10.2634 11.4799 7.36288 10.9091 4.03296 10.6848M12.3148 16.0871C10.2634 15.3022 7.36288 14.7314 4.03296 14.5072M12.3148 19.9095C10.2634 19.1259 7.36288 18.5544 4.03296 18.3296M18.6854 8.44237C20.7386 7.65751 23.6373 7.08671 26.9672 6.86246M18.6854 12.2647C20.7386 11.4799 23.6373 10.9091 26.9672 10.6848M18.6854 16.0871C20.7386 15.3022 23.6373 14.7314 26.9672 14.5072M18.6854 19.9095C20.7386 19.1259 23.6373 18.5544 26.9672 18.3296" stroke="white" stroke-width="0.637061"/>
</svg>
