<svg width="28" height="28" viewBox="0 0 28 28" fill="none" xmlns="http://www.w3.org/2000/svg">
<g id="Group 1000008699">
<g id="Group">
<path id="Vector" d="M0.506348 13.286H13.308V0.484375H0.506348V13.286ZM3.27428 3.2523H10.5401V10.5181H3.27428V3.2523Z" fill="white"/>
<path id="Vector_2" d="M27.4936 0.484375H14.6919V13.286H27.4936V0.484375ZM24.7256 10.5181H17.4598V3.2523H24.7256V10.5181Z" fill="white"/>
<path id="Vector_3" d="M0.506348 27.4735H13.308V14.6719H0.506348V27.4735ZM3.27428 17.4398H10.5401V24.7056H3.27428V17.4398Z" fill="white"/>
<path id="Vector_4" d="M21.0927 27.4735C24.6218 27.4735 27.4936 24.6018 27.4936 21.0727C27.4936 17.5436 24.6218 14.6719 21.0927 14.6719C17.5636 14.6719 14.6919 17.5436 14.6919 21.0727C14.6919 24.6018 17.5636 27.4735 21.0927 27.4735ZM21.0927 17.4398C23.0995 17.4398 24.7256 19.066 24.7256 21.0727C24.7256 23.0795 23.0995 24.7056 21.0927 24.7056C19.086 24.7056 17.4598 23.0795 17.4598 21.0727C17.4598 19.066 19.086 17.4398 21.0927 17.4398Z" fill="white"/>
</g>
</g>
</svg>
