<svg width="31" height="31" viewBox="0 0 31 31" fill="none" xmlns="http://www.w3.org/2000/svg">
<g id="Group 1000008700">
<g id="Group">
<path id="Vector" d="M5.87953 30.7662C5.55452 30.7662 5.2945 30.7662 4.96949 30.7012C4.70947 30.6361 4.51446 30.5061 4.44946 30.2461C4.38446 29.9861 4.44946 29.7911 4.57947 29.5961L6.26955 27.906C6.72458 27.451 6.91959 26.931 6.91959 26.2809C6.91959 25.6959 6.65957 25.1109 6.26955 24.7208C5.42451 23.8758 3.92943 23.8758 3.08439 24.7208L1.3943 26.4109C1.19929 26.6059 0.939281 26.6709 0.744271 26.5409C0.484258 26.4759 0.354252 26.2809 0.289248 26.0209C0.0292352 24.2658 0.614265 22.4457 1.84933 21.1457C2.88938 20.1056 4.31945 19.5206 5.81453 19.5206C6.39956 19.5206 6.98459 19.5856 7.50461 19.7806L19.7902 7.49497C19.1402 5.47987 19.6602 3.33476 21.1553 1.83969C22.4554 0.539621 24.2105 -0.0454087 26.0306 0.279608C26.2906 0.344611 26.4856 0.474618 26.5506 0.734631C26.6156 0.994644 26.5506 1.18965 26.4206 1.38466L24.7305 3.07475C24.2755 3.52977 24.0805 4.0498 24.0805 4.69983C24.0805 5.28486 24.3405 5.86989 24.7305 6.25991C25.5755 7.10495 27.0706 7.10495 27.9156 6.25991L29.6057 4.56983C29.8007 4.37482 30.0608 4.30981 30.2558 4.43982C30.5158 4.50482 30.6458 4.69983 30.7108 4.95985C30.9708 6.71493 30.3858 8.53503 29.1507 9.83509C28.1107 10.8751 26.6806 11.4602 25.1855 11.4602C24.6005 11.4602 24.0155 11.3952 23.4954 11.2002L11.2748 23.4858C11.9248 25.5009 11.4048 27.646 9.90974 29.1411C8.80468 30.1811 7.37461 30.7662 5.87953 30.7662ZM4.77448 22.7708C5.74953 22.7708 6.59457 23.1608 7.30961 23.8108C7.95964 24.4608 8.34966 25.3709 8.34966 26.3459C8.34966 27.321 7.95964 28.166 7.30961 28.8811L6.72458 29.4661C7.56962 29.3361 8.34966 28.8811 8.99969 28.296C10.2348 27.061 10.6248 25.2409 9.97474 23.6158C9.84473 23.3558 9.90974 23.0958 10.1047 22.9008L22.9754 10.0301C23.1704 9.83509 23.4304 9.77009 23.6904 9.9001C24.2105 10.0951 24.7305 10.2251 25.3155 10.2251C26.4856 10.2251 27.5256 9.77009 28.3707 8.99005C29.0207 8.34002 29.4107 7.55998 29.5407 6.71493L28.9557 7.29996C28.3057 7.95 27.3956 8.34002 26.4206 8.34002C25.4455 8.34002 24.6005 7.95 23.8854 7.29996C23.2354 6.64993 22.8454 5.73988 22.8454 4.76484C22.8454 3.78979 23.2354 2.94474 23.8854 2.22971L24.4705 1.64468C23.6254 1.77468 22.8454 2.22971 22.1954 2.81474C20.9603 4.0498 20.5703 5.86989 21.2203 7.49497C21.3503 7.75499 21.2853 8.015 21.0903 8.21001L8.21965 21.0157C8.02464 21.2107 7.76463 21.2757 7.50461 21.1457C6.98459 20.9507 6.46456 20.8207 5.87953 20.8207C4.70947 20.8207 3.66942 21.2757 2.82438 22.0557C2.17434 22.7057 1.78432 23.4858 1.65432 24.3308L2.23935 23.7458C2.88938 23.0958 3.79943 22.7708 4.77448 22.7708Z" fill="white"/>
<path id="Vector_2" d="M24.9252 28.3603C24.4052 28.3603 23.8852 28.1653 23.5601 27.7752L17.3848 21.5999C16.9948 21.2099 16.7998 20.7549 16.7998 20.2349C16.7998 19.7148 16.9948 19.1948 17.3848 18.8698L18.9449 17.3097C19.66 16.5947 20.96 16.5947 21.7401 17.3097L27.9154 23.485C28.3054 23.875 28.5004 24.3301 28.5004 24.8501C28.5004 25.3701 28.3054 25.8902 27.9154 26.2152L26.3553 27.7752C25.9003 28.1653 25.4452 28.3603 24.9252 28.3603ZM20.245 17.9597C20.05 17.9597 19.92 18.0248 19.79 18.1548L18.2299 19.7148C18.0999 19.8448 18.0349 19.9749 18.0349 20.1699C18.0349 20.3649 18.0999 20.4949 18.2299 20.6249L24.4052 26.8002C24.6652 27.0602 25.1202 27.0602 25.3152 26.8002L26.8753 25.2401C27.0053 25.1101 27.0703 24.9801 27.0703 24.7851C27.0703 24.5901 27.0053 24.4601 26.8753 24.3301L20.765 18.1548C20.635 18.0248 20.44 17.9597 20.245 17.9597Z" fill="white"/>
<path id="Vector_3" d="M18.5548 19.1322C18.3598 19.1322 18.2298 19.0672 18.0998 18.9372L16.4747 17.3121C16.2147 17.0521 16.2147 16.6621 16.4747 16.402C16.7347 16.142 17.1247 16.142 17.3847 16.402L19.0098 18.0271C19.2698 18.2871 19.2698 18.6772 19.0098 18.9372C18.8798 19.0672 18.7498 19.1322 18.5548 19.1322Z" fill="white"/>
<path id="Vector_4" d="M14.1348 14.709C13.9397 14.709 13.8097 14.644 13.6797 14.514L6.13935 7.03865C5.87933 6.77864 5.87933 6.38862 6.13935 6.1286C6.39936 5.86859 6.78938 5.86859 7.04939 6.1286L14.5898 13.669C14.8498 13.929 14.8498 14.319 14.5898 14.579C14.4598 14.644 14.3298 14.709 14.1348 14.709Z" fill="white"/>
<path id="Vector_5" d="M6.00939 7.7516C5.94439 7.7516 5.87939 7.7516 5.81438 7.7516L4.70933 7.42659C4.57932 7.36159 4.44931 7.29658 4.38431 7.16657L2.62922 4.63145C2.43421 4.37143 2.49921 4.04642 2.69422 3.7864L3.86428 2.61634C4.05929 2.42133 4.44931 2.35633 4.70933 2.55134L7.24446 4.30643C7.37446 4.37143 7.43947 4.50144 7.50447 4.63145L7.82949 5.7365C7.89449 5.99652 7.82949 6.19153 7.69948 6.38654L6.52942 7.55659C6.39941 7.6866 6.2044 7.7516 6.00939 7.7516ZM5.35936 6.25653L5.87939 6.38654L6.46442 5.80151L6.33441 5.28148L4.44931 3.98141L3.99429 4.30643L5.35936 6.25653Z" fill="white"/>
</g>
</g>
</svg>
