<svg width="31" height="28" viewBox="0 0 31 28" fill="none" xmlns="http://www.w3.org/2000/svg">
<g id="Group 1000008741">
<g id="Group">
<path id="Vector" d="M25.1256 11.2804V7.02112V2.63386L13.2636 6.10162V16.4591L25.1256 19.9269V15.5396V11.2804ZM26.5562 14.7519C27.2477 14.6098 27.8663 14.2669 28.3476 13.7866C28.9886 13.1455 29.3857 12.2597 29.3857 11.2804C29.3857 10.302 28.9895 9.4152 28.3476 8.77416C27.8663 8.29292 27.2486 7.94997 26.5562 7.80887V14.7528V14.7519ZM26.5562 6.35673C27.643 6.51372 28.6176 7.02206 29.3586 7.76308C30.2585 8.66296 30.8155 9.90672 30.8155 11.2804C30.8155 12.654 30.2585 13.8978 29.3586 14.7976C28.6176 15.5387 27.6439 16.047 26.5562 16.204V20.8781H26.5534C26.5534 20.9436 26.5441 21.0099 26.5254 21.0762C26.416 21.4538 26.0208 21.6715 25.6423 21.5622L13.2636 17.944V20.4006C13.2636 20.7959 12.9431 21.1155 12.5488 21.1155H11.5433L11.9965 27.0063C12.0002 27.0362 12.0021 27.0661 12.0021 27.0969C12.0021 27.4913 11.6816 27.8118 11.2872 27.8118H7.76715C7.37188 27.8118 7.0523 27.4913 7.0523 27.0969V17.7075H3.26776V17.7066C3.07059 17.7066 2.87529 17.6262 2.73418 17.4674L0.50738 14.9687C0.381229 14.8397 0.302734 14.6631 0.302734 14.4678V8.09107H0.303669C0.303669 7.92194 0.363474 7.75187 0.484018 7.61637L2.71176 5.11764C2.84258 4.95598 3.04349 4.85226 3.26776 4.85226H12.4572L25.5825 1.01539C25.6629 0.983617 25.7507 0.966797 25.8423 0.966797C26.2376 0.966797 26.5581 1.28731 26.5581 1.68165V6.35579L26.5562 6.35673ZM8.48108 17.7075V26.3821H10.5144L10.0594 20.4539C10.0304 20.0605 10.3248 19.7176 10.7191 19.6886L10.7724 19.6867V19.6858H11.8339V17.7075H8.48201H8.48108ZM11.833 6.28291H3.58547L1.73151 8.363V14.1968L3.58547 16.2769H7.76622H11.8339V6.28291H11.833Z" fill="white"/>
</g>
</g>
</svg>
