<svg width="33" height="30" viewBox="0 0 33 30" fill="none" xmlns="http://www.w3.org/2000/svg">
<g id="Group 1000008739">
<path id="Vector" d="M20.5863 11.1502C20.5863 11.091 20.5863 11.091 20.5863 11.1502C20.5863 11.091 20.5863 11.0318 20.5863 11.0318L20.9413 5.64699V5.58782C21.0005 5.1736 21.3555 4.81855 21.8289 4.81855C22.3023 4.81855 22.6574 5.1736 22.7165 5.64699L23.0124 10.5584C23.0124 10.6768 23.0716 10.8543 23.1899 10.9727L25.3794 13.5763C25.3794 13.5763 25.3794 13.5763 25.3794 13.6355C25.6161 13.9905 25.6161 14.4639 25.3202 14.819C24.9652 15.174 24.4918 15.174 24.1367 14.8782L21.1188 12.3337C21.0597 12.2745 21.0005 12.2745 20.9413 12.2153C20.7046 11.8011 20.5863 11.4461 20.5863 11.1502ZM21.9473 0.617188C17.45 0.617188 13.5446 3.51672 12.1835 7.59974C13.0712 7.71809 13.9588 7.89561 14.7872 8.19148C15.9115 5.29194 18.6927 3.28002 21.9473 3.28002C26.1486 3.28002 29.5807 6.71213 29.5807 10.9135C29.5807 14.7598 26.7404 17.896 23.1308 18.4878C23.1899 18.9612 23.2491 19.4937 23.2491 20.0263C23.2491 20.4405 23.2491 20.7956 23.1899 21.2098C28.2789 20.618 32.3028 16.2392 32.3028 10.9727C32.2436 5.23277 27.628 0.617188 21.9473 0.617188ZM10.7042 29.8492C5.26017 29.8492 0.881287 25.4703 0.881287 20.0263C0.881287 14.5823 5.26017 10.2034 10.7042 10.2034C16.1482 10.2034 20.5271 14.5823 20.5271 20.0263C20.5271 25.4703 16.1482 29.8492 10.7042 29.8492ZM10.5858 26.713C10.7634 26.713 10.9409 26.713 11.0592 26.713C11.2959 26.713 11.4735 26.5946 11.4735 26.2988C11.4735 26.0029 11.4735 25.707 11.4735 25.4112C11.4735 25.1153 11.5918 24.9969 11.8877 24.8786C12.5386 24.7011 13.0712 24.346 13.5446 23.8135C14.728 22.3933 14.2546 20.263 12.5978 19.3162C12.0652 19.0203 11.5326 18.7837 10.9409 18.547C10.645 18.4286 10.29 18.2511 10.0533 18.0144C9.52071 17.6002 9.63906 16.8901 10.2308 16.5942C10.4083 16.535 10.5858 16.4759 10.7634 16.4759C10.8225 16.4759 10.9409 16.4759 11.0001 16.4759C11.651 16.4759 12.2427 16.5942 12.8345 16.8901C12.9528 16.9493 13.012 16.9493 13.1303 16.9493C13.2487 16.9493 13.3079 16.8309 13.4262 16.6534C13.5446 16.2983 13.6629 15.9433 13.7221 15.5882C13.7813 15.3516 13.7221 15.174 13.4854 15.0557C13.0712 14.8782 12.6569 14.7598 12.1835 14.6415C11.5918 14.5231 11.5918 14.5231 11.5918 13.9314C11.5918 13.1029 11.5918 13.1029 10.8225 13.1029C10.8225 13.1029 10.7634 13.1029 10.7042 13.1029C10.645 13.1029 10.5267 13.1029 10.4675 13.1029C10.4083 13.1029 10.3492 13.1029 10.3492 13.1029C9.93493 13.1029 9.87576 13.1621 9.87576 13.5763C9.87576 13.7538 9.87576 13.9314 9.87576 14.1089C9.87576 14.6415 9.87576 14.6415 9.34319 14.819C8.10053 15.2924 7.39044 16.1208 7.27209 17.4226C7.21292 18.6061 7.80466 19.3754 8.81062 19.9671C9.40236 20.3222 10.0533 20.5589 10.7042 20.7956C10.9409 20.9139 11.1776 21.0323 11.4143 21.2098C12.006 21.6832 11.8877 22.5708 11.1776 22.8667C10.8817 22.985 10.5858 23.0442 10.29 23.0442C10.1716 23.0442 10.0533 23.0442 9.93493 23.0442C9.28402 22.985 8.69228 22.8075 8.10053 22.5116C7.98218 22.4524 7.86384 22.3933 7.80466 22.3933C7.68631 22.3933 7.62714 22.5116 7.50879 22.7483C7.39044 23.0442 7.33127 23.3992 7.21292 23.6951C7.09457 24.1093 7.15375 24.2277 7.56797 24.4052C8.10053 24.6419 8.6331 24.8194 9.22484 24.8786C9.69823 24.9378 9.69824 24.9969 9.69824 25.4112C9.69824 25.6479 9.69824 25.8254 9.69824 26.0621C9.69824 26.3579 9.81658 26.4763 10.1125 26.4763C10.29 26.713 10.4675 26.713 10.5858 26.713Z" fill="white"/>
</g>
</svg>
