<svg width="31" height="27" viewBox="0 0 31 27" fill="none" xmlns="http://www.w3.org/2000/svg">
<path id="Vector" fill-rule="evenodd" clip-rule="evenodd" d="M30.1172 5.55364H28.5883V1.73127C28.5883 1.52852 28.5077 1.33407 28.3644 1.19071C28.221 1.04734 28.0265 0.966797 27.8238 0.966797H5.65405C5.4513 0.966797 5.25685 1.04734 5.11349 1.19071C4.97012 1.33407 4.88958 1.52852 4.88958 1.73127V4.78917H2.59616C2.3934 4.78917 2.19896 4.86971 2.05559 5.01307C1.91222 5.15644 1.83168 5.35089 1.83168 5.55364V8.61153H1.06721C0.864457 8.61153 0.67001 8.69208 0.526644 8.83544C0.383277 8.97881 0.302734 9.17326 0.302734 9.37601L0.302734 25.43C0.302734 25.6327 0.383277 25.8272 0.526644 25.9705C0.67001 26.1139 0.864457 26.1944 1.06721 26.1944H26.2948V24.6655H4.88958C4.07857 24.6655 3.30078 24.3433 2.72732 23.7698C2.15385 23.1964 1.83168 22.4186 1.83168 21.6076V10.1405H19.4146C19.5333 10.1405 19.6503 10.1129 19.7565 10.0599C19.8627 10.0068 19.955 9.92968 20.0262 9.83469L22.0902 7.08259H29.3527V26.1944H30.8817V6.31811C30.8817 6.11536 30.8011 5.92092 30.6578 5.77755C30.5144 5.63418 30.32 5.55364 30.1172 5.55364ZM3.36063 6.31811H15.5922V8.61153H3.36063V6.31811ZM21.0964 5.85943C21.1676 5.76448 21.26 5.68742 21.3661 5.63435C21.4723 5.58127 21.5893 5.55364 21.708 5.55364H27.0593V2.49574H6.41852V4.78917H16.3567C16.5594 4.78917 16.7539 4.86971 16.8972 5.01307C17.0406 5.15644 17.1212 5.35089 17.1212 5.55364V8.61153H19.0323L21.0964 5.85943Z" fill="white"/>
</svg>
