<svg width="28" height="30" viewBox="0 0 28 30" fill="none" xmlns="http://www.w3.org/2000/svg">
<g id="Group 1000008740">
<g id="Group">
<path id="Vector" d="M16.6642 26.7154C18.571 25.2657 20.9732 22.9488 22.8853 19.5124C24.2817 17.002 25.4162 13.8949 25.9036 10.092C26.0438 8.99917 25.8246 7.94634 25.3186 7.05951C24.8143 6.17623 24.0198 5.45451 23.0069 5.01953L15.6406 1.85303C15.0041 1.57961 14.3641 1.44291 13.7258 1.44291C13.0876 1.44291 12.4475 1.57961 11.811 1.85303L4.44472 5.01953C3.43183 5.45451 2.63821 6.17711 2.1331 7.05951C1.6271 7.94723 1.40783 8.99917 1.54809 10.092C2.03545 13.8949 3.16995 17.002 4.56634 19.5124C6.47849 22.9488 8.88154 25.2657 10.7875 26.7154C11.6672 27.3847 12.6961 27.7185 13.7249 27.7185C14.7538 27.7185 15.7827 27.3838 16.6624 26.7154H16.6642ZM9.86602 11.7476V10.0254C9.86602 8.96278 10.3001 7.99783 10.9996 7.2983C11.6992 6.59878 12.665 6.16469 13.7267 6.16469C14.7893 6.16469 15.7552 6.59878 16.4538 7.2983C17.1533 7.99783 17.5874 8.96367 17.5874 10.0254V11.7476C17.875 11.8621 18.1342 12.0343 18.35 12.25C18.365 12.2651 18.3784 12.2793 18.3908 12.2953C18.7752 12.701 19.0113 13.2469 19.0113 13.8435V18.4498C19.0113 19.0704 18.7574 19.6349 18.3491 20.0433C17.9407 20.4516 17.377 20.7055 16.7556 20.7055H10.6952C10.0746 20.7055 9.51005 20.4516 9.1017 20.0433C8.69335 19.6349 8.43946 19.0704 8.43946 18.4498V13.8435C8.43946 13.2256 8.69335 12.6619 9.10258 12.2518L9.10081 12.25C9.31652 12.0343 9.57574 11.8621 9.86336 11.7476H9.86602ZM16.2292 11.5878V10.0245C16.2292 9.3374 15.9478 8.71155 15.4942 8.25793C15.0405 7.8043 14.4147 7.5229 13.7276 7.5229C13.0405 7.5229 12.4147 7.8043 11.961 8.25793C11.5074 8.71155 11.226 9.3374 11.226 10.0245V11.5878H16.2301H16.2292ZM16.7574 12.9469H10.6969C10.6703 12.9469 10.6437 12.9478 10.617 12.9504H10.6144C10.4013 12.9699 10.2087 13.0658 10.064 13.2105L10.0631 13.2087L10.0613 13.2105C9.90064 13.3712 9.80033 13.5949 9.80033 13.8426V18.4489C9.80033 18.6948 9.90153 18.9186 10.064 19.0819C10.2264 19.2443 10.451 19.3455 10.6969 19.3455H16.7574C17.0033 19.3455 17.227 19.2443 17.3903 19.0819C17.5528 18.9194 17.654 18.6948 17.654 18.4489V13.8426C17.654 13.6082 17.5643 13.3952 17.4187 13.2371L17.3912 13.2105C17.2465 13.0658 17.0539 12.9708 16.8408 12.9504H16.8382C16.8115 12.9478 16.7858 12.9469 16.7583 12.9469H16.7574ZM24.0695 20.1693C22.0482 23.801 19.5031 26.2547 17.4827 27.7922C16.3561 28.6488 15.0414 29.0776 13.7276 29.0776C12.4138 29.0776 11.0991 28.6488 9.97255 27.7922C7.9521 26.2556 5.40612 23.8019 3.38567 20.1693C1.91472 17.5257 0.719848 14.2562 0.207634 10.2606C0.0292027 8.86868 0.309722 7.52467 0.95687 6.39017C1.60668 5.25122 2.62223 4.32444 3.91031 3.77051L11.2766 0.60401C12.0853 0.256024 12.9056 0.0820312 13.7276 0.0820312C14.5496 0.0820312 15.369 0.256024 16.1786 0.60401L23.5449 3.77051C24.833 4.32444 25.8485 5.25122 26.4983 6.38928C27.1464 7.52467 27.4269 8.86868 27.2476 10.2606C26.7354 14.2562 25.5414 17.5248 24.0695 20.1693Z" fill="white"/>
</g>
</g>
</svg>
