<svg width="25" height="30" viewBox="0 0 25 30" fill="none" xmlns="http://www.w3.org/2000/svg">
<g id="Group 1000008742">
<g id="Group">
<g id="Group_2">
<g id="Group_3">
<path id="Vector" d="M7.71192 16.0276H5.43341C5.25113 16.0276 5.10791 15.8844 5.10791 15.7021V10.0189C5.10791 9.83658 5.25113 9.69336 5.43341 9.69336H7.71192C7.8942 9.69336 8.03742 9.83658 8.03742 10.0189V15.7021C8.03742 15.8779 7.88769 16.0276 7.71192 16.0276ZM5.7524 15.3766H7.37991V10.3444H5.7524V15.3766Z" fill="white"/>
</g>
<g id="Group_4">
<path id="Vector_2" d="M11.6636 16.0301H9.38507C9.20279 16.0301 9.05957 15.8869 9.05957 15.7046V7.71027C9.05957 7.52799 9.20279 7.38477 9.38507 7.38477H11.6636C11.8459 7.38477 11.9891 7.52799 11.9891 7.71027V15.7046C11.9891 15.8803 11.8459 16.0301 11.6636 16.0301ZM9.71057 15.3791H11.3381V8.03577H9.71057V15.3791Z" fill="white"/>
</g>
<g id="Group_5">
<path id="Vector_3" d="M15.6151 16.0276H13.3366C13.1543 16.0276 13.0111 15.8844 13.0111 15.7021V10.0189C13.0111 9.83658 13.1543 9.69336 13.3366 9.69336H15.6151C15.7974 9.69336 15.9406 9.83658 15.9406 10.0189V15.7021C15.9406 15.8779 15.7974 16.0276 15.6151 16.0276ZM13.6621 15.3766H15.2896V10.3444H13.6621V15.3766Z" fill="white"/>
</g>
<g id="Group_6">
<path id="Vector_4" d="M19.5732 16.0282H17.2947C17.1125 16.0282 16.9692 15.885 16.9692 15.7027V9.0755C16.9692 8.89322 17.1125 8.75 17.2947 8.75H19.5732C19.7555 8.75 19.8987 8.89322 19.8987 9.0755V15.7027C19.8987 15.8785 19.7555 16.0282 19.5732 16.0282ZM17.6202 15.3772H19.2477V9.401H17.6202V15.3772Z" fill="white"/>
</g>
<g id="Group_7">
<path id="Vector_5" d="M14.6256 8.88792C14.6191 8.88792 14.6061 8.88792 14.5996 8.88792C14.4759 8.8749 14.3652 8.79678 14.3262 8.6796L12.9265 4.94285L11.1167 6.02351C10.993 6.10163 10.8303 6.0821 10.7196 5.97794L9.37854 4.67594L7.0805 8.19135C6.98285 8.34108 6.78104 8.38665 6.63131 8.289C6.48158 8.19135 6.43601 7.98954 6.53366 7.83981L9.05955 3.98587C9.11163 3.90124 9.20277 3.84916 9.29391 3.84265C9.39156 3.82963 9.48921 3.86218 9.55431 3.93379L10.9995 5.33996L12.92 4.18117C13.0046 4.12909 13.1023 4.12258 13.1934 4.15513C13.2846 4.18768 13.3562 4.25929 13.3887 4.35043L14.6907 7.81377L16.4354 4.85171C16.494 4.76057 16.5916 4.69547 16.6958 4.68896C16.8065 4.68245 16.9106 4.73453 16.9757 4.81916L18.4795 6.84377C18.5837 6.98699 18.5577 7.18881 18.4144 7.29948C18.2712 7.40364 18.0694 7.3776 17.9587 7.23438L16.7479 5.60036L14.9055 8.72517C14.847 8.82933 14.7428 8.88792 14.6256 8.88792Z" fill="white"/>
</g>
<g id="Group_8">
<path id="Vector_6" d="M18.5576 8.3801C18.0694 8.3801 17.6722 7.98299 17.6722 7.49474C17.6722 7.00649 18.0694 6.60938 18.5576 6.60938C19.0459 6.60938 19.443 7.00649 19.443 7.49474C19.443 7.98299 19.0459 8.3801 18.5576 8.3801ZM18.5576 7.26038C18.4274 7.26038 18.3232 7.36454 18.3232 7.49474C18.3232 7.62494 18.4274 7.7291 18.5576 7.7291C18.6878 7.7291 18.792 7.62494 18.792 7.49474C18.792 7.36454 18.6878 7.26038 18.5576 7.26038Z" fill="white"/>
</g>
<g id="Group_9">
<path id="Vector_7" d="M6.50756 9.36252C6.0193 9.36252 5.62219 8.96541 5.62219 8.47716C5.62219 7.98891 6.0193 7.5918 6.50756 7.5918C6.99581 7.5918 7.39292 7.98891 7.39292 8.47716C7.39292 8.96541 6.99581 9.36252 6.50756 9.36252ZM6.50756 8.2428C6.37736 8.2428 6.2732 8.34696 6.2732 8.47716C6.2732 8.60736 6.37736 8.71152 6.50756 8.71152C6.63776 8.71152 6.74192 8.60736 6.74192 8.47716C6.74192 8.34696 6.63776 8.2428 6.50756 8.2428Z" fill="white"/>
</g>
</g>
<g id="Group_10">
<path id="Vector_8" d="M22.991 19.2834H2.00918C1.13684 19.2834 0.427246 18.5738 0.427246 17.7014V2.16201C0.427246 1.28967 1.13684 0.580078 2.00918 0.580078H22.991C23.8633 0.580078 24.5729 1.28967 24.5729 2.16201V17.7014C24.5729 18.5738 23.8633 19.2834 22.991 19.2834ZM2.00918 1.23108C1.49489 1.23108 1.07825 1.64772 1.07825 2.16201V17.7014C1.07825 18.2157 1.49489 18.6324 2.00918 18.6324H22.991C23.5053 18.6324 23.9219 18.2157 23.9219 17.7014V2.16201C23.9219 1.64772 23.5053 1.23108 22.991 1.23108H2.00918Z" fill="white"/>
</g>
<g id="Group_11">
<path id="Vector_9" d="M22.4571 17.4939H2.54291C2.36063 17.4939 2.21741 17.3507 2.21741 17.1684V2.69659C2.21741 2.51431 2.36063 2.37109 2.54291 2.37109H22.4571C22.6394 2.37109 22.7826 2.51431 22.7826 2.69659V17.1684C22.7826 17.3441 22.6394 17.4939 22.4571 17.4939ZM2.86841 16.8429H22.1316V3.0221H2.86841V16.8429Z" fill="white"/>
</g>
<g id="Group_12">
<g id="Group_13">
<g id="Group_14">
<path id="Vector_10" d="M7.36038 29.2302H1.39069C1.20841 29.2302 1.06519 29.087 1.06519 28.9047V26.1965C1.06519 25.3112 1.7878 24.582 2.67967 24.582H6.0779C6.96327 24.582 7.69239 25.3046 7.69239 26.1965V28.9047C7.68588 29.0805 7.54266 29.2302 7.36038 29.2302ZM1.71619 28.5792H7.03488V26.1965C7.03488 25.6692 6.60522 25.233 6.07139 25.233H2.67316C2.14585 25.233 1.70968 25.6627 1.70968 26.1965V28.5792H1.71619Z" fill="white"/>
</g>
<g id="Group_15">
<path id="Vector_11" d="M4.37232 24.3084C3.27212 24.3084 2.38025 23.4165 2.38025 22.3163C2.38025 21.2161 3.27212 20.3242 4.37232 20.3242C5.47251 20.3242 6.36438 21.2161 6.36438 22.3163C6.37089 23.4165 5.47251 24.3084 4.37232 24.3084ZM4.37232 20.9752C3.63017 20.9752 3.03125 21.5807 3.03125 22.3163C3.03125 23.0584 3.63668 23.6574 4.37232 23.6574C5.10795 23.6574 5.71338 23.0519 5.71338 22.3163C5.71989 21.5741 5.11446 20.9752 4.37232 20.9752Z" fill="white"/>
</g>
<g id="Group_16">
<g id="Group_17">
<path id="Vector_12" d="M2.82941 29.2303C2.64713 29.2303 2.50391 29.0871 2.50391 28.9048V27.0364C2.50391 26.8542 2.64713 26.7109 2.82941 26.7109C3.01169 26.7109 3.15491 26.8542 3.15491 27.0364V28.9048C3.15491 29.0806 3.01169 29.2303 2.82941 29.2303Z" fill="white"/>
</g>
<g id="Group_18">
<path id="Vector_13" d="M5.9151 29.2303C5.73282 29.2303 5.5896 29.0871 5.5896 28.9048V27.0364C5.5896 26.8542 5.73282 26.7109 5.9151 26.7109C6.09738 26.7109 6.2406 26.8542 6.2406 27.0364V28.9048C6.2406 29.0806 6.09738 29.2303 5.9151 29.2303Z" fill="white"/>
</g>
</g>
</g>
<g id="Group_19">
<g id="Group_20">
<path id="Vector_14" d="M15.485 29.2302H9.51532C9.33304 29.2302 9.18982 29.087 9.18982 28.9047V26.1965C9.18982 25.3112 9.91243 24.582 10.8043 24.582H14.2025C15.0879 24.582 15.817 25.3046 15.817 26.1965V28.9047C15.8105 29.0805 15.6673 29.2302 15.485 29.2302ZM9.84082 28.5792H15.1595V26.1965C15.1595 25.6692 14.7299 25.233 14.196 25.233H10.7978C10.2705 25.233 9.83431 25.6627 9.83431 26.1965L9.84082 28.5792Z" fill="white"/>
</g>
<g id="Group_21">
<path id="Vector_15" d="M12.5034 24.3084C11.4032 24.3084 10.5114 23.4165 10.5114 22.3163C10.5114 21.2161 11.4032 20.3242 12.5034 20.3242C13.6036 20.3242 14.4955 21.2161 14.4955 22.3163C14.4955 23.4165 13.6036 24.3084 12.5034 24.3084ZM12.5034 20.9752C11.7613 20.9752 11.1624 21.5807 11.1624 22.3163C11.1624 23.0584 11.7678 23.6574 12.5034 23.6574C13.2456 23.6574 13.8445 23.0519 13.8445 22.3163C13.8445 21.5741 13.2391 20.9752 12.5034 20.9752Z" fill="white"/>
</g>
<g id="Group_22">
<g id="Group_23">
<path id="Vector_16" d="M10.9605 29.2303C10.7782 29.2303 10.635 29.0871 10.635 28.9048V27.0364C10.635 26.8542 10.7782 26.7109 10.9605 26.7109C11.1428 26.7109 11.286 26.8542 11.286 27.0364V28.9048C11.286 29.0806 11.1363 29.2303 10.9605 29.2303Z" fill="white"/>
</g>
<g id="Group_24">
<path id="Vector_17" d="M14.0462 29.2303C13.8639 29.2303 13.7207 29.0871 13.7207 28.9048V27.0364C13.7207 26.8542 13.8639 26.7109 14.0462 26.7109C14.2285 26.7109 14.3717 26.8542 14.3717 27.0364V28.9048C14.3717 29.0806 14.222 29.2303 14.0462 29.2303Z" fill="white"/>
</g>
</g>
</g>
<g id="Group_25">
<g id="Group_26">
<path id="Vector_18" d="M23.6095 29.2302H17.6398C17.4576 29.2302 17.3143 29.087 17.3143 28.9047V26.1965C17.3143 25.3112 18.0369 24.582 18.9288 24.582H22.327C23.2124 24.582 23.9415 25.3046 23.9415 26.1965V28.9047C23.935 29.0805 23.7918 29.2302 23.6095 29.2302ZM17.9653 28.5792H23.284V26.1965C23.284 25.6692 22.8544 25.233 22.3205 25.233H18.9288C18.4015 25.233 17.9653 25.6627 17.9653 26.1965V28.5792Z" fill="white"/>
</g>
<g id="Group_27">
<path id="Vector_19" d="M20.6279 24.3084C19.5277 24.3084 18.6359 23.4165 18.6359 22.3163C18.6359 21.2161 19.5277 20.3242 20.6279 20.3242C21.7281 20.3242 22.62 21.2161 22.62 22.3163C22.62 23.4165 21.7281 24.3084 20.6279 24.3084ZM20.6279 20.9752C19.8858 20.9752 19.2869 21.5807 19.2869 22.3163C19.2869 23.0584 19.8923 23.6574 20.6279 23.6574C21.3701 23.6574 21.969 23.0519 21.969 22.3163C21.969 21.5741 21.3701 20.9752 20.6279 20.9752Z" fill="white"/>
</g>
<g id="Group_28">
<g id="Group_29">
<path id="Vector_20" d="M19.085 29.2303C18.9027 29.2303 18.7595 29.0871 18.7595 28.9048V27.0364C18.7595 26.8542 18.9027 26.7109 19.085 26.7109C19.2673 26.7109 19.4105 26.8542 19.4105 27.0364V28.9048C19.4105 29.0806 19.2608 29.2303 19.085 29.2303Z" fill="white"/>
</g>
<g id="Group_30">
<path id="Vector_21" d="M22.1707 29.2303C21.9884 29.2303 21.8452 29.0871 21.8452 28.9048V27.0364C21.8452 26.8542 21.9884 26.7109 22.1707 26.7109C22.353 26.7109 22.4962 26.8542 22.4962 27.0364V28.9048C22.4962 29.0806 22.3465 29.2303 22.1707 29.2303Z" fill="white"/>
</g>
</g>
</g>
</g>
</g>
</g>
</svg>
