<svg width="31" height="26" viewBox="0 0 31 26" fill="none" xmlns="http://www.w3.org/2000/svg">
<path id="Vector" fill-rule="evenodd" clip-rule="evenodd" d="M30.117 4.82317H28.5881V1.0008C28.5881 0.798051 28.5075 0.603604 28.3642 0.460237C28.2208 0.316871 28.0264 0.236328 27.8236 0.236328H5.65387C5.45112 0.236328 5.25667 0.316871 5.1133 0.460237C4.96994 0.603604 4.88939 0.798051 4.88939 1.0008V4.0587H2.59597C2.39322 4.0587 2.19877 4.13924 2.05541 4.28261C1.91204 4.42597 1.8315 4.62042 1.8315 4.82317V7.88107H1.06702C0.864274 7.88107 0.669827 7.96161 0.52646 8.10497C0.383094 8.24834 0.302551 8.44279 0.302551 8.64554L0.302551 24.6995C0.302551 24.9022 0.383094 25.0967 0.52646 25.2401C0.669827 25.3834 0.864274 25.464 1.06702 25.464H26.2947V23.935H4.88939C4.07839 23.935 3.3006 23.6128 2.72714 23.0394C2.15367 22.4659 1.8315 21.6881 1.8315 20.8771V9.41001H19.4144C19.5331 9.41007 19.6502 9.38247 19.7563 9.32939C19.8625 9.27631 19.9548 9.19921 20.026 9.10422L22.0901 6.35212H29.3526V25.464H30.8815V5.58764C30.8815 5.38489 30.801 5.19045 30.6576 5.04708C30.5142 4.90371 30.3198 4.82317 30.117 4.82317ZM3.36045 5.58764H15.592V7.88107H3.36045V5.58764ZM21.0962 5.12896C21.1674 5.03402 21.2598 4.95695 21.3659 4.90388C21.4721 4.8508 21.5891 4.82317 21.7078 4.82317H27.0591V1.76528H6.41834V4.0587H16.3565C16.5592 4.0587 16.7537 4.13924 16.8971 4.28261C17.0404 4.42597 17.121 4.62042 17.121 4.82317V7.88107H19.0322L21.0962 5.12896Z" fill="white"/>
</svg>
