<svg width="31" height="32" viewBox="0 0 31 32" fill="none" xmlns="http://www.w3.org/2000/svg">
<g id="0E0E1A" clip-path="url(#clip0_1467_84127)">
<g id="Group">
<path id="Vector" fill-rule="evenodd" clip-rule="evenodd" d="M22.5997 20.4203L18.7773 16.598L14.955 20.4203V5.13086H22.5997V20.4203Z" stroke="white" stroke-width="1.27412" stroke-linecap="round"/>
<path id="Vector_2" d="M22.5998 6.40567H26.4222V30.614H7.31033C6.63449 30.614 5.98634 30.3455 5.50845 29.8676C5.03056 29.3897 4.76208 28.7416 4.76208 28.0658V3.85742" stroke="white" stroke-width="1.27412" stroke-linecap="round"/>
<path id="Vector_3" d="M25.148 6.40704V1.31055H7.31033C6.63449 1.31055 5.98634 1.57902 5.50845 2.05691C5.03056 2.5348 4.76208 3.18296 4.76208 3.85879C4.76208 4.53463 5.03056 5.18279 5.50845 5.66067C5.98634 6.13856 6.63449 6.40704 7.31033 6.40704H14.9551" stroke="white" stroke-width="1.27412" stroke-linecap="round"/>
</g>
</g>
<defs>
<clipPath id="clip0_1467_84127">
<rect width="30.5789" height="30.5789" fill="white" transform="translate(0.21051 0.580078)"/>
</clipPath>
</defs>
</svg>
