<svg width="17" height="17" viewBox="0 0 17 17" fill="none" xmlns="http://www.w3.org/2000/svg">
<g clip-path="url(#clip0_1007_4552)">
<path d="M10.3871 3.93338C10.791 3.52968 11.089 3.08751 11.2814 2.60671C11.4673 2.1259 11.5602 1.69014 11.5602 1.29892C11.5602 1.27346 11.5586 1.24105 11.5554 1.20275C11.552 1.16446 11.5506 1.1326 11.5506 1.10659C11.5442 1.08735 11.5362 1.05209 11.5266 1.00061C11.517 0.949519 11.509 0.914253 11.5025 0.89502C10.3743 1.15786 9.57305 1.63226 9.09871 2.31821C8.6179 3.01041 8.36787 3.83418 8.34863 4.78937C8.77797 4.75073 9.11131 4.6966 9.34871 4.62607C9.69489 4.51035 10.0409 4.27972 10.3871 3.93338Z" fill="white"/>
<path d="M13.6565 11.3664C13.2141 10.7321 12.993 10.0173 12.993 9.22201C12.993 8.49774 13.2011 7.83441 13.618 7.23162C13.8424 6.90486 14.2078 6.52662 14.7142 6.09691C14.3809 5.68681 14.0475 5.36645 13.7142 5.1353C13.1115 4.71912 12.4288 4.51025 11.6661 4.51025C11.2109 4.51025 10.6564 4.6196 10.0025 4.8374C9.37423 5.05554 8.91589 5.16416 8.62756 5.16416C8.40963 5.16416 7.96728 5.06799 7.30055 4.87569C6.62743 4.68335 6.06027 4.58719 5.59866 4.58719C4.49601 4.58719 3.5857 5.04876 2.86787 5.97208C2.14346 6.90806 1.78125 8.10667 1.78125 9.56815C1.78125 11.1194 2.25243 12.7315 3.19483 14.4049C4.14987 16.0651 5.11466 16.8951 6.0891 16.8951C6.41604 16.8951 6.83897 16.7862 7.35825 16.5684C7.87752 16.3568 8.33249 16.2511 8.72356 16.2511C9.14026 16.2511 9.62409 16.3536 10.1756 16.5586C10.7588 16.7637 11.2075 16.8661 11.5217 16.8661C12.3421 16.8661 13.1659 16.238 13.9928 14.9817C14.5314 14.1805 14.9256 13.379 15.1756 12.5778C14.6051 12.4049 14.0988 12.001 13.6565 11.3664Z" fill="white"/>
</g>
<defs>
<clipPath id="clip0_1007_4552">
<rect width="16" height="16" fill="white" transform="translate(0.478516 0.89502)"/>
</clipPath>
</defs>
</svg>
