<svg width="16" height="17" viewBox="0 0 16 17" fill="none" xmlns="http://www.w3.org/2000/svg">
<g clip-path="url(#clip0_1007_4541)">
<g clip-path="url(#clip1_1007_4541)">
<mask id="mask0_1007_4541" style="mask-type:luminance" maskUnits="userSpaceOnUse" x="0" y="0" width="16" height="17">
<path d="M16 0.89502H0V16.895H16V0.89502Z" fill="white"/>
</mask>
<g mask="url(#mask0_1007_4541)">
<path d="M15.04 9.06152C15.04 8.54152 14.9933 8.04152 14.9067 7.56152H8V10.3982H11.9467C11.7767 11.3149 11.26 12.0916 10.4833 12.6116V14.4516H12.8533C14.24 13.1749 15.04 11.2949 15.04 9.06152Z" fill="#4285F4"/>
<path d="M8.00011 16.228C9.98011 16.228 11.6401 15.5714 12.8534 14.4514L10.4834 12.6114C9.82678 13.0514 8.98678 13.3114 8.00011 13.3114C6.09011 13.3114 4.47344 12.0214 3.89678 10.2881H1.44678V12.188C2.65344 14.5847 5.13344 16.228 8.00011 16.228Z" fill="#34A853"/>
<path d="M3.89651 10.2882C3.74984 9.84822 3.66651 9.37822 3.66651 8.89489C3.66651 8.41156 3.74984 7.94155 3.89651 7.50156V5.60156H1.44651C0.949837 6.59156 0.666504 7.71156 0.666504 8.89489C0.666504 10.0782 0.949837 11.1982 1.44651 12.1882L3.89651 10.2882Z" fill="#FBBC05"/>
<path d="M8.00011 4.47819C9.07678 4.47819 10.0434 4.84819 10.8034 5.57486L12.9068 3.47152C11.6368 2.28819 9.97678 1.56152 8.00011 1.56152C5.13344 1.56152 2.65344 3.20486 1.44678 5.60152L3.89678 7.50152C4.47344 5.76819 6.09011 4.47819 8.00011 4.47819Z" fill="#EA4335"/>
</g>
</g>
</g>
<defs>
<clipPath id="clip0_1007_4541">
<rect width="16" height="16" fill="white" transform="translate(0 0.89502)"/>
</clipPath>
<clipPath id="clip1_1007_4541">
<rect width="16" height="16" fill="white" transform="translate(0 0.89502)"/>
</clipPath>
</defs>
</svg>
