<svg width="83" height="61" viewBox="0 0 83 61" fill="none" xmlns="http://www.w3.org/2000/svg">
<path id="Vector" d="M82.4301 16.8257C81.6726 6.48843 71.2306 -2.10906 59.2366 1.17042C53.6569 2.71009 49.8631 6.35602 47.3627 11.5355C44.9608 16.5086 43.1594 21.9374 37.9338 24.9952C39.8922 25.3986 39.8922 25.3986 46.1063 22.6888C39.92 55.6068 0.341309 58.3721 0.341309 58.3721C46.8854 68.5339 69.5616 37.562 69.5616 37.562C69.4076 41.3619 67.4461 44.2225 65.2721 47.2064C65.6724 47.2064 65.7894 47.2403 65.8633 47.2064C66.1712 47.034 66.4792 46.8523 66.7871 46.6521C70.1214 44.4313 73.0397 41.6422 75.4092 38.4118C80.096 31.9853 83.0213 24.9244 82.4301 16.8257ZM64.2251 26.7597C62.6495 26.7547 61.1109 26.2816 59.8046 25.4006C58.4982 24.5195 57.4832 23.2702 56.8882 21.8112C56.2932 20.3522 56.1451 18.7494 56.4627 17.2061C56.7804 15.6628 57.5494 14.2486 58.6722 13.1432C59.795 12.0378 61.2209 11.2908 62.769 10.9973C64.317 10.7037 65.9174 10.8767 67.3669 11.4943C68.8165 12.1119 70.0498 13.1463 70.9104 14.4662C71.7711 15.786 72.2201 17.3318 72.2006 18.9074C72.1714 21.0022 71.3179 23.0011 69.825 24.471C68.3321 25.9408 66.3201 26.7631 64.2251 26.7597Z" fill="url(#paint0_linear_349_8150)"/>
<defs>
<linearGradient id="paint0_linear_349_8150" x1="-1.70029" y1="61.4422" x2="69.2013" y2="19.9266" gradientUnits="userSpaceOnUse">
<stop stop-color="#FDBB14"/>
<stop offset="1" stop-color="#EC2227"/>
</linearGradient>
</defs>
</svg>
